<svg width="412" height="429" viewBox="0 0 412 429" fill="none" xmlns="http://www.w3.org/2000/svg">
<g clip-path="url(#clip0_480_5212)">
<path d="M224.523 430.818C218.664 408.536 243.25 365.687 249.618 364.418C255.986 363.148 278.971 369.073 289.257 367.084C298.244 365.327 302.144 357.604 302.558 352.462C302.973 347.32 299.337 340.824 299.676 338.137C300.015 335.45 303.934 332.36 306.797 330.583C309.68 328.805 311.941 324.192 307.476 318.098C312.751 315.855 313.033 312.047 312.958 310.396C312.883 308.746 308.625 299.097 312.073 292.452C312.073 292.452 325.298 289.067 325.034 279.058C324.752 269.049 302.69 245.795 302.54 237.098C302.408 228.401 307.796 226.772 308.757 217.842C309.718 208.913 303.84 172.708 283.153 151.082C254.234 120.824 201.199 121.12 188.52 121.734C175.841 122.347 110.145 143.909 110.145 219.45C110.145 256.65 143.888 288.749 145.112 313.485C146.356 338.2 139.423 362.619 134.148 380.33C128.872 398.041 109.053 430.818 109.053 430.818H224.523Z" fill="url(#paint0_linear_480_5212)"/>
<g opacity="0.73">
<path d="M102.138 119.194H147.693C148.089 120.506 149.201 121.458 150.519 121.458C152.159 121.458 153.496 119.956 153.496 118.115C153.496 116.274 152.159 114.772 150.519 114.772C149.201 114.772 148.089 115.724 147.693 117.036H102.854L85.2766 100.256H-28.1968V102.393H84.5795L102.138 119.194Z" fill="url(#paint1_linear_480_5212)"/>
<path d="M196.904 128.568H-28.1968V130.705H196.904V128.568Z" fill="url(#paint2_linear_480_5212)"/>
<path d="M124.765 152.416H160.222C160.618 153.727 161.729 154.68 163.048 154.68C164.687 154.68 166.025 153.177 166.025 151.336C166.025 149.495 164.687 147.993 163.048 147.993C161.729 147.993 160.618 148.945 160.222 150.257H125.33L112.011 140.735H-28.1968V142.872H111.445L124.765 152.416Z" fill="url(#paint3_linear_480_5212)"/>
<path d="M120.978 165.725L122.071 163.948L108.77 153.558H-28.1968V155.716H108.167L120.978 165.725Z" fill="url(#paint4_linear_480_5212)"/>
<path d="M128.571 187.203L127.365 185.531L114.045 197.698H-28.1968V199.835H114.723L128.571 187.203Z" fill="url(#paint5_linear_480_5212)"/>
<path d="M196.904 228.232H-28.1968V230.369H196.904V228.232Z" fill="url(#paint6_linear_480_5212)"/>
<path d="M83.4491 117.353C85.0882 117.353 86.4258 115.851 86.4258 114.01C86.4258 112.169 85.0882 110.667 83.4491 110.667C82.1868 110.667 81.1129 111.534 80.6796 112.783H-28.1968V114.92H80.5854C80.9245 116.338 82.0738 117.353 83.4491 117.353Z" fill="url(#paint7_linear_480_5212)"/>
<path d="M95.8269 171.46C97.466 171.46 98.8037 169.957 98.8037 168.116C98.8037 166.275 97.466 164.773 95.8269 164.773C94.5081 164.773 93.3966 165.725 93.0009 167.037H-28.1968V169.174H93.0198C93.4154 170.507 94.527 171.46 95.8269 171.46Z" fill="url(#paint8_linear_480_5212)"/>
<path d="M209.093 172.56C207.774 172.56 206.663 173.512 206.267 174.824H113.913L105.115 182.505H-28.1968V184.642H105.756L114.554 176.961H206.267C206.663 178.273 207.774 179.225 209.093 179.225C210.732 179.225 212.07 177.723 212.07 175.882C212.07 174.062 210.732 172.56 209.093 172.56Z" fill="url(#paint9_linear_480_5212)"/>
<path d="M150.519 218.689C152.159 218.689 153.496 217.186 153.496 215.345C153.496 213.504 152.159 212.002 150.519 212.002C149.22 212.002 148.127 212.933 147.712 214.224H-28.1968V216.361H147.693C148.07 217.715 149.201 218.689 150.519 218.689Z" fill="url(#paint10_linear_480_5212)"/>
<path d="M155.795 253.582C154.476 253.582 153.364 254.534 152.969 255.846H121.92L110.202 243.34H-28.1968V245.477H109.429L121.148 257.983H152.969C153.364 259.295 154.476 260.247 155.795 260.247C157.434 260.247 158.771 258.745 158.771 256.904C158.771 255.084 157.434 253.582 155.795 253.582Z" fill="url(#paint11_linear_480_5212)"/>
<path d="M102.138 273.726H147.693C148.089 275.038 149.201 275.99 150.519 275.99C152.159 275.99 153.496 274.488 153.496 272.647C153.496 270.806 152.159 269.303 150.519 269.303C149.201 269.303 148.089 270.256 147.693 271.567H102.854L85.2766 254.788H-28.1968V256.925H84.5795L102.138 273.726Z" fill="url(#paint12_linear_480_5212)"/>
<path d="M196.904 283.1H-28.1968V285.237H196.904V283.1Z" fill="url(#paint13_linear_480_5212)"/>
<path d="M124.765 306.947H160.222C160.618 308.259 161.729 309.211 163.048 309.211C164.687 309.211 166.025 307.709 166.025 305.868C166.025 304.027 164.687 302.525 163.048 302.525C161.729 302.525 160.618 303.477 160.222 304.789H125.33L112.011 295.245H-28.1968V297.383H111.445L124.765 306.947Z" fill="url(#paint14_linear_480_5212)"/>
<path d="M120.978 320.257L122.071 318.479L108.77 308.09H-28.1968V310.248H108.167L120.978 320.257Z" fill="url(#paint15_linear_480_5212)"/>
<path d="M128.571 341.734L127.365 340.062L114.045 352.229H-28.1968V354.367H114.723L128.571 341.734Z" fill="url(#paint16_linear_480_5212)"/>
<path d="M196.904 382.763H-28.1968V384.9H196.904V382.763Z" fill="url(#paint17_linear_480_5212)"/>
<path d="M83.4491 271.885C85.0882 271.885 86.4258 270.382 86.4258 268.542C86.4258 266.701 85.0882 265.198 83.4491 265.198C82.1868 265.198 81.1129 266.066 80.6796 267.314H-28.1968V269.451H80.5854C80.9245 270.869 82.0738 271.885 83.4491 271.885Z" fill="url(#paint18_linear_480_5212)"/>
<path d="M95.8269 325.991C97.466 325.991 98.8037 324.489 98.8037 322.648C98.8037 320.807 97.466 319.304 95.8269 319.304C94.5081 319.304 93.3966 320.257 93.0009 321.569H-28.1968V323.706H93.0198C93.4154 325.06 94.527 325.991 95.8269 325.991Z" fill="url(#paint19_linear_480_5212)"/>
<path d="M209.093 327.091C207.774 327.091 206.663 328.043 206.267 329.355H113.913L105.115 337.037H-28.1968V339.174H105.756L114.554 331.493H206.267C206.663 332.804 207.774 333.757 209.093 333.757C210.732 333.757 212.07 332.254 212.07 330.413C212.07 328.594 210.732 327.091 209.093 327.091Z" fill="url(#paint20_linear_480_5212)"/>
<path d="M150.519 373.22C152.159 373.22 153.496 371.718 153.496 369.877C153.496 368.036 152.159 366.533 150.519 366.533C149.22 366.533 148.127 367.464 147.712 368.755H-28.1968V370.892H147.693C148.07 372.247 149.201 373.22 150.519 373.22Z" fill="url(#paint21_linear_480_5212)"/>
<path d="M155.795 408.113C154.476 408.113 153.364 409.065 152.969 410.377H121.92L110.202 397.871H-28.1968V400.009H109.429L121.148 412.514H152.969C153.364 413.826 154.476 414.778 155.795 414.778C157.434 414.778 158.771 413.276 158.771 411.435C158.771 409.615 157.434 408.113 155.795 408.113Z" fill="url(#paint22_linear_480_5212)"/>
</g>
<path d="M185.223 244.694C185.223 246.112 186.033 247.318 186.994 248.143C187.239 248.355 187.502 248.545 187.785 248.736L224.636 272.795C226.463 273.959 228.573 274.424 230.646 274.466C232.869 274.488 235.168 274.022 237.108 272.795L274.204 248.736C275.937 247.614 276.823 246.133 276.804 244.652L276.823 252.777C276.823 254.259 275.956 255.74 274.223 256.861C272.32 257.708 235.337 282.93 233.981 282.232C231.72 282.782 229.308 282.719 227.085 282.042C224.466 281.09 188.143 257.496 186.089 255.274C185.599 254.597 185.26 253.73 185.26 252.841C185.242 252.82 185.223 244.694 185.223 244.694Z" fill="url(#paint23_linear_480_5212)"/>
<path d="M187.841 240.61C184.375 242.853 184.356 246.493 187.804 248.736L224.655 272.795C228.084 275.038 233.679 275.038 237.146 272.795L274.242 248.736C277.708 246.493 277.727 242.853 274.279 240.61L237.428 216.551C233.999 214.309 228.404 214.309 224.937 216.551L187.841 240.61Z" fill="url(#paint24_linear_480_5212)"/>
<path d="M234.904 231.681V235.553L218.23 241.351L218.249 237.479L234.904 231.681Z" fill="url(#paint25_linear_480_5212)"/>
<path d="M211.542 239.806L211.523 243.7L203.61 246.451V242.557L211.542 239.806Z" fill="url(#paint26_linear_480_5212)"/>
<path d="M203.61 242.557V246.451L197.902 242.748L197.921 238.875L203.61 242.557Z" fill="url(#paint27_linear_480_5212)"/>
<path d="M222.582 246.958L222.563 250.852L211.523 243.7L211.542 239.806L222.582 246.958Z" fill="url(#paint28_linear_480_5212)"/>
<path d="M224.089 255.846V259.718L218.381 256.036L218.4 252.143L224.089 255.846Z" fill="url(#paint29_linear_480_5212)"/>
<path d="M244.248 231.025V234.918L224.089 259.718V255.846L244.248 231.025Z" fill="url(#paint30_linear_480_5212)"/>
<path d="M244.248 231.025L224.089 255.846L218.4 252.143L222.582 246.958L211.542 239.806L203.629 242.557L197.939 238.854L236.015 225.65L244.248 231.025ZM218.249 237.479L226.124 242.578L234.922 231.681L218.249 237.479Z" fill="url(#paint31_linear_480_5212)"/>
<path d="M262.806 243.065V246.958L233.679 265.96L233.698 262.067L262.806 243.065Z" fill="url(#paint32_linear_480_5212)"/>
<path d="M233.698 262.067L233.679 265.96L228.159 262.363V258.469L233.698 262.067Z" fill="url(#paint33_linear_480_5212)"/>
<path d="M262.806 243.065L233.698 262.067L228.159 258.469L257.286 239.468L262.806 243.065Z" fill="url(#paint34_linear_480_5212)"/>
<path d="M262.806 177.786H260.507V175.205H258.623V177.786H256.306V179.902H258.623V182.505H260.507V179.902H262.806V177.786Z" fill="#FA1692"/>
<path d="M109.053 228.718H106.754V226.116H104.87V228.718H102.553V230.813H104.87V233.416H106.754V230.813H109.053V228.718Z" fill="#FA1692"/>
<path d="M192.476 368.099H190.178V365.497H188.294V368.099H185.976V370.215H188.294V372.818H190.178V370.215H192.476V368.099Z" fill="#FA1692"/>
<path d="M172.524 112.254H170.226V109.651H168.342V112.254H166.025V114.349H168.342V116.951H170.226V114.349H172.524V112.254Z" fill="#FA1692"/>
<path d="M230.929 147.57C232.999 147.57 234.678 145.685 234.678 143.359C234.678 141.033 232.999 139.148 230.929 139.148C228.858 139.148 227.179 141.033 227.179 143.359C227.179 145.685 228.858 147.57 230.929 147.57Z" fill="url(#paint35_linear_480_5212)"/>
<path d="M221.094 419.37C222.041 419.37 222.809 418.508 222.809 417.445C222.809 416.381 222.041 415.519 221.094 415.519C220.147 415.519 219.38 416.381 219.38 417.445C219.38 418.508 220.147 419.37 221.094 419.37Z" fill="url(#paint36_linear_480_5212)"/>
<path d="M78.1173 318.733C79.0641 318.733 79.8317 317.871 79.8317 316.808C79.8317 315.744 79.0641 314.882 78.1173 314.882C77.1704 314.882 76.4028 315.744 76.4028 316.808C76.4028 317.871 77.1704 318.733 78.1173 318.733Z" fill="url(#paint37_linear_480_5212)"/>
<path d="M264.52 358.937C265.467 358.937 266.235 358.075 266.235 357.011C266.235 355.948 265.467 355.086 264.52 355.086C263.573 355.086 262.806 355.948 262.806 357.011C262.806 358.075 263.573 358.937 264.52 358.937Z" fill="url(#paint38_linear_480_5212)"/>
<path d="M244.248 354.303C246.433 354.303 248.205 352.313 248.205 349.859C248.205 347.405 246.433 345.416 244.248 345.416C242.063 345.416 240.292 347.405 240.292 349.859C240.292 352.313 242.063 354.303 244.248 354.303Z" fill="url(#paint39_linear_480_5212)"/>
<path d="M146.393 204.046C147.975 204.046 149.257 202.606 149.257 200.83C149.257 199.053 147.975 197.613 146.393 197.613C144.812 197.613 143.53 199.053 143.53 200.83C143.53 202.606 144.812 204.046 146.393 204.046Z" fill="url(#paint40_linear_480_5212)"/>
<path d="M278.933 214.626C280.088 214.626 281.024 213.574 281.024 212.277C281.024 210.98 280.088 209.928 278.933 209.928C277.778 209.928 276.842 210.98 276.842 212.277C276.842 213.574 277.778 214.626 278.933 214.626Z" fill="url(#paint41_linear_480_5212)"/>
<path d="M271.661 126.558C272.816 126.558 273.752 125.506 273.752 124.209C273.752 122.912 272.816 121.86 271.661 121.86C270.506 121.86 269.569 122.912 269.569 124.209C269.569 125.506 270.506 126.558 271.661 126.558Z" fill="url(#paint42_linear_480_5212)"/>
<path d="M102.553 145.708C103.708 145.708 104.644 144.656 104.644 143.359C104.644 142.062 103.708 141.01 102.553 141.01C101.398 141.01 100.461 142.062 100.461 143.359C100.461 144.656 101.398 145.708 102.553 145.708Z" fill="url(#paint43_linear_480_5212)"/>
<path d="M170.471 246.006C170.471 246.006 178.516 234.643 184.827 226.116C191.138 217.588 200.747 216.213 207.774 215.472C214.801 214.753 222.752 206.374 211.994 200.618L186.033 206.776L163.312 234.326L170.471 246.006Z" fill="url(#paint44_linear_480_5212)"/>
<path d="M164.009 212.764C164.009 212.764 181.059 193.931 189.763 189.107C198.467 184.282 214.199 186.018 217.232 186.377C225.578 187.393 225.578 201.634 210.261 202.607C200.502 203.221 192.909 206.839 188.407 210.098C183.885 213.356 176.368 231.385 169.096 236.759L164.009 212.764Z" fill="url(#paint45_linear_480_5212)"/>
<path d="M74.5 510.337C74.5 510.337 124.746 371.76 141.344 349.288C144.302 345.268 152.347 347.109 164.536 341.311C176.726 335.513 178.629 328.403 190.234 322.775C201.84 317.146 215.235 320.574 223.279 317.993C231.324 315.411 247.225 309.571 247.64 306.185C248.902 295.732 234.734 289.363 215.913 295.563C197.073 301.763 185.468 291.014 181.85 287.014C178.233 283.015 170.772 266.574 171.601 257.496C172.43 248.418 171.62 230.411 173.73 223.682C175.84 216.954 179.382 200.576 182.642 195.243C185.901 189.911 189.914 181.659 193.908 176.855C197.902 172.073 201.029 170.169 205.061 163.503C209.093 156.817 205.306 146.068 200.427 149.919C195.528 153.791 188.67 160.308 184.168 164.307C179.646 168.307 168.248 179.5 165.271 184.177C160.938 190.948 155.305 212.383 151.857 219.725C148.409 227.068 146.959 228.528 141.307 238.389C135.673 248.249 109.279 308.195 95.5255 335.513C81.7722 362.831 23.3306 417.593 23.3306 417.593L33.1462 518.23L74.5 510.337Z" fill="url(#paint46_linear_480_5212)"/>
</g>
<defs>
<linearGradient id="paint0_linear_480_5212" x1="51.5804" y1="383.002" x2="367.515" y2="201.303" gradientUnits="userSpaceOnUse">
<stop offset="1.28e-06" stop-color="#020614"/>
<stop offset="0.1347" stop-color="#060714"/>
<stop offset="0.2676" stop-color="#120B14"/>
<stop offset="0.3999" stop-color="#261014"/>
<stop offset="0.5318" stop-color="#421915"/>
<stop offset="0.6636" stop-color="#652315"/>
<stop offset="0.7952" stop-color="#913015"/>
<stop offset="0.9243" stop-color="#C43F16"/>
<stop offset="1" stop-color="#E64916"/>
</linearGradient>
<linearGradient id="paint1_linear_480_5212" x1="-28.1952" y1="110.876" x2="153.502" y2="110.876" gradientUnits="userSpaceOnUse">
<stop offset="6.3e-07" stop-color="#020614"/>
<stop offset="0.1138" stop-color="#110717"/>
<stop offset="0.3324" stop-color="#38091E"/>
<stop offset="0.6335" stop-color="#770C2B"/>
<stop offset="1" stop-color="#CD113B"/>
</linearGradient>
<linearGradient id="paint2_linear_480_5212" x1="-28.1952" y1="129.64" x2="196.909" y2="129.64" gradientUnits="userSpaceOnUse">
<stop offset="6.3e-07" stop-color="#020614"/>
<stop offset="0.1138" stop-color="#110717"/>
<stop offset="0.3324" stop-color="#38091E"/>
<stop offset="0.6335" stop-color="#770C2B"/>
<stop offset="1" stop-color="#CD113B"/>
</linearGradient>
<linearGradient id="paint3_linear_480_5212" x1="-28.1952" y1="147.714" x2="166.022" y2="147.714" gradientUnits="userSpaceOnUse">
<stop offset="6.3e-07" stop-color="#020614"/>
<stop offset="0.1138" stop-color="#110717"/>
<stop offset="0.3324" stop-color="#38091E"/>
<stop offset="0.6335" stop-color="#770C2B"/>
<stop offset="1" stop-color="#CD113B"/>
</linearGradient>
<linearGradient id="paint4_linear_480_5212" x1="-28.1952" y1="159.64" x2="122.078" y2="159.64" gradientUnits="userSpaceOnUse">
<stop offset="6.3e-07" stop-color="#020614"/>
<stop offset="0.1138" stop-color="#110717"/>
<stop offset="0.3324" stop-color="#38091E"/>
<stop offset="0.6335" stop-color="#770C2B"/>
<stop offset="1" stop-color="#CD113B"/>
</linearGradient>
<linearGradient id="paint5_linear_480_5212" x1="-28.1952" y1="192.687" x2="128.578" y2="192.687" gradientUnits="userSpaceOnUse">
<stop offset="6.3e-07" stop-color="#020614"/>
<stop offset="0.1138" stop-color="#110717"/>
<stop offset="0.3324" stop-color="#38091E"/>
<stop offset="0.6335" stop-color="#770C2B"/>
<stop offset="1" stop-color="#CD113B"/>
</linearGradient>
<linearGradient id="paint6_linear_480_5212" x1="-28.1952" y1="229.301" x2="196.909" y2="229.301" gradientUnits="userSpaceOnUse">
<stop offset="6.3e-07" stop-color="#020614"/>
<stop offset="0.1138" stop-color="#110717"/>
<stop offset="0.3324" stop-color="#38091E"/>
<stop offset="0.6335" stop-color="#770C2B"/>
<stop offset="1" stop-color="#CD113B"/>
</linearGradient>
<linearGradient id="paint7_linear_480_5212" x1="-28.1952" y1="114.017" x2="86.4231" y2="114.017" gradientUnits="userSpaceOnUse">
<stop offset="6.3e-07" stop-color="#020614"/>
<stop offset="0.1138" stop-color="#110717"/>
<stop offset="0.3324" stop-color="#38091E"/>
<stop offset="0.6335" stop-color="#770C2B"/>
<stop offset="1" stop-color="#CD113B"/>
</linearGradient>
<linearGradient id="paint8_linear_480_5212" x1="-28.1952" y1="168.123" x2="98.8123" y2="168.123" gradientUnits="userSpaceOnUse">
<stop offset="6.3e-07" stop-color="#020614"/>
<stop offset="0.1138" stop-color="#110717"/>
<stop offset="0.3324" stop-color="#38091E"/>
<stop offset="0.6335" stop-color="#770C2B"/>
<stop offset="1" stop-color="#CD113B"/>
</linearGradient>
<linearGradient id="paint9_linear_480_5212" x1="-28.1952" y1="178.611" x2="212.072" y2="178.611" gradientUnits="userSpaceOnUse">
<stop offset="6.3e-07" stop-color="#020614"/>
<stop offset="0.1138" stop-color="#110717"/>
<stop offset="0.3324" stop-color="#38091E"/>
<stop offset="0.6335" stop-color="#770C2B"/>
<stop offset="1" stop-color="#CD113B"/>
</linearGradient>
<linearGradient id="paint10_linear_480_5212" x1="-28.1952" y1="215.343" x2="153.502" y2="215.343" gradientUnits="userSpaceOnUse">
<stop offset="6.3e-07" stop-color="#020614"/>
<stop offset="0.1138" stop-color="#110717"/>
<stop offset="0.3324" stop-color="#38091E"/>
<stop offset="0.6335" stop-color="#770C2B"/>
<stop offset="1" stop-color="#CD113B"/>
</linearGradient>
<linearGradient id="paint11_linear_480_5212" x1="-28.1952" y1="251.815" x2="158.773" y2="251.815" gradientUnits="userSpaceOnUse">
<stop offset="6.3e-07" stop-color="#020614"/>
<stop offset="0.1138" stop-color="#110717"/>
<stop offset="0.3324" stop-color="#38091E"/>
<stop offset="0.6335" stop-color="#770C2B"/>
<stop offset="1" stop-color="#CD113B"/>
</linearGradient>
<linearGradient id="paint12_linear_480_5212" x1="-28.1952" y1="265.409" x2="153.502" y2="265.409" gradientUnits="userSpaceOnUse">
<stop offset="6.3e-07" stop-color="#020614"/>
<stop offset="0.1138" stop-color="#110717"/>
<stop offset="0.3324" stop-color="#38091E"/>
<stop offset="0.6335" stop-color="#770C2B"/>
<stop offset="1" stop-color="#CD113B"/>
</linearGradient>
<linearGradient id="paint13_linear_480_5212" x1="-28.1952" y1="284.173" x2="196.909" y2="284.173" gradientUnits="userSpaceOnUse">
<stop offset="6.3e-07" stop-color="#020614"/>
<stop offset="0.1138" stop-color="#110717"/>
<stop offset="0.3324" stop-color="#38091E"/>
<stop offset="0.6335" stop-color="#770C2B"/>
<stop offset="1" stop-color="#CD113B"/>
</linearGradient>
<linearGradient id="paint14_linear_480_5212" x1="-28.1952" y1="302.247" x2="166.022" y2="302.247" gradientUnits="userSpaceOnUse">
<stop offset="6.3e-07" stop-color="#020614"/>
<stop offset="0.1138" stop-color="#110717"/>
<stop offset="0.3324" stop-color="#38091E"/>
<stop offset="0.6335" stop-color="#770C2B"/>
<stop offset="1" stop-color="#CD113B"/>
</linearGradient>
<linearGradient id="paint15_linear_480_5212" x1="-28.1952" y1="314.173" x2="122.078" y2="314.173" gradientUnits="userSpaceOnUse">
<stop offset="6.3e-07" stop-color="#020614"/>
<stop offset="0.1138" stop-color="#110717"/>
<stop offset="0.3324" stop-color="#38091E"/>
<stop offset="0.6335" stop-color="#770C2B"/>
<stop offset="1" stop-color="#CD113B"/>
</linearGradient>
<linearGradient id="paint16_linear_480_5212" x1="-28.1952" y1="347.22" x2="128.578" y2="347.22" gradientUnits="userSpaceOnUse">
<stop offset="6.3e-07" stop-color="#020614"/>
<stop offset="0.1138" stop-color="#110717"/>
<stop offset="0.3324" stop-color="#38091E"/>
<stop offset="0.6335" stop-color="#770C2B"/>
<stop offset="1" stop-color="#CD113B"/>
</linearGradient>
<linearGradient id="paint17_linear_480_5212" x1="-28.1952" y1="383.834" x2="196.909" y2="383.834" gradientUnits="userSpaceOnUse">
<stop offset="6.3e-07" stop-color="#020614"/>
<stop offset="0.1138" stop-color="#110717"/>
<stop offset="0.3324" stop-color="#38091E"/>
<stop offset="0.6335" stop-color="#770C2B"/>
<stop offset="1" stop-color="#CD113B"/>
</linearGradient>
<linearGradient id="paint18_linear_480_5212" x1="-28.1952" y1="268.55" x2="86.4231" y2="268.55" gradientUnits="userSpaceOnUse">
<stop offset="6.3e-07" stop-color="#020614"/>
<stop offset="0.1138" stop-color="#110717"/>
<stop offset="0.3324" stop-color="#38091E"/>
<stop offset="0.6335" stop-color="#770C2B"/>
<stop offset="1" stop-color="#CD113B"/>
</linearGradient>
<linearGradient id="paint19_linear_480_5212" x1="-28.1952" y1="322.656" x2="98.8123" y2="322.656" gradientUnits="userSpaceOnUse">
<stop offset="6.3e-07" stop-color="#020614"/>
<stop offset="0.1138" stop-color="#110717"/>
<stop offset="0.3324" stop-color="#38091E"/>
<stop offset="0.6335" stop-color="#770C2B"/>
<stop offset="1" stop-color="#CD113B"/>
</linearGradient>
<linearGradient id="paint20_linear_480_5212" x1="-28.1952" y1="333.144" x2="212.072" y2="333.144" gradientUnits="userSpaceOnUse">
<stop offset="6.3e-07" stop-color="#020614"/>
<stop offset="0.1138" stop-color="#110717"/>
<stop offset="0.3324" stop-color="#38091E"/>
<stop offset="0.6335" stop-color="#770C2B"/>
<stop offset="1" stop-color="#CD113B"/>
</linearGradient>
<linearGradient id="paint21_linear_480_5212" x1="-28.1952" y1="369.876" x2="153.502" y2="369.876" gradientUnits="userSpaceOnUse">
<stop offset="6.3e-07" stop-color="#020614"/>
<stop offset="0.1138" stop-color="#110717"/>
<stop offset="0.3324" stop-color="#38091E"/>
<stop offset="0.6335" stop-color="#770C2B"/>
<stop offset="1" stop-color="#CD113B"/>
</linearGradient>
<linearGradient id="paint22_linear_480_5212" x1="-28.1952" y1="406.348" x2="158.773" y2="406.348" gradientUnits="userSpaceOnUse">
<stop offset="6.3e-07" stop-color="#020614"/>
<stop offset="0.1138" stop-color="#110717"/>
<stop offset="0.3324" stop-color="#38091E"/>
<stop offset="0.6335" stop-color="#770C2B"/>
<stop offset="1" stop-color="#CD113B"/>
</linearGradient>
<linearGradient id="paint23_linear_480_5212" x1="184.832" y1="263.612" x2="276.443" y2="263.612" gradientUnits="userSpaceOnUse">
<stop stop-color="#001A6A"/>
<stop offset="0.2523" stop-color="#001B6C"/>
<stop offset="0.3506" stop-color="#001C73"/>
<stop offset="0.4221" stop-color="#00207F"/>
<stop offset="0.4805" stop-color="#002490"/>
<stop offset="0.5304" stop-color="#002AA6"/>
<stop offset="0.5441" stop-color="#002CAE"/>
<stop offset="0.5769" stop-color="#00239F"/>
<stop offset="0.6406" stop-color="#001588"/>
<stop offset="0.709" stop-color="#000C77"/>
<stop offset="0.7844" stop-color="#00066D"/>
<stop offset="0.8804" stop-color="#00046A"/>
<stop offset="0.9062" stop-color="#000571"/>
<stop offset="0.9442" stop-color="#000885"/>
<stop offset="0.9896" stop-color="#000EA5"/>
<stop offset="1" stop-color="#000FAE"/>
</linearGradient>
<linearGradient id="paint24_linear_480_5212" x1="269.017" y1="229.93" x2="187.174" y2="255.098" gradientUnits="userSpaceOnUse">
<stop stop-color="#0100AE"/>
<stop offset="0.3324" stop-color="#0107AE"/>
<stop offset="0.8218" stop-color="#001BAE"/>
<stop offset="1" stop-color="#0024AE"/>
</linearGradient>
<linearGradient id="paint25_linear_480_5212" x1="218.235" y1="236.517" x2="234.91" y2="236.517" gradientUnits="userSpaceOnUse">
<stop stop-color="#3E96FF"/>
<stop offset="0.321" stop-color="#2985E6"/>
<stop offset="1" stop-color="#0063B5"/>
</linearGradient>
<linearGradient id="paint26_linear_480_5212" x1="203.607" y1="243.127" x2="211.539" y2="243.127" gradientUnits="userSpaceOnUse">
<stop stop-color="#2A90F4"/>
<stop offset="1" stop-color="#0066D6"/>
</linearGradient>
<linearGradient id="paint27_linear_480_5212" x1="197.908" y1="242.657" x2="203.617" y2="242.657" gradientUnits="userSpaceOnUse">
<stop offset="9e-08" stop-color="#0078E7"/>
<stop offset="0.8032" stop-color="#318BFA"/>
<stop offset="1" stop-color="#3E90FF"/>
</linearGradient>
<linearGradient id="paint28_linear_480_5212" x1="217.051" y1="250.848" x2="217.051" y2="239.805" gradientUnits="userSpaceOnUse">
<stop stop-color="#3B7FF1"/>
<stop offset="0.321" stop-color="#276FD8"/>
<stop offset="1" stop-color="#004EA7"/>
</linearGradient>
<linearGradient id="paint29_linear_480_5212" x1="218.381" y1="255.933" x2="224.09" y2="255.933" gradientUnits="userSpaceOnUse">
<stop stop-color="#3E90FF"/>
<stop offset="0.1968" stop-color="#318BFA"/>
<stop offset="1" stop-color="#0078E7"/>
</linearGradient>
<linearGradient id="paint30_linear_480_5212" x1="224.08" y1="245.376" x2="244.251" y2="245.376" gradientUnits="userSpaceOnUse">
<stop offset="9e-08" stop-color="#004EA7"/>
<stop offset="0.679" stop-color="#276FD8"/>
<stop offset="1" stop-color="#3B7FF1"/>
</linearGradient>
<linearGradient id="paint31_linear_480_5212" x1="203.879" y1="252.454" x2="251.497" y2="225.423" gradientUnits="userSpaceOnUse">
<stop stop-color="#3E96FF"/>
<stop offset="0.4177" stop-color="#64B5FF"/>
<stop offset="1" stop-color="#95DEFF"/>
</linearGradient>
<linearGradient id="paint32_linear_480_5212" x1="233.686" y1="254.508" x2="262.811" y2="254.508" gradientUnits="userSpaceOnUse">
<stop offset="9e-08" stop-color="#004EA7"/>
<stop offset="0.679" stop-color="#276FD8"/>
<stop offset="1" stop-color="#3B7FF1"/>
</linearGradient>
<linearGradient id="paint33_linear_480_5212" x1="228.151" y1="262.215" x2="233.696" y2="262.215" gradientUnits="userSpaceOnUse">
<stop stop-color="#3E90FF"/>
<stop offset="0.1968" stop-color="#318BFA"/>
<stop offset="1" stop-color="#0078E7"/>
</linearGradient>
<linearGradient id="paint34_linear_480_5212" x1="228.161" y1="250.77" x2="262.811" y2="250.77" gradientUnits="userSpaceOnUse">
<stop stop-color="#3E96FF"/>
<stop offset="0.4177" stop-color="#64B5FF"/>
<stop offset="1" stop-color="#95DEFF"/>
</linearGradient>
<linearGradient id="paint35_linear_480_5212" x1="228.273" y1="146.342" x2="234.187" y2="141.077" gradientUnits="userSpaceOnUse">
<stop stop-color="#020614"/>
<stop offset="0.3125" stop-color="#4F421B"/>
<stop offset="1" stop-color="#F6C22A"/>
</linearGradient>
<linearGradient id="paint36_linear_480_5212" x1="219.877" y1="418.792" x2="222.572" y2="416.392" gradientUnits="userSpaceOnUse">
<stop stop-color="#020614"/>
<stop offset="0.3125" stop-color="#4F421B"/>
<stop offset="1" stop-color="#F6C22A"/>
</linearGradient>
<linearGradient id="paint37_linear_480_5212" x1="76.9186" y1="318.158" x2="79.6137" y2="315.759" gradientUnits="userSpaceOnUse">
<stop stop-color="#020614"/>
<stop offset="0.3125" stop-color="#4F421B"/>
<stop offset="1" stop-color="#F6C22A"/>
</linearGradient>
<linearGradient id="paint38_linear_480_5212" x1="263.312" y1="358.359" x2="266.007" y2="355.959" gradientUnits="userSpaceOnUse">
<stop stop-color="#020614"/>
<stop offset="0.3125" stop-color="#4F421B"/>
<stop offset="1" stop-color="#F6C22A"/>
</linearGradient>
<linearGradient id="paint39_linear_480_5212" x1="241.452" y1="352.993" x2="247.698" y2="347.432" gradientUnits="userSpaceOnUse">
<stop stop-color="#020614"/>
<stop offset="0.3125" stop-color="#4F421B"/>
<stop offset="1" stop-color="#F6C22A"/>
</linearGradient>
<linearGradient id="paint40_linear_480_5212" x1="144.369" y1="203.114" x2="148.893" y2="199.086" gradientUnits="userSpaceOnUse">
<stop stop-color="#020614"/>
<stop offset="0.3125" stop-color="#4F421B"/>
<stop offset="1" stop-color="#F6C22A"/>
</linearGradient>
<linearGradient id="paint41_linear_480_5212" x1="277.452" y1="213.938" x2="280.759" y2="210.995" gradientUnits="userSpaceOnUse">
<stop stop-color="#020614"/>
<stop offset="0.3125" stop-color="#4F421B"/>
<stop offset="1" stop-color="#F6C22A"/>
</linearGradient>
<linearGradient id="paint42_linear_480_5212" x1="270.173" y1="125.868" x2="273.479" y2="122.925" gradientUnits="userSpaceOnUse">
<stop stop-color="#020614"/>
<stop offset="0.3125" stop-color="#4F421B"/>
<stop offset="1" stop-color="#F6C22A"/>
</linearGradient>
<linearGradient id="paint43_linear_480_5212" x1="101.068" y1="145.029" x2="104.374" y2="142.086" gradientUnits="userSpaceOnUse">
<stop stop-color="#020614"/>
<stop offset="0.3125" stop-color="#4F421B"/>
<stop offset="1" stop-color="#F6C22A"/>
</linearGradient>
<linearGradient id="paint44_linear_480_5212" x1="162.52" y1="227.467" x2="281.438" y2="213.835" gradientUnits="userSpaceOnUse">
<stop offset="2.51987e-07" stop-color="#F5A314"/>
<stop offset="0.0329586" stop-color="#F6A822"/>
<stop offset="0.182" stop-color="#F8BF5C"/>
<stop offset="0.3311" stop-color="#FAD38E"/>
<stop offset="0.477" stop-color="#FCE3B6"/>
<stop offset="0.6189" stop-color="#FDEFD6"/>
<stop offset="0.7557" stop-color="#FEF8ED"/>
<stop offset="0.8853" stop-color="#FFFDFA"/>
<stop offset="1" stop-color="white"/>
</linearGradient>
<linearGradient id="paint45_linear_480_5212" x1="145.766" y1="220.935" x2="222.765" y2="205.794" gradientUnits="userSpaceOnUse">
<stop offset="2.51987e-07" stop-color="#F5A314"/>
<stop offset="0.0329586" stop-color="#F6A822"/>
<stop offset="0.182" stop-color="#F8BF5C"/>
<stop offset="0.3311" stop-color="#FAD38E"/>
<stop offset="0.477" stop-color="#FCE3B6"/>
<stop offset="0.6189" stop-color="#FDEFD6"/>
<stop offset="0.7557" stop-color="#FEF8ED"/>
<stop offset="0.8853" stop-color="#FFFDFA"/>
<stop offset="1" stop-color="white"/>
</linearGradient>
<linearGradient id="paint46_linear_480_5212" x1="13.7239" y1="348.695" x2="249.726" y2="321.64" gradientUnits="userSpaceOnUse">
<stop offset="2.51987e-07" stop-color="#F5A314"/>
<stop offset="0.0329586" stop-color="#F6A822"/>
<stop offset="0.182" stop-color="#F8BF5C"/>
<stop offset="0.3311" stop-color="#FAD38E"/>
<stop offset="0.477" stop-color="#FCE3B6"/>
<stop offset="0.6189" stop-color="#FDEFD6"/>
<stop offset="0.7557" stop-color="#FEF8ED"/>
<stop offset="0.8853" stop-color="#FFFDFA"/>
<stop offset="1" stop-color="white"/>
</linearGradient>
<clipPath id="clip0_480_5212">
<rect width="471" height="529" fill="white" transform="translate(-21)"/>
</clipPath>
</defs>
</svg>
