<?xml version="1.0" encoding="UTF-8"?>
<svg id="Layer_1" data-name="Layer 1" xmlns="http://www.w3.org/2000/svg" xmlns:xlink="http://www.w3.org/1999/xlink" viewBox="0 0 467.54 168.86">
  <defs>
    <style>
      .cls-1 {
        fill: url(#linear-gradient-5);
      }

      .cls-2 {
        fill: url(#linear-gradient-4);
      }

      .cls-3 {
        fill: url(#linear-gradient-3);
      }

      .cls-4 {
        fill: url(#linear-gradient-2);
      }

      .cls-5 {
        fill: url(#linear-gradient);
      }

      .cls-6 {
        letter-spacing: .97em;
      }

      .cls-7 {
        letter-spacing: .97em;
      }

      .cls-8 {
        letter-spacing: .97em;
      }

      .cls-9 {
        fill: none;
        stroke: #17457b;
        stroke-miterlimit: 10;
        stroke-width: 2px;
      }

      .cls-10 {
        font-family: JosefinSansRoman-Bold, 'JosefinSansRoman Bold';
        font-size: 32px;
        font-variation-settings: ';
        font-weight: 700;
      }

      .cls-10, .cls-11 {
        fill: #1d4482;
      }
    </style>
    <linearGradient id="linear-gradient" x1="-10.43" y1="96.29" x2="141.42" y2="-5.48" gradientUnits="userSpaceOnUse">
      <stop offset="0" stop-color="#00aeef"/>
      <stop offset=".18" stop-color="#22b4c7"/>
      <stop offset=".59" stop-color="#77c363"/>
      <stop offset=".75" stop-color="#9aca3c"/>
    </linearGradient>
    <linearGradient id="linear-gradient-2" x1="14.06" y1="138.51" x2="153.95" y2="44.77" xlink:href="#linear-gradient"/>
    <linearGradient id="linear-gradient-3" x1="58.38" y1="168.43" x2="172.98" y2="91.63" xlink:href="#linear-gradient"/>
    <linearGradient id="linear-gradient-4" x1="144.86" y1="104.68" x2="165.44" y2="90.89" gradientUnits="userSpaceOnUse">
      <stop offset="0" stop-color="#00aeef"/>
      <stop offset=".21" stop-color="#22b4c7"/>
      <stop offset=".68" stop-color="#77c363"/>
      <stop offset=".86" stop-color="#9aca3c"/>
    </linearGradient>
    <linearGradient id="linear-gradient-5" x1="100.59" y1="83.79" x2="158.22" y2="45.17" xlink:href="#linear-gradient-4"/>
  </defs>
  <path class="cls-9" d="M141.05,23.15C126.18,9.4,106.28,1,84.43,1,38.35,1,1,38.35,1,84.43s37.35,83.43,83.43,83.43c34.62,0,64.31-21.08,76.93-51.1"/>
  <g>
    <path class="cls-5" d="M137.37,33.22c-4.17-.1-66.66-.24-123.41,68.36l-.05.04c-1.33-5.51-2.03-11.27-2.03-17.19C11.88,44,44.65,11.23,85.08,11.23c20.49,0,39.02,8.42,52.29,21.99Z"/>
    <path class="cls-4" d="M138.26,65.37l-7.42,11.98c-.36.57-.78,1.1-1.27,1.56-7.4,7.05-68.42,65.4-71.5,73.57-20.91-8.3-37.09-25.96-43.36-47.81l22.59-22.59s29.58-37.25,92.81-24.78c1.51.3,2.93.97,4.14,1.92l3.38,2.66c1.06.83,1.32,2.33.61,3.48Z"/>
    <path class="cls-3" d="M148.64,115.48l1.21.79c.5.33.67.98.4,1.5-12.12,23.66-36.75,39.86-65.17,39.86-6.99,0-13.75-.98-20.14-2.81,10.28-12.89,38.58-46.01,58.73-47.42.82-.06,1.59-.41,2.21-.96,3.68-3.29,16.55-14.41,23.69-15.21.58-.06,1.04.49.89,1.06-1.36,5.19-8.29,27.96-29.36,47.9-.22.21.02.56.29.42,4.69-2.52,18.28-10.73,25.6-24.69.32-.61,1.09-.82,1.66-.45Z"/>
  </g>
  <path class="cls-2" d="M158.2,86.14c-.16,6.97-1.29,13.7-3.27,20.05t-.01.02c-.32.41-.63.76-.93,1.08-.45.48-1.56,1.89-1.96,2.18-1.4,1.03-.89-.32-.89-.32,5.73-10.95,6.92-19.18,7.06-23.01Z"/>
  <path class="cls-1" d="M158.22,84.43c0,.19,0,.38-.01.57,0-.52-.03-.89-.06-1.08-.01-.11-.1-.18-.21-.18-1.04.02-4.82-.86-6.66.42-1.28.91-4.38,1.2-6.14,1.29-.83.04-1.63.31-2.29.81-5.51,4.11-8.94,5.21-10.09,5.48-.24.06-.6.25-.78.42l-6.7,6.12c-3.3,3.85-5.75,1.8-5.75,1.8-1.84-1.54-.09-3.55-.09-3.55l14.55-12.65c1.8-1.57,4.13-4.61,5.15-6.77,5.43-11.52,8.16-12.19,9.05-12.95.09-.07.1-.2,0-.28-6.03-5.71-10.26-12.68-10.87-13.71-.04-.08-.14-.13-.21-.07-4.08,3.11-35.5-2.26-40.51-3.05-.2-.03-.23-.32-.03-.4,21.27-8.82,34.09-9.43,44.04-9.83h.01c10.97,12.79,17.59,29.43,17.59,47.61Z"/>
  <path class="cls-11" d="M176.48,67.55c.02.07.03.15.03.23,0,2.13-5.12,9.55-8.1,13.69-.12.17-.24.33-.35.49-1.16,1.6-2.14,3.34-2.94,5.15-4.35,9.9-7.65,15.81-10.17,18.97t-.01.02c-.32.41-.63.76-.93,1.08-.45.48-1.56,1.89-1.96,2.18-1.4,1.03-.89-.32-.89-.32,5.73-10.95,6.92-19.18,7.06-23.01.01-.14.01-.27.01-.39.01-.23.01-.45,0-.64.01-.04,0-.07,0-.11,0-.52-.03-.89-.06-1.08-.01-.11-.1-.18-.21-.18-1.04.02-4.82-.86-6.66.42-1.28.91-4.38,1.2-6.14,1.29-.83.04-1.63.31-2.29.81-5.51,4.11-8.94,5.21-10.09,5.48-.24.06-.6.25-.78.42l-6.7,6.12c-3.3,3.85-5.75,1.8-5.75,1.8-1.84-1.54-.09-3.55-.09-3.55l14.55-12.65c1.8-1.57,4.13-4.61,5.15-6.77,5.43-11.52,8.16-12.19,9.05-12.95.09-.07.1-.2,0-.28-6.03-5.71-10.26-12.68-10.87-13.71-.04-.08-.14-.13-.21-.07-4.08,3.11-35.5-2.26-40.51-3.05-.2-.03-.23-.32-.03-.4,21.27-8.82,34.09-9.43,44.04-9.83h.01c.79-.03,1.56-.06,2.32-.09,12.47-.55,11.5,8.17,11.5,8.17-.48,5.44,2.52,7.92,3.36,8.97.35.45,1.62,1.34,2.13,1.62.91.5,2.34,1.22,3.93,1.61,1.74.42,3.65.45,5.28-.62,5.7-3.75,7.46-.56,7.46-.56,1.72.1,2.01,1.12,2.01,1.12,0,0-3.55.22-2.96,2.96.48,2.31-1.53,6.11-2.21,7.29-.08.15.12.45.3.44l2.49-.21c.1-.01.2.04.22.14Z"/>
  <g>
    <path class="cls-11" d="M269.18,94.53h12.88l-25.44-52.02h-.61l-25.44,52.02h10.96l4.7-7.97h18.72l4.24,7.97ZM250,76.44l5.73-12.2,5.42,12.2h-11.14Z"/>
    <path class="cls-11" d="M286.65,44.15h10.08v40.53l21.2.59v9.52l-31.28-.59v-50.05Z"/>
    <path class="cls-11" d="M340.23,44.48c4.22,0,7.79.69,10.71,2.07,2.92,1.38,5.15,3.33,6.68,5.85,1.53,2.52,2.29,5.5,2.29,8.94,0,2.04-.31,4.09-.94,6.15-.63,2.06-1.62,3.93-2.99,5.61-1.37,1.68-3.2,3.03-5.49,4.05s-5.11,1.53-8.45,1.53h-7.23v15.84h-10.08v-50.05h15.51ZM341.97,69.09c1.53,0,2.8-.26,3.83-.78,1.02-.52,1.82-1.18,2.4-1.97.58-.79,1-1.62,1.25-2.48.25-.86.38-1.61.38-2.24,0-.5-.08-1.17-.24-2.01-.16-.84-.5-1.69-1.01-2.55-.51-.86-1.29-1.59-2.33-2.18-1.04-.59-2.45-.88-4.21-.88h-7.23v15.1h7.16Z"/>
    <path class="cls-11" d="M409.77,44.07v50.05l-11.27.33v-20.33h-20.14v20.33l-11.63-.33v-50.05l11.63-.17v20.2h20.4v-20.2l11.01.17Z"/>
    <path class="cls-11" d="M454.09,94.53h13.45l-26.58-52.02h-.64l-26.58,52.02h11.45l4.91-8.22h19.56l4.43,8.22ZM434.05,76.44l5.98-12.2,5.66,12.2h-11.64Z"/>
    <text class="cls-10" transform="translate(226.93 126.35)"><tspan class="cls-8" x="0" y="0">C</tspan><tspan class="cls-6" x="49.73" y="0">A</tspan><tspan class="cls-7" x="100.35" y="0">R</tspan><tspan class="cls-6" x="148.7" y="0">GO</tspan></text>
  </g>
</svg>