<svg width="150" height="23" viewBox="0 0 150 23" fill="none" xmlns="http://www.w3.org/2000/svg">
<path d="M18.971 14.1652C18.971 12.9004 19.2238 11.8887 19.4767 10.8769C19.9827 9.86505 20.4888 9.10629 20.9947 8.60039C21.7536 7.84154 22.5124 7.58849 23.5242 7.08259C24.536 6.82964 25.5473 6.57666 26.8121 6.57666V9.86515C25.5473 9.86515 24.2831 10.118 23.5242 10.8769C22.7654 11.6357 22.2595 12.6475 22.2595 14.1652V21.7537H18.7178V14.1652H18.971Z" fill="#1D1D1B"/>
<path d="M41.484 21.7537V20.236C40.7251 20.9949 39.9665 21.5007 39.2077 21.7537C38.4488 22.0066 37.4368 22.2596 36.425 22.2596C35.1602 22.2596 34.1485 22.0066 33.3897 21.7537C32.3779 21.2478 31.619 20.742 30.8602 19.9831C30.1013 19.2243 29.5952 18.4654 29.3422 17.4536C29.0893 16.4418 28.8364 15.43 28.8364 14.4182C28.8364 13.1534 29.0893 12.1417 29.3422 11.1299C29.8481 10.1181 30.3545 9.3592 31.1134 8.60035C31.8722 7.8415 32.6311 7.33556 33.6429 6.82966C34.6547 6.32376 35.666 6.32373 36.9307 6.32373C37.9425 6.32373 39.2074 6.57671 40.2192 6.82966C41.231 7.08261 41.9899 7.8415 42.7487 8.60035C43.5076 9.3592 44.0134 10.1181 44.5193 11.1299C45.0252 12.1417 45.2782 13.1533 45.2782 14.1651V21.7537H41.484ZM36.6782 18.9713C37.437 18.9713 37.9428 18.9713 38.4487 18.7184C38.9546 18.4654 39.4607 18.2124 39.9666 17.7065C40.4725 17.2006 40.7252 16.6948 40.9782 16.1889C41.2311 15.683 41.2314 14.9241 41.2314 14.4182C41.2314 13.6593 41.2311 13.1534 40.9782 12.6475C40.7252 12.1416 40.4725 11.6358 39.9666 11.1299C39.4607 10.624 38.9546 10.3709 38.4487 10.118C37.9428 9.86504 37.1841 9.8651 36.6782 9.8651C35.9193 9.8651 35.4135 9.86504 34.9076 10.118C34.4017 10.3709 33.8956 10.624 33.3897 11.1299C32.8838 11.6358 32.6311 12.1416 32.3781 12.6475C32.1252 13.1534 32.1249 13.9123 32.1249 14.4182C32.1249 15.177 32.1252 15.683 32.3781 16.1889C32.6311 16.6948 32.8838 17.2006 33.3897 17.7065C33.8956 18.2124 34.4017 18.4654 34.9076 18.7184C35.4135 18.7184 35.9193 18.9713 36.6782 18.9713Z" fill="#1D1D1B"/>
<path d="M3.79426 0V8.09446C4.55312 7.33561 5.31172 6.82961 6.07057 6.57666C6.82943 6.32371 7.84148 6.07088 8.85328 6.07088C10.118 6.07088 11.1297 6.32371 11.8886 6.57666C12.9004 7.08256 13.6592 7.5885 14.4181 8.34735C15.1769 9.1062 15.6831 9.86505 15.936 10.8769C16.189 11.8887 16.4418 12.9005 16.4418 13.9123C16.4418 15.1771 16.189 16.1888 15.936 17.2006C15.4301 18.2124 14.9237 18.9713 14.1649 19.7301C13.406 20.489 12.6472 20.9949 11.6354 21.5008C10.6236 22.0067 9.61226 22.0068 8.3475 22.0068C7.3357 22.0068 6.07082 21.7538 5.05902 21.5008C4.04721 21.2479 3.28836 20.489 2.52951 19.7301C1.77066 18.9713 1.26488 18.2124 0.758976 17.2006C0.253074 16.1888 0 15.177 0 14.1652V0H3.79426ZM8.3475 9.6121C7.58865 9.6121 7.08225 9.6122 6.57635 9.86515C6.07045 10.1181 5.56492 10.371 5.05902 10.8769C4.55312 11.3828 4.29979 11.8888 4.04684 12.3947C3.79389 12.9006 3.79426 13.6593 3.79426 14.1652C3.79426 14.924 3.79389 15.43 4.04684 15.9359C4.29979 16.4418 4.55312 16.9478 5.05902 17.4537C5.56492 17.9596 6.07045 18.2124 6.57635 18.4654C7.08225 18.7183 7.8416 18.7184 8.3475 18.7184C9.10636 18.7184 9.61213 18.7183 10.118 18.4654C10.6239 18.2124 11.1295 17.9596 11.6354 17.4537C12.1413 16.9478 12.3946 16.4418 12.6475 15.9359C12.9005 15.43 12.9001 14.6711 12.9001 14.1652C12.9001 13.4063 12.9005 12.9006 12.6475 12.3947C12.3946 11.8888 12.1413 11.3828 11.6354 10.8769C11.1295 10.371 10.6239 10.1181 10.118 9.86515C9.61213 9.6122 9.10636 9.6121 8.3475 9.6121Z" fill="#1D1D1B"/>
<path d="M80.6908 0V14.1652C80.6908 15.177 80.4378 16.4418 79.9319 17.2006C79.426 18.2124 78.9202 18.9713 78.1613 19.7301C77.4025 20.489 76.6436 20.9949 75.6318 21.5008C74.62 22.0067 73.6081 22.0068 72.3433 22.0068C71.0786 22.0068 70.0673 21.7538 69.0555 21.5008C68.0437 20.9949 67.2848 20.489 66.526 19.7301C65.7671 18.9713 65.2607 18.2124 64.7548 17.2006C64.2489 16.1888 64.249 15.1771 64.249 13.9123C64.249 12.9005 64.5019 11.6357 64.7548 10.8769C65.0078 9.86505 65.7669 9.1062 66.2728 8.34735C67.0316 7.5885 67.7905 7.08256 68.8023 6.57666C69.8141 6.07076 70.8257 6.07088 71.8376 6.07088C72.8494 6.07088 73.8614 6.32371 74.6203 6.57666C75.3791 6.82961 76.1377 7.33561 76.8966 8.09446V0H80.6908ZM70.826 9.86515C70.3201 10.1181 69.8139 10.371 69.308 10.8769C68.8021 11.3828 68.5494 11.8888 68.2965 12.3947C68.0435 12.9006 68.0433 13.6593 68.0433 14.1652C68.0433 14.924 68.0435 15.43 68.2965 15.9359C68.5494 16.4418 68.8021 16.9478 69.308 17.4537C69.8139 17.9596 70.3201 18.2124 70.826 18.4654C71.3319 18.7183 72.0906 18.7184 72.5965 18.7184C73.3554 18.7184 73.8612 18.7183 74.3671 18.4654C74.873 18.2124 75.3791 17.9596 75.885 17.4537C76.3909 16.9478 76.6436 16.4418 76.8966 15.9359C77.1495 15.43 77.1498 14.6711 77.1498 14.1652C77.1498 13.4063 77.1495 12.9006 76.8966 12.3947C76.6436 11.8888 76.3909 11.3828 75.885 10.8769C75.3791 10.371 74.873 10.1181 74.3671 9.86515C73.8612 9.6122 73.1024 9.6121 72.5965 9.6121C71.8377 9.6121 71.3319 9.6122 70.826 9.86515Z" fill="#1D1D1B"/>
<path d="M47.5542 13.6594C47.5542 12.6476 47.8071 11.6357 48.06 10.8769C48.313 9.86505 48.8185 9.10629 49.5774 8.60039C50.3362 7.84154 51.0954 7.33554 51.8543 7.08259C52.8661 6.57669 53.8778 6.57666 54.8896 6.57666C55.9014 6.57666 56.9131 6.82964 57.9249 7.08259C58.9367 7.58849 59.6959 8.09449 60.2018 8.60039C60.9606 9.35924 61.4662 10.118 61.7191 10.8769C61.9721 11.8887 62.2249 12.6476 62.2249 13.6594V22.0068H58.6838V14.4182C58.6838 13.6594 58.6836 13.1534 58.4306 12.6475C58.1777 12.1416 58.1782 11.6358 57.6723 11.1299C57.4193 10.624 56.9134 10.371 56.4075 10.118C55.9016 9.86508 55.3952 9.86515 54.6364 9.86515C53.8775 9.86515 53.3717 9.86508 52.8658 10.118C52.3599 10.371 51.854 10.624 51.6011 11.1299C51.3481 11.6358 51.0951 12.1416 50.8421 12.6475C50.5892 13.1534 50.5895 13.9123 50.5895 14.4182V22.0068H47.0479V13.6594H47.5542Z" fill="#1D1D1B"/>
<path d="M95.6148 21.7537V20.236C94.856 20.9949 94.0968 21.5007 93.3379 21.7537C92.579 22.0066 91.5676 22.2596 90.5558 22.2596C89.2911 22.2596 88.2788 22.0066 87.5199 21.7537C86.7611 21.5007 85.7493 20.742 84.9904 19.9831C84.2315 19.2243 83.726 18.4654 83.4731 17.4536C83.2201 16.4418 82.9673 15.43 82.9673 14.4182C82.9673 13.1534 83.2201 12.1417 83.4731 11.1299C83.979 10.1181 84.4847 9.3592 85.2436 8.60035C86.0024 7.8415 86.7613 7.33556 87.7731 6.82966C88.7849 6.32376 89.7968 6.32373 91.0616 6.32373C92.0734 6.32373 93.3383 6.57671 94.3501 6.82966C95.3619 7.33556 96.1207 7.8415 96.8796 8.60035C97.6384 9.3592 98.1442 10.1181 98.6501 11.1299C99.156 12.1417 99.4091 13.1533 99.4091 14.1651V21.7537H95.6148ZM91.0616 18.9713C91.8204 18.9713 92.3262 18.9713 92.8321 18.7184C93.338 18.4654 93.8442 18.2124 94.3501 17.7065C94.856 17.2006 95.1087 16.6948 95.3616 16.1889C95.6146 15.683 95.6148 14.9241 95.6148 14.4182C95.6148 13.6593 95.6146 13.1534 95.3616 12.6475C95.1087 12.1416 94.856 11.6358 94.3501 11.1299C93.8442 10.624 93.338 10.3709 92.8321 10.118C92.3262 9.86504 91.5675 9.8651 91.0616 9.8651C90.3027 9.8651 89.797 9.86504 89.2911 10.118C88.7852 10.3709 88.279 10.624 87.7731 11.1299C87.2672 11.6358 87.0145 12.1416 86.7615 12.6475C86.5086 13.1534 86.5084 13.9123 86.5084 14.4182C86.5084 15.177 86.5086 15.683 86.7615 16.1889C87.0145 16.6948 87.2672 17.2006 87.7731 17.7065C88.279 18.2124 88.7852 18.4654 89.2911 18.7184C89.797 18.7184 90.3027 18.9713 91.0616 18.9713Z" fill="#1D1D1B"/>
<path d="M97.8926 0H101.434L109.781 21.7537H106.24L97.8926 0Z" fill="url(#paint0_linear_0_1378)"/>
<path d="M104.216 0H107.757L116.105 21.7537H112.564L104.216 0Z" fill="url(#paint1_linear_0_1378)"/>
<path d="M120.911 22.0074C120.152 22.0074 119.646 21.7545 119.393 21.2486C118.887 20.7427 118.634 20.2367 118.634 19.7308C118.634 19.2249 118.887 18.7191 119.393 18.2132C119.899 17.7073 120.405 17.4543 120.911 17.4543C121.67 17.4543 122.175 17.7072 122.428 17.9601C122.934 18.466 123.187 18.972 123.187 19.4779C123.187 20.2368 122.934 20.7427 122.681 21.2486C122.175 21.7545 121.417 22.0074 120.911 22.0074Z" fill="#1D1D1B"/>
<path d="M125.462 14.4186C125.462 13.1539 125.716 12.1421 125.969 11.1303C126.222 10.1185 126.98 9.35956 127.486 8.85365C128.245 8.34775 129.004 7.84191 130.016 7.33601C131.027 7.08306 132.039 6.83008 133.304 6.83008V10.1184C132.039 10.1184 130.774 10.3714 130.016 11.1303C129.257 11.8891 128.751 12.9008 128.751 14.1656V21.7541H125.462V14.4186Z" fill="#1D1D1B"/>
<path d="M135.329 14.9245V6.83008H138.617V14.4186C138.617 14.9245 138.617 15.6834 138.87 16.1893C139.123 16.6952 139.123 17.201 139.629 17.7069C139.882 18.2128 140.388 18.4659 140.893 18.7188C141.399 18.9718 141.905 18.9717 142.664 18.9717C143.423 18.9717 143.929 18.9718 144.434 18.7188C144.94 18.4659 145.446 18.2128 145.699 17.7069C145.952 17.201 146.205 16.6952 146.458 16.1893C146.711 15.6834 146.711 14.9245 146.711 14.4186V6.83008H150V14.9245C150 15.9363 149.746 16.9481 149.493 17.7069C149.241 18.4658 148.735 19.2247 147.976 19.9836C147.217 20.7424 146.458 21.2482 145.699 21.5012C144.94 21.7542 143.929 22.0071 142.664 22.0071C141.652 22.0071 140.64 21.7542 139.629 21.5012C138.87 21.2482 137.858 20.4895 137.352 19.9836C136.593 19.2247 136.34 18.4658 135.834 17.7069C135.581 16.9481 135.329 15.9363 135.329 14.9245Z" fill="#1D1D1B"/>
<defs>
<linearGradient id="paint0_linear_0_1378" x1="97.8223" y1="10.9214" x2="109.646" y2="10.9214" gradientUnits="userSpaceOnUse">
<stop stop-color="#ED79AC"/>
<stop offset="0.2216" stop-color="#EB7179"/>
<stop offset="0.4981" stop-color="#E8673D"/>
<stop offset="0.595" stop-color="#E45541"/>
<stop offset="1" stop-color="#D60B51"/>
</linearGradient>
<linearGradient id="paint1_linear_0_1378" x1="104.342" y1="10.9214" x2="116.166" y2="10.9214" gradientUnits="userSpaceOnUse">
<stop stop-color="#ED79AC"/>
<stop offset="0.2216" stop-color="#EB7179"/>
<stop offset="0.4981" stop-color="#E8673D"/>
<stop offset="0.595" stop-color="#E45541"/>
<stop offset="1" stop-color="#D60B51"/>
</linearGradient>
</defs>
</svg>
