<svg width="390" height="357" viewBox="0 0 390 357" fill="none" xmlns="http://www.w3.org/2000/svg">
<path d="M115.408 151.14C112.959 150.485 110.76 149.205 109.059 147.441L109.044 147.425C108.841 147.207 108.638 146.988 108.451 146.754L103.677 141.385C106.36 144.366 110.354 145.802 114.332 145.88C122.506 146.067 130.244 141.478 135.517 135.5C136.219 134.673 136.874 133.846 137.498 132.956C141.85 126.713 144.362 117.144 138.949 110.792L143.816 116.52C144.471 117.269 145.064 118.143 145.548 119.111C149.416 126.791 145.376 135.891 140.166 141.806C139.432 142.618 138.668 143.398 137.857 144.132C132.022 149.423 123.364 153.248 115.408 151.14Z" fill="url(#paint0_linear_480_4671)"/>
<mask id="mask0_480_4671" style="mask-type:luminance" maskUnits="userSpaceOnUse" x="103" y="110" width="45" height="42">
<path d="M115.408 151.14C112.959 150.485 110.76 149.205 109.059 147.441L109.044 147.425C108.841 147.207 108.638 146.988 108.451 146.754L103.677 141.385C106.36 144.366 110.354 145.802 114.332 145.88C122.506 146.067 130.244 141.478 135.517 135.5C136.219 134.673 136.874 133.846 137.498 132.956C141.85 126.713 144.362 117.144 138.949 110.792L143.816 116.52C144.471 117.269 145.064 118.143 145.548 119.111C149.416 126.791 145.376 135.891 140.166 141.806C139.432 142.618 138.668 143.398 137.857 144.132C132.022 149.423 123.364 153.248 115.408 151.14Z" fill="white"/>
</mask>
<g mask="url(#mask0_480_4671)">
<path d="M121.586 158.336L134.503 147.941L122.741 133.315L109.824 143.711L121.586 158.336Z" fill="url(#paint1_linear_480_4671)"/>
</g>
<mask id="mask1_480_4671" style="mask-type:luminance" maskUnits="userSpaceOnUse" x="103" y="110" width="45" height="42">
<path d="M115.408 151.14C112.959 150.485 110.76 149.205 109.059 147.441L109.044 147.425C108.841 147.207 108.638 146.988 108.451 146.754L103.677 141.385C106.36 144.366 110.354 145.802 114.332 145.88C122.506 146.067 130.244 141.478 135.517 135.5C136.219 134.673 136.874 133.846 137.498 132.956C141.85 126.713 144.362 117.144 138.949 110.792L143.816 116.52C144.471 117.269 145.064 118.143 145.548 119.111C149.416 126.791 145.376 135.891 140.166 141.806C139.432 142.618 138.668 143.398 137.857 144.132C132.022 149.423 123.364 153.248 115.408 151.14Z" fill="white"/>
</mask>
<g mask="url(#mask1_480_4671)">
<path d="M141.18 147.254L154.315 137.326L138.871 116.879L125.736 126.791L141.18 147.254Z" fill="url(#paint2_linear_480_4671)"/>
</g>
<path d="M135.517 135.5C130.245 141.478 122.507 146.067 114.333 145.88C109.933 145.787 105.519 144.054 102.882 140.401C100.308 136.858 99.9025 132.254 100.807 128.07C102.523 120.079 108.545 113.195 115.596 109.324C122.491 105.547 132.522 103.939 138.513 110.276C144.519 116.629 141.976 126.525 137.514 132.956C136.89 133.83 136.219 134.673 135.517 135.5Z" fill="url(#paint3_linear_480_4671)"/>
<mask id="mask2_480_4671" style="mask-type:luminance" maskUnits="userSpaceOnUse" x="100" y="106" width="43" height="40">
<path d="M135.517 135.5C130.245 141.478 122.507 146.067 114.333 145.88C109.933 145.787 105.519 144.054 102.882 140.401C100.308 136.858 99.9025 132.254 100.807 128.07C102.523 120.079 108.545 113.195 115.596 109.324C122.491 105.547 132.522 103.939 138.513 110.276C144.519 116.629 141.976 126.525 137.514 132.956C136.89 133.83 136.219 134.673 135.517 135.5Z" fill="white"/>
</mask>
<g mask="url(#mask2_480_4671)">
<path d="M143.676 133.736L142.506 126.588L94.8325 134.345L96.0025 141.494L143.676 133.736Z" fill="url(#paint4_linear_480_4671)"/>
</g>
<mask id="mask3_480_4671" style="mask-type:luminance" maskUnits="userSpaceOnUse" x="100" y="106" width="43" height="40">
<path d="M135.517 135.5C130.245 141.478 122.507 146.067 114.333 145.88C109.933 145.787 105.519 144.054 102.882 140.401C100.308 136.858 99.9025 132.254 100.807 128.07C102.523 120.079 108.545 113.195 115.596 109.324C122.491 105.547 132.522 103.939 138.513 110.276C144.519 116.629 141.976 126.525 137.514 132.956C136.89 133.83 136.219 134.673 135.517 135.5Z" fill="white"/>
</mask>
<g mask="url(#mask3_480_4671)">
<path d="M145.735 123.591L145.486 122.108L97.812 129.866L98.046 131.364L145.735 123.591Z" fill="url(#paint5_linear_480_4671)"/>
</g>
<mask id="mask4_480_4671" style="mask-type:luminance" maskUnits="userSpaceOnUse" x="100" y="106" width="43" height="40">
<path d="M135.517 135.5C130.245 141.478 122.507 146.067 114.333 145.88C109.933 145.787 105.519 144.054 102.882 140.401C100.308 136.858 99.9025 132.254 100.807 128.07C102.523 120.079 108.545 113.195 115.596 109.324C122.491 105.547 132.522 103.939 138.513 110.276C144.519 116.629 141.976 126.525 137.514 132.956C136.89 133.83 136.219 134.673 135.517 135.5Z" fill="white"/>
</mask>
<g mask="url(#mask4_480_4671)">
<path d="M150.79 111.603L150.041 107.014L102.367 114.787L103.1 119.361L150.79 111.603Z" fill="url(#paint6_linear_480_4671)"/>
</g>
<path d="M127.935 108.559C131.57 108.591 134.503 109.761 136.64 112.025C138.871 114.382 139.807 117.519 139.386 121.312C139.027 124.668 137.576 128.383 135.392 131.489C134.893 132.222 134.3 132.972 133.583 133.815C131.087 136.655 128.091 139.012 124.94 140.667C121.508 142.462 118.029 143.352 114.597 143.32C114.519 143.32 114.441 143.32 114.363 143.32C110.339 143.227 106.891 141.619 104.91 138.887C103.927 137.545 103.303 135.922 103.022 134.096C102.773 132.379 102.851 130.474 103.256 128.601C103.989 125.183 105.674 121.78 108.139 118.752C110.495 115.849 113.474 113.367 116.781 111.556C120.354 109.621 124.41 108.528 127.935 108.559ZM127.967 106.015C123.661 105.968 119.184 107.358 115.58 109.34C108.529 113.211 102.507 120.079 100.791 128.086C99.8867 132.269 100.308 136.874 102.866 140.417C105.518 144.07 109.917 145.802 114.317 145.896C114.41 145.896 114.488 145.896 114.582 145.896C122.663 145.974 130.291 141.416 135.517 135.5C136.219 134.673 136.874 133.846 137.498 132.956C141.975 126.541 144.503 116.629 138.497 110.276C135.642 107.264 131.882 106.046 127.967 106.015Z" fill="url(#paint7_linear_480_4671)"/>
<path d="M186.436 68.1796C187.949 68.1796 189.415 68.6322 190.679 69.4907C191.958 70.3648 192.941 71.5979 193.502 73.0495L246.043 210.813C247.525 214.715 245.575 219.102 241.675 220.584L190.117 240.267C189.244 240.595 188.339 240.767 187.418 240.767C185.905 240.767 184.439 240.314 183.175 239.455C181.896 238.581 180.913 237.348 180.352 235.897L127.811 98.133C127.093 96.2443 127.156 94.1839 127.967 92.3421C128.794 90.5002 130.291 89.0798 132.179 88.3618L183.737 68.6791C184.61 68.3357 185.515 68.1796 186.436 68.1796ZM186.436 62.4043C184.86 62.4043 183.253 62.6853 181.678 63.2784L130.12 82.9612C123.24 85.5834 119.792 93.2942 122.413 100.193L174.954 237.957C176.982 243.28 182.052 246.542 187.418 246.542C188.994 246.542 190.601 246.261 192.176 245.668L243.734 225.985C250.614 223.363 254.062 215.652 251.441 208.753L198.9 70.9892C196.872 65.6665 191.802 62.4043 186.436 62.4043Z" fill="url(#paint8_linear_480_4671)"/>
<path d="M240.677 223.019L192.504 241.422C186.701 243.639 180.195 240.735 177.996 234.929L126.687 100.443C124.472 94.6366 127.374 88.1277 133.177 85.9269L181.365 67.5241C187.169 65.3076 193.674 68.2108 195.873 74.0173L247.166 208.488C249.381 214.31 246.48 220.803 240.677 223.019Z" fill="url(#paint9_linear_480_4671)"/>
<path d="M185.375 67.7113C187.434 67.7113 189.446 68.3201 191.162 69.4907C192.925 70.677 194.251 72.3627 195.015 74.3451L246.308 208.815C247.291 211.391 247.213 214.185 246.09 216.713C244.967 219.226 242.923 221.162 240.349 222.13L192.161 240.532C190.975 240.985 189.743 241.219 188.495 241.219C186.435 241.219 184.423 240.611 182.707 239.44C180.944 238.254 179.618 236.568 178.854 234.586L127.561 100.115C125.533 94.8083 128.201 88.8301 133.52 86.8009L181.709 68.3981C182.879 67.9454 184.127 67.7113 185.375 67.7113ZM185.375 66.7748C184.049 66.7748 182.691 67.0089 181.365 67.524L133.177 85.9268C127.374 88.1433 124.472 94.6522 126.687 100.443L177.98 234.913C179.696 239.393 183.955 242.156 188.495 242.156C189.821 242.156 191.178 241.922 192.504 241.407L240.692 223.004C246.495 220.787 249.397 214.278 247.182 208.488L195.889 74.0173C194.173 69.5376 189.899 66.7748 185.375 66.7748Z" fill="url(#paint10_linear_480_4671)"/>
<path d="M151.18 85.802C152.058 85.802 152.771 85.0892 152.771 84.2099C152.771 83.3306 152.058 82.6178 151.18 82.6178C150.301 82.6178 149.588 83.3306 149.588 84.2099C149.588 85.0892 150.301 85.802 151.18 85.802Z" fill="url(#paint11_linear_480_4671)"/>
<path d="M166.374 79.4336L155.563 83.5543C155.049 83.7573 154.456 83.4919 154.269 82.9768C154.066 82.4617 154.331 81.8686 154.846 81.6813L165.657 77.5605C166.171 77.3576 166.764 77.623 166.951 78.1381C167.154 78.6532 166.889 79.2463 166.374 79.4336Z" fill="url(#paint12_linear_480_4671)"/>
<path d="M186.201 214.591L177.871 217.775L174.688 209.44L183.019 206.255L186.201 214.591Z" fill="url(#paint13_linear_480_4671)"/>
<path d="M194.516 211.406L186.201 214.591L183.019 206.255L191.349 203.087L194.516 211.406Z" fill="url(#paint14_linear_480_4671)"/>
<path d="M191.349 203.087L183.019 206.255L179.836 197.936L188.167 194.752L191.349 203.087Z" fill="url(#paint15_linear_480_4671)"/>
<path d="M202.846 208.238L194.516 211.406L191.349 203.087L199.664 199.903L202.846 208.238Z" fill="url(#paint16_linear_480_4671)"/>
<path d="M168.34 192.785L165.173 184.45L173.488 181.281L176.67 189.601L168.34 192.785Z" fill="url(#paint17_linear_480_4671)"/>
<path d="M171.522 201.12L168.339 192.785L176.67 189.601L179.837 197.936L171.522 201.12Z" fill="url(#paint18_linear_480_4671)"/>
<path d="M165.173 184.45L161.99 176.13L170.305 172.946L173.487 181.281L165.173 184.45Z" fill="url(#paint19_linear_480_4671)"/>
<path d="M174.689 209.44L171.522 201.12L179.837 197.936L183.019 206.255L174.689 209.44Z" fill="url(#paint20_linear_480_4671)"/>
<path d="M202.846 208.238L199.664 199.903L207.994 196.734L211.177 205.054L202.846 208.238Z" fill="url(#paint21_linear_480_4671)"/>
<path d="M199.664 199.903L196.498 191.583L204.812 188.399L207.995 196.734L199.664 199.903Z" fill="url(#paint22_linear_480_4671)"/>
<path d="M191.349 203.087L188.167 194.752L196.497 191.583L199.664 199.903L191.349 203.087Z" fill="url(#paint23_linear_480_4671)"/>
<path d="M211.177 205.054L207.995 196.734L216.325 193.55L219.492 201.869L211.177 205.054Z" fill="url(#paint24_linear_480_4671)"/>
<path d="M186.779 169.59L183.612 161.271L191.927 158.086L195.109 166.422L186.779 169.59Z" fill="url(#paint25_linear_480_4671)"/>
<path d="M178.464 172.774L175.282 164.439L183.612 161.271L186.779 169.59L178.464 172.774Z" fill="url(#paint26_linear_480_4671)"/>
<path d="M183.612 161.271L180.43 152.936L188.76 149.767L191.927 158.086L183.612 161.271Z" fill="url(#paint27_linear_480_4671)"/>
<path d="M175.282 164.439L172.099 156.12L180.43 152.936L183.612 161.271L175.282 164.439Z" fill="url(#paint28_linear_480_4671)"/>
<path d="M209.523 179.346L206.341 171.011L214.656 167.842L217.838 176.162L209.523 179.346Z" fill="url(#paint29_linear_480_4671)"/>
<path d="M214.656 167.842L211.489 159.507L219.804 156.323L222.986 164.658L214.656 167.842Z" fill="url(#paint30_linear_480_4671)"/>
<path d="M217.838 176.161L214.656 167.842L222.986 164.658L226.169 172.993L217.838 176.161Z" fill="url(#paint31_linear_480_4671)"/>
<path d="M221.02 184.497L217.838 176.162L226.168 172.993L229.335 181.312L221.02 184.497Z" fill="url(#paint32_linear_480_4671)"/>
<path d="M189.805 111.572L156.218 124.403C149.588 126.931 142.147 123.607 139.62 116.973C137.093 110.339 140.415 102.894 147.045 100.365L180.632 87.5345C187.262 85.0059 194.703 88.3306 197.231 94.9644C199.773 101.598 196.435 109.028 189.805 111.572Z" fill="url(#paint33_linear_480_4671)"/>
<path d="M151.382 120.001L146.827 108.045L151.788 106.14C152.677 105.797 153.535 105.672 154.331 105.781C155.126 105.875 155.828 106.187 156.437 106.671C157.03 107.17 157.498 107.826 157.81 108.653C158.122 109.481 158.215 110.292 158.09 111.057C157.966 111.822 157.622 112.524 157.076 113.117C156.53 113.711 155.797 114.194 154.892 114.538L153.223 115.178L154.58 118.752L151.382 120.001ZM147.42 108.31L151.648 119.392L153.988 118.502L152.63 114.928L154.736 114.116C155.579 113.789 156.25 113.352 156.749 112.821C157.232 112.29 157.529 111.666 157.654 110.995C157.763 110.308 157.685 109.59 157.388 108.841C157.108 108.091 156.686 107.483 156.156 107.046C155.626 106.609 155.002 106.343 154.284 106.25C153.566 106.156 152.786 106.265 151.975 106.593L147.42 108.31ZM151.96 113.164L150.462 109.215L152.053 108.606C152.506 108.435 152.911 108.372 153.286 108.404C153.676 108.435 154.003 108.575 154.284 108.809C154.565 109.043 154.783 109.356 154.924 109.746C155.064 110.136 155.126 110.511 155.064 110.87C155.017 111.229 154.861 111.572 154.596 111.853C154.346 112.134 153.988 112.368 153.535 112.54L151.96 113.164ZM151.07 109.496L152.24 112.555L153.395 112.118C153.785 111.978 154.066 111.791 154.268 111.557C154.471 111.338 154.58 111.088 154.627 110.823C154.674 110.542 154.627 110.245 154.502 109.933C154.378 109.621 154.206 109.371 154.003 109.184C153.785 109.012 153.551 108.903 153.254 108.872C152.958 108.841 152.615 108.903 152.225 109.043L151.07 109.496Z" fill="url(#paint34_linear_480_4671)"/>
<path d="M161.694 116.068L157.139 104.111L160.352 102.878L163.878 112.134L168.667 110.308L169.697 113.008L161.694 116.068ZM157.747 104.377L161.975 115.459L169.104 112.727L168.402 110.901L163.613 112.727L160.087 103.471L157.747 104.377Z" fill="url(#paint35_linear_480_4671)"/>
<path d="M170.274 112.79L169.744 99.288L173.768 97.7583L182.364 108.169L178.916 109.496L177.232 107.373L173.581 108.763L173.753 111.463L170.274 112.79ZM170.227 99.6158L170.711 112.118L173.238 111.151L173.066 108.45L177.356 106.811L179.041 108.934L181.568 107.966L173.612 98.3046L170.227 99.6158ZM172.957 106.562L172.645 101.504L173.051 101.348L176.186 105.329L172.957 106.562ZM173.16 102.238L173.378 105.906L175.438 105.126L173.16 102.238Z" fill="url(#paint36_linear_480_4671)"/>
<path d="M185.546 106.952L184.017 102.94L176.623 96.6657L180.242 95.2921L184.361 99.0539L184.938 93.4971L188.557 92.1235L187.231 101.739L188.76 105.75L185.546 106.952ZM177.528 96.8218L184.407 102.675L185.811 106.359L188.136 105.469L186.732 101.785L187.964 92.8415L185.359 93.8405L184.766 99.5846L184.392 99.725L180.117 95.8384L177.528 96.8218Z" fill="url(#paint37_linear_480_4671)"/>
<path d="M189.259 224.549L194.563 228.857C195 229.216 194.891 229.903 194.36 230.106L187.98 232.541C187.465 232.744 186.919 232.307 187.013 231.745L188.089 225.002C188.182 224.455 188.838 224.206 189.259 224.549Z" fill="white"/>
<path d="M203.736 225.361L198.432 221.053C197.995 220.694 198.104 220.007 198.635 219.804L205.015 217.369C205.53 217.166 206.076 217.603 205.982 218.165L204.906 224.908C204.828 225.47 204.173 225.72 203.736 225.361Z" fill="white"/>
<path d="M236.574 210.329L232.268 215.636C231.909 216.073 231.223 215.964 231.02 215.433L228.587 209.049C228.384 208.534 228.821 207.988 229.382 208.082L236.121 209.159C236.683 209.237 236.933 209.892 236.574 210.329Z" fill="white"/>
<path d="M217.479 217.619L224.218 218.696C224.764 218.789 225.217 218.243 225.014 217.728L222.58 211.344C222.378 210.829 221.691 210.704 221.332 211.141L217.027 216.448C216.684 216.885 216.933 217.525 217.479 217.619Z" fill="white"/>
<path d="M143.177 170.262C140.228 178.019 141.57 185.386 137.92 196.516C136.656 200.387 136.765 205.194 138.98 211.609C141.196 218.025 143.645 236.037 145.033 242C146.422 247.962 155.267 262.042 158.59 267.099C161.912 272.14 167.778 280.585 171.085 287.765C174.377 294.945 173.347 306.043 171.085 314.3C168.823 322.557 136.812 438 136.812 438H210.226C210.226 438 233.579 321.605 237.104 317.188C240.63 312.77 245.497 302.64 247.104 297.77C248.711 292.9 254.155 258.545 257.478 250.663C260.816 242.78 273.437 223.55 273.437 223.55L262.798 209.58C255.7 213.217 245.123 231.979 243.516 231.183C241.909 230.387 242.72 226.407 242.72 226.407L197.012 243.857C180.086 231.12 169.26 231.636 166.764 225.189C164.268 218.743 160.29 206.693 159.557 202.79C158.824 198.873 162.505 187.244 159.011 177.925C155.501 168.56 146.125 162.504 143.177 170.262Z" fill="url(#paint38_linear_480_4671)"/>
<mask id="mask5_480_4671" style="mask-type:luminance" maskUnits="userSpaceOnUse" x="136" y="166" width="138" height="273">
<path d="M143.177 170.262C140.228 178.019 141.57 185.386 137.92 196.516C136.656 200.387 136.765 205.194 138.98 211.609C141.196 218.025 143.645 236.037 145.033 242C146.422 247.962 155.267 262.042 158.59 267.099C161.912 272.14 167.778 280.585 171.085 287.765C174.377 294.945 173.347 306.043 171.085 314.3C168.823 322.557 136.812 438 136.812 438H210.226C210.226 438 233.579 321.605 237.104 317.188C240.63 312.77 245.497 302.64 247.104 297.77C248.711 292.9 254.155 258.545 257.478 250.663C260.816 242.78 273.437 223.55 273.437 223.55L262.798 209.58C255.7 213.217 245.123 231.979 243.516 231.183C241.909 230.387 242.72 226.407 242.72 226.407L197.012 243.857C180.086 231.12 169.26 231.636 166.764 225.189C164.268 218.743 160.29 206.693 159.557 202.79C158.824 198.873 162.505 187.244 159.011 177.925C155.501 168.56 146.125 162.504 143.177 170.262Z" fill="white"/>
</mask>
<g mask="url(#mask5_480_4671)">
<path d="M211.973 272.749C211.973 272.749 211.957 256.219 218.977 249.336C225.997 242.468 243.501 231.152 243.501 231.152L245.076 223.238L193.253 241.141C206.591 249.32 213.985 262.666 211.973 272.749Z" fill="url(#paint39_linear_480_4671)"/>
</g>
<mask id="mask6_480_4671" style="mask-type:luminance" maskUnits="userSpaceOnUse" x="136" y="166" width="138" height="273">
<path d="M143.177 170.262C140.228 178.019 141.57 185.386 137.92 196.516C136.656 200.387 136.765 205.194 138.98 211.609C141.196 218.025 143.645 236.037 145.033 242C146.422 247.962 155.267 262.042 158.59 267.099C161.912 272.14 167.778 280.585 171.085 287.765C174.377 294.945 173.347 306.043 171.085 314.3C168.823 322.557 136.812 438 136.812 438H210.226C210.226 438 233.579 321.605 237.104 317.188C240.63 312.77 245.497 302.64 247.104 297.77C248.711 292.9 254.155 258.545 257.478 250.663C260.816 242.78 273.437 223.55 273.437 223.55L262.798 209.58C255.7 213.217 245.123 231.979 243.516 231.183C241.909 230.387 242.72 226.407 242.72 226.407L197.012 243.857C180.086 231.12 169.26 231.636 166.764 225.189C164.268 218.743 160.29 206.693 159.557 202.79C158.824 198.873 162.505 187.244 159.011 177.925C155.501 168.56 146.125 162.504 143.177 170.262Z" fill="white"/>
</mask>
<g mask="url(#mask6_480_4671)">
<path d="M245.669 301.438C245.669 301.438 237.026 316.797 222.05 313.067C229.538 350.06 196.513 439.951 196.513 439.951H216.7L245.669 301.438Z" fill="url(#paint40_linear_480_4671)"/>
</g>
<mask id="mask7_480_4671" style="mask-type:luminance" maskUnits="userSpaceOnUse" x="136" y="166" width="138" height="273">
<path d="M143.177 170.262C140.228 178.019 141.57 185.386 137.92 196.516C136.656 200.387 136.765 205.194 138.98 211.609C141.196 218.025 143.645 236.037 145.033 242C146.422 247.962 155.267 262.042 158.59 267.099C161.912 272.14 167.778 280.585 171.085 287.765C174.377 294.945 173.347 306.043 171.085 314.3C168.823 322.557 136.812 438 136.812 438H210.226C210.226 438 233.579 321.605 237.104 317.188C240.63 312.77 245.497 302.64 247.104 297.77C248.711 292.9 254.155 258.545 257.478 250.663C260.816 242.78 273.437 223.55 273.437 223.55L262.798 209.58C255.7 213.217 245.123 231.979 243.516 231.183C241.909 230.387 242.72 226.407 242.72 226.407L197.012 243.857C180.086 231.12 169.26 231.636 166.764 225.189C164.268 218.743 160.29 206.693 159.557 202.79C158.824 198.873 162.505 187.244 159.011 177.925C155.501 168.56 146.125 162.504 143.177 170.262Z" fill="white"/>
</mask>
<g mask="url(#mask7_480_4671)">
<path d="M253.562 239.674C247.541 231.667 243.485 231.152 243.485 231.152L259.397 209.034L264.654 209.924C264.654 209.939 254.28 222.504 253.562 239.674Z" fill="url(#paint41_linear_480_4671)"/>
</g>
<mask id="mask8_480_4671" style="mask-type:luminance" maskUnits="userSpaceOnUse" x="136" y="166" width="138" height="273">
<path d="M143.177 170.262C140.228 178.019 141.57 185.386 137.92 196.516C136.656 200.387 136.765 205.194 138.98 211.609C141.196 218.025 143.645 236.037 145.033 242C146.422 247.962 155.267 262.042 158.59 267.099C161.912 272.14 167.778 280.585 171.085 287.765C174.377 294.945 173.347 306.043 171.085 314.3C168.823 322.557 136.812 438 136.812 438H210.226C210.226 438 233.579 321.605 237.104 317.188C240.63 312.77 245.497 302.64 247.104 297.77C248.711 292.9 254.155 258.545 257.478 250.663C260.816 242.78 273.437 223.55 273.437 223.55L262.798 209.58C255.7 213.217 245.123 231.979 243.516 231.183C241.909 230.387 242.72 226.407 242.72 226.407L197.012 243.857C180.086 231.12 169.26 231.636 166.764 225.189C164.268 218.743 160.29 206.693 159.557 202.79C158.824 198.873 162.505 187.244 159.011 177.925C155.501 168.56 146.125 162.504 143.177 170.262Z" fill="white"/>
</mask>
<g mask="url(#mask8_480_4671)">
<path d="M139.604 183.529C139.604 183.529 141.913 185.902 145.751 184.497C149.588 183.092 149.152 165.969 149.152 165.969L141.586 165.392L139.604 183.529Z" fill="url(#paint42_linear_480_4671)"/>
</g>
<mask id="mask9_480_4671" style="mask-type:luminance" maskUnits="userSpaceOnUse" x="136" y="166" width="138" height="273">
<path d="M143.177 170.262C140.228 178.019 141.57 185.386 137.92 196.516C136.656 200.387 136.765 205.194 138.98 211.609C141.196 218.025 143.645 236.037 145.033 242C146.422 247.962 155.267 262.042 158.59 267.099C161.912 272.14 167.778 280.585 171.085 287.765C174.377 294.945 173.347 306.043 171.085 314.3C168.823 322.557 136.812 438 136.812 438H210.226C210.226 438 233.579 321.605 237.104 317.188C240.63 312.77 245.497 302.64 247.104 297.77C248.711 292.9 254.155 258.545 257.478 250.663C260.816 242.78 273.437 223.55 273.437 223.55L262.798 209.58C255.7 213.217 245.123 231.979 243.516 231.183C241.909 230.387 242.72 226.407 242.72 226.407L197.012 243.857C180.086 231.12 169.26 231.636 166.764 225.189C164.268 218.743 160.29 206.693 159.557 202.79C158.824 198.873 162.505 187.244 159.011 177.925C155.501 168.56 146.125 162.504 143.177 170.262Z" fill="white"/>
</mask>
<g mask="url(#mask9_480_4671)">
<path d="M199.103 288.218C199.571 287.89 200.039 287.562 200.507 287.234C200.959 286.891 201.427 286.563 201.864 286.188L202.535 285.658L203.175 285.111L203.502 284.831L203.814 284.55L204.438 283.972C205.249 283.176 206.029 282.364 206.747 281.506C207.465 280.632 208.12 279.726 208.697 278.79C209.851 276.901 210.694 274.825 211.084 272.687C211.505 270.548 211.474 268.348 211.068 266.209C210.678 264.071 209.883 262.01 208.884 260.059C208.759 259.81 208.635 259.575 208.51 259.326C208.385 259.076 208.245 258.842 208.12 258.608C207.855 258.124 207.574 257.656 207.293 257.172C206.731 256.219 206.139 255.299 205.515 254.362C204.282 252.52 202.925 250.725 201.49 248.993C200.055 247.26 198.541 245.559 196.903 243.951L197.059 243.732C198.12 244.216 199.103 244.856 200.07 245.512C201.022 246.183 201.942 246.917 202.831 247.681C204.594 249.227 206.217 250.944 207.667 252.817C209.118 254.69 210.351 256.75 211.271 258.951C212.191 261.152 212.847 263.493 213.159 265.881C213.471 268.27 213.377 270.72 212.8 273.061C212.207 275.403 211.162 277.588 209.789 279.524C209.103 280.491 208.338 281.381 207.543 282.239C206.731 283.082 205.873 283.863 204.984 284.612L204.298 285.143L203.955 285.408L203.611 285.658L202.909 286.173L202.192 286.657C201.724 286.985 201.225 287.281 200.725 287.578C200.242 287.874 199.727 288.155 199.228 288.452L199.103 288.218Z" fill="url(#paint43_linear_480_4671)"/>
</g>
<mask id="mask10_480_4671" style="mask-type:luminance" maskUnits="userSpaceOnUse" x="136" y="166" width="138" height="273">
<path d="M143.177 170.262C140.228 178.019 141.57 185.386 137.92 196.516C136.656 200.387 136.765 205.194 138.98 211.609C141.196 218.025 143.645 236.037 145.033 242C146.422 247.962 155.267 262.042 158.59 267.099C161.912 272.14 167.778 280.585 171.085 287.765C174.377 294.945 173.347 306.043 171.085 314.3C168.823 322.557 136.812 438 136.812 438H210.226C210.226 438 233.579 321.605 237.104 317.188C240.63 312.77 245.497 302.64 247.104 297.77C248.711 292.9 254.155 258.545 257.478 250.663C260.816 242.78 273.437 223.55 273.437 223.55L262.798 209.58C255.7 213.217 245.123 231.979 243.516 231.183C241.909 230.387 242.72 226.407 242.72 226.407L197.012 243.857C180.086 231.12 169.26 231.636 166.764 225.189C164.268 218.743 160.29 206.693 159.557 202.79C158.824 198.873 162.505 187.244 159.011 177.925C155.501 168.56 146.125 162.504 143.177 170.262Z" fill="white"/>
</mask>
<g mask="url(#mask10_480_4671)">
<path d="M211.099 304.107C212.831 305.465 214.547 306.777 216.278 308.056C218.01 309.321 219.773 310.538 221.567 311.678C223.376 312.817 225.202 313.879 227.105 314.862C229.008 315.861 230.974 316.704 233.002 317.578C232.721 317.562 232.456 317.547 232.175 317.515L231.754 317.484L231.348 317.422C231.067 317.391 230.802 317.344 230.521 317.297L229.71 317.125L229.304 317.032L228.899 316.922C228.634 316.86 228.368 316.782 228.088 316.704C227.822 316.626 227.557 316.532 227.292 316.454C227.027 316.376 226.762 316.282 226.512 316.189C224.422 315.439 222.425 314.425 220.553 313.239C218.681 312.052 216.934 310.679 215.327 309.165C214.531 308.4 213.767 307.604 213.049 306.761C212.69 306.339 212.347 305.902 212.02 305.465C211.692 305.028 211.38 304.576 211.099 304.107Z" fill="url(#paint44_linear_480_4671)"/>
</g>
<mask id="mask11_480_4671" style="mask-type:luminance" maskUnits="userSpaceOnUse" x="136" y="166" width="138" height="273">
<path d="M143.177 170.262C140.228 178.019 141.57 185.386 137.92 196.516C136.656 200.387 136.765 205.194 138.98 211.609C141.196 218.025 143.645 236.037 145.033 242C146.422 247.962 155.267 262.042 158.59 267.099C161.912 272.14 167.778 280.585 171.085 287.765C174.377 294.945 173.347 306.043 171.085 314.3C168.823 322.557 136.812 438 136.812 438H210.226C210.226 438 233.579 321.605 237.104 317.188C240.63 312.77 245.497 302.64 247.104 297.77C248.711 292.9 254.155 258.545 257.478 250.663C260.816 242.78 273.437 223.55 273.437 223.55L262.798 209.58C255.7 213.217 245.123 231.979 243.516 231.183C241.909 230.387 242.72 226.407 242.72 226.407L197.012 243.857C180.086 231.12 169.26 231.636 166.764 225.189C164.268 218.743 160.29 206.693 159.557 202.79C158.824 198.873 162.505 187.244 159.011 177.925C155.501 168.56 146.125 162.504 143.177 170.262Z" fill="white"/>
</mask>
<g mask="url(#mask11_480_4671)">
<path d="M173.16 297.708C174.455 297.661 175.734 297.552 176.998 297.364L177.949 297.208C178.261 297.162 178.573 297.083 178.885 297.037C179.197 296.99 179.509 296.912 179.821 296.849L180.289 296.74L180.742 296.615C181.038 296.537 181.35 296.459 181.647 296.35L182.536 296.038C182.692 295.991 182.832 295.928 182.973 295.882C183.113 295.835 183.269 295.772 183.409 295.741C183.55 295.694 183.706 295.647 183.862 295.616C184.018 295.585 184.158 295.523 184.314 295.491C185.531 295.21 186.717 294.867 188.105 294.711L188.199 294.867C187.98 295.132 187.746 295.382 187.497 295.616C187.372 295.726 187.247 295.85 187.107 295.96C186.966 296.069 186.841 296.163 186.701 296.256C186.42 296.444 186.139 296.631 185.843 296.803C185.547 296.959 185.235 297.099 184.938 297.255C184.782 297.318 184.626 297.396 184.47 297.458C184.314 297.521 184.158 297.567 183.987 297.614C183.659 297.708 183.331 297.801 183.004 297.848L182.005 297.989C181.834 298.02 181.678 298.036 181.506 298.051L181.007 298.114L180.508 298.176L180.009 298.223C179.681 298.254 179.353 298.285 179.026 298.301C178.698 298.317 178.371 298.332 178.043 298.332H177.06C175.75 298.285 174.439 298.192 173.145 297.926L173.16 297.708Z" fill="url(#paint45_linear_480_4671)"/>
</g>
<mask id="mask12_480_4671" style="mask-type:luminance" maskUnits="userSpaceOnUse" x="136" y="166" width="138" height="273">
<path d="M143.177 170.262C140.228 178.019 141.57 185.386 137.92 196.516C136.656 200.387 136.765 205.194 138.98 211.609C141.196 218.025 143.645 236.037 145.033 242C146.422 247.962 155.267 262.042 158.59 267.099C161.912 272.14 167.778 280.585 171.085 287.765C174.377 294.945 173.347 306.043 171.085 314.3C168.823 322.557 136.812 438 136.812 438H210.226C210.226 438 233.579 321.605 237.104 317.188C240.63 312.77 245.497 302.64 247.104 297.77C248.711 292.9 254.155 258.545 257.478 250.663C260.816 242.78 273.437 223.55 273.437 223.55L262.798 209.58C255.7 213.217 245.123 231.979 243.516 231.183C241.909 230.387 242.72 226.407 242.72 226.407L197.012 243.857C180.086 231.12 169.26 231.636 166.764 225.189C164.268 218.743 160.29 206.693 159.557 202.79C158.824 198.873 162.505 187.244 159.011 177.925C155.501 168.56 146.125 162.504 143.177 170.262Z" fill="white"/>
</mask>
<g mask="url(#mask12_480_4671)">
<path d="M160.789 185.933C160.789 185.933 161.163 199.887 153.192 202.947C161.507 204.164 164.003 212.125 164.003 212.125C164.003 212.125 167.403 224.456 163.035 230.824C173.035 229.435 188.604 235.257 188.604 235.257L160.789 185.933Z" fill="url(#paint46_linear_480_4671)"/>
</g>
<path d="M242.455 185.215L244.545 190.678C244.545 190.678 241.285 203.009 250.286 205.725C256.183 207.504 260.145 200.964 260.66 196.797C261.175 192.629 261.83 188.976 260.723 186.869C258.351 182.327 250.083 181.094 247.275 182.374C244.452 183.654 242.455 185.215 242.455 185.215Z" fill="url(#paint47_linear_480_4671)"/>
<path d="M238.181 173.976L228.556 148.737C228.556 148.737 230.287 145.178 233.766 142.696C237.604 139.933 248.68 137.28 249.818 148.144C250.333 153.076 243.89 158.727 241.722 162.566C239.522 166.422 238.181 173.976 238.181 173.976Z" fill="url(#paint48_linear_480_4671)"/>
<path d="M254.81 222.91C253.032 230.121 261.971 233.29 266.775 230.886C271.58 228.482 275.324 222.66 275.995 220.257C278.865 210.002 266.151 207.52 263.546 208.769C260.941 210.017 256.589 215.699 254.81 222.91Z" fill="url(#paint49_linear_480_4671)"/>
<path d="M242.877 61.6862L244.203 67.7892L250.302 69.116L244.203 70.4583L242.877 76.5614L241.535 70.4583L235.436 69.116L241.535 67.7892L242.877 61.6862Z" fill="white"/>
<path d="M345.135 162.551L346.461 168.654L352.576 169.98L346.461 171.323L345.135 177.426L343.809 171.323L337.693 169.98L343.809 168.654L345.135 162.551Z" fill="white"/>
<path d="M143.084 41.2074L143.91 44.9535L147.654 45.7652L143.91 46.5924L143.084 50.3386L142.272 46.5924L138.528 45.7652L142.272 44.9535L143.084 41.2074Z" fill="white"/>
<path d="M82.103 189.928L82.9298 193.69L86.6738 194.502L82.9298 195.314L82.103 199.075L81.2918 195.314L77.5322 194.502L81.2918 193.69L82.103 189.928Z" fill="white"/>
<path d="M137.108 275.465L137.92 279.211L141.664 280.023L137.92 280.85L137.108 284.596L136.282 280.85L132.538 280.023L136.282 279.211L137.108 275.465Z" fill="white"/>
<path d="M302.172 177.332L302.999 181.078L306.743 181.89L302.999 182.717L302.172 186.463L301.361 182.717L297.602 181.89L301.361 181.078L302.172 177.332Z" fill="white"/>
<path d="M115.253 171.978L116.579 178.097L122.679 179.424L116.579 180.766L115.253 186.869L113.912 180.766L107.812 179.424L113.912 178.097L115.253 171.978Z" fill="white"/>
<path d="M319.067 193.69L321.282 203.805L331.407 206.021L321.282 208.238L319.067 218.368L316.868 208.238L306.743 206.021L316.868 203.805L319.067 193.69Z" fill="white"/>
<path d="M99.4968 79.5428C100.87 78.4502 101.915 77.0142 102.492 75.4065V75.3908C102.57 75.1879 102.632 75.0006 102.679 74.7977L104.208 70.0526C103.334 72.6905 101.197 74.7197 98.6856 75.9059C93.5376 78.3097 87.3444 77.5605 82.3212 75.2348C81.6504 74.907 80.9952 74.5636 80.3556 74.1734C75.8472 71.4262 71.5728 66.0567 73.2264 60.5L71.7288 65.5104C71.526 66.1816 71.3856 66.884 71.3544 67.6489C71.0424 73.6114 76.1592 78.2629 81.12 80.5574C81.822 80.8695 82.524 81.1505 83.2416 81.3846C88.4676 83.1016 95.0352 83.1172 99.4968 79.5428Z" fill="url(#paint50_linear_480_4671)"/>
<mask id="mask13_480_4671" style="mask-type:luminance" maskUnits="userSpaceOnUse" x="71" y="60" width="34" height="23">
<path d="M99.4968 79.5428C100.87 78.4502 101.915 77.0142 102.492 75.4065V75.3908C102.57 75.1879 102.632 75.0006 102.679 74.7977L104.208 70.0526C103.334 72.6905 101.197 74.7197 98.6856 75.9059C93.5376 78.3097 87.3444 77.5605 82.3212 75.2348C81.6504 74.907 80.9952 74.5636 80.3556 74.1734C75.8472 71.4262 71.5728 66.0567 73.2264 60.5L71.7288 65.5104C71.526 66.1816 71.3856 66.884 71.3544 67.6489C71.0424 73.6114 76.1592 78.2629 81.12 80.5574C81.822 80.8695 82.524 81.1505 83.2416 81.3846C88.4676 83.1016 95.0352 83.1172 99.4968 79.5428Z" fill="white"/>
</mask>
<g mask="url(#mask13_480_4671)">
<path d="M97.5935 85.8487L86.4707 82.8675L89.8559 70.2711L100.979 73.2524L97.5935 85.8487Z" fill="url(#paint51_linear_480_4671)"/>
</g>
<mask id="mask14_480_4671" style="mask-type:luminance" maskUnits="userSpaceOnUse" x="71" y="60" width="34" height="23">
<path d="M99.4968 79.5428C100.87 78.4502 101.915 77.0142 102.492 75.4065V75.3908C102.57 75.1879 102.632 75.0006 102.679 74.7977L104.208 70.0526C103.334 72.6905 101.197 74.7197 98.6856 75.9059C93.5376 78.3097 87.3444 77.5605 82.3212 75.2348C81.6504 74.907 80.9952 74.5636 80.3556 74.1734C75.8472 71.4262 71.5728 66.0567 73.2264 60.5L71.7288 65.5104C71.526 66.1816 71.3856 66.884 71.3544 67.6489C71.0424 73.6114 76.1592 78.2629 81.12 80.5574C81.822 80.8695 82.524 81.1505 83.2416 81.3846C88.4676 83.1016 95.0352 83.1172 99.4968 79.5428Z" fill="white"/>
</mask>
<g mask="url(#mask14_480_4671)">
<path d="M82.0403 84.2878L70.9175 81.6655L75.0047 64.3397L86.1275 66.962L82.0403 84.2878Z" fill="url(#paint52_linear_480_4671)"/>
</g>
<path d="M82.3523 75.2347C87.3755 77.5604 93.5843 78.3097 98.7167 75.9059C101.493 74.6104 103.802 72.269 104.457 69.2097C105.097 66.244 104.067 63.2003 102.336 60.7965C99.0131 56.1919 93.2567 53.5072 87.7031 53.0233C82.2587 52.5551 75.4415 54.3501 73.4135 60.0473C71.3699 65.7602 75.7535 71.3481 80.3867 74.1733C81.0107 74.5635 81.6815 74.9069 82.3523 75.2347Z" fill="url(#paint53_linear_480_4671)"/>
<mask id="mask15_480_4671" style="mask-type:luminance" maskUnits="userSpaceOnUse" x="72" y="52" width="33" height="26">
<path d="M82.3523 75.2347C87.3755 77.5604 93.5843 78.3097 98.7167 75.9059C101.493 74.6104 103.802 72.269 104.457 69.2097C105.097 66.244 104.067 63.2003 102.336 60.7965C99.0131 56.1919 93.2567 53.5072 87.7031 53.0233C82.2587 52.5551 75.4415 54.3501 73.4135 60.0473C71.3699 65.7602 75.7535 71.3481 80.3867 74.1733C81.0107 74.5635 81.6815 74.9069 82.3523 75.2347Z" fill="white"/>
</mask>
<g mask="url(#mask15_480_4671)">
<path d="M76.6738 76.4054L75.4102 71.5355L107.874 63.1223L109.137 67.9923L76.6738 76.4054Z" fill="url(#paint54_linear_480_4671)"/>
</g>
<mask id="mask16_480_4671" style="mask-type:luminance" maskUnits="userSpaceOnUse" x="72" y="52" width="33" height="26">
<path d="M82.3523 75.2347C87.3755 77.5604 93.5843 78.3097 98.7167 75.9059C101.493 74.6104 103.802 72.269 104.457 69.2097C105.097 66.244 104.067 63.2003 102.336 60.7965C99.0131 56.1919 93.2567 53.5072 87.7031 53.0233C82.2587 52.5551 75.4415 54.3501 73.4135 60.0473C71.3699 65.7602 75.7535 71.3481 80.3867 74.1733C81.0107 74.5635 81.6815 74.9069 82.3523 75.2347Z" fill="white"/>
</mask>
<g mask="url(#mask16_480_4671)">
<path d="M72.5245 70.5365L72.2749 69.5219L104.739 61.1088L105.004 62.1233L72.5245 70.5365Z" fill="url(#paint55_linear_480_4671)"/>
</g>
<mask id="mask17_480_4671" style="mask-type:luminance" maskUnits="userSpaceOnUse" x="72" y="52" width="33" height="26">
<path d="M82.3523 75.2347C87.3755 77.5604 93.5843 78.3097 98.7167 75.9059C101.493 74.6104 103.802 72.269 104.457 69.2097C105.097 66.244 104.067 63.2003 102.336 60.7965C99.0131 56.1919 93.2567 53.5072 87.7031 53.0233C82.2587 52.5551 75.4415 54.3501 73.4135 60.0473C71.3699 65.7602 75.7535 71.3481 80.3867 74.1733C81.0107 74.5635 81.6815 74.9069 82.3523 75.2347Z" fill="white"/>
</mask>
<g mask="url(#mask17_480_4671)">
<path d="M65.9567 64.3241L65.1611 61.2024L97.6247 52.7892L98.4359 55.911L65.9567 64.3241Z" fill="url(#paint56_linear_480_4671)"/>
</g>
<path d="M79.6223 55.989C81.8531 54.9745 84.7391 54.5374 87.5471 54.7872C90.1523 55.0213 92.7419 55.7549 95.0507 56.9412C97.4531 58.1743 99.4811 59.86 100.901 61.8268C101.681 62.9038 102.258 64.09 102.585 65.2607C102.929 66.5094 102.975 67.7113 102.726 68.8351C102.227 71.1296 100.495 73.112 97.9523 74.2982C97.9055 74.3138 97.8587 74.3451 97.8119 74.3607C95.6435 75.344 93.1787 75.7498 90.4955 75.5625C88.0307 75.3908 85.4723 74.7353 83.0855 73.627C82.3991 73.2993 81.8063 72.9715 81.2759 72.6593C79.0295 71.2857 77.0639 69.3346 75.8939 67.3055C74.5679 65.011 74.2871 62.7633 75.0359 60.6405C75.7847 58.5957 77.3291 57.0348 79.6223 55.989ZM78.9047 54.3813C76.4243 55.5052 74.3807 57.3314 73.4135 60.0473C71.3699 65.7602 75.7535 71.3482 80.3867 74.1734C81.0263 74.5636 81.6815 74.907 82.3523 75.2348C87.3287 77.5293 93.4439 78.2941 98.5607 75.9684C98.6231 75.9372 98.6699 75.9215 98.7167 75.8903C101.493 74.5948 103.802 72.2535 104.457 69.1941C105.097 66.2284 104.067 63.1847 102.336 60.781C99.0131 56.1763 93.2567 53.4916 87.7031 53.0078C84.8483 52.7736 81.6191 53.1482 78.9047 54.3813Z" fill="url(#paint57_linear_480_4671)"/>
<path d="M302.375 288.186C303.857 287 304.98 285.47 305.604 283.753V283.738C305.682 283.535 305.744 283.316 305.807 283.098L307.445 278.009C306.509 280.85 304.215 283.02 301.517 284.284C295.994 286.86 289.333 286.064 283.935 283.566C283.218 283.223 282.5 282.848 281.829 282.427C276.978 279.477 272.391 273.701 274.185 267.739L272.579 273.108C272.36 273.826 272.22 274.591 272.173 275.403C271.83 281.802 277.337 286.797 282.672 289.263C283.421 289.591 284.169 289.888 284.949 290.153C290.519 292.011 297.585 292.026 302.375 288.186Z" fill="url(#paint58_linear_480_4671)"/>
<mask id="mask18_480_4671" style="mask-type:luminance" maskUnits="userSpaceOnUse" x="272" y="267" width="36" height="25">
<path d="M302.375 288.186C303.857 287 304.98 285.47 305.604 283.753V283.738C305.682 283.535 305.744 283.316 305.807 283.098L307.445 278.009C306.509 280.85 304.215 283.02 301.517 284.284C295.994 286.86 289.333 286.064 283.935 283.566C283.218 283.223 282.5 282.848 281.829 282.427C276.978 279.477 272.391 273.701 274.185 267.739L272.579 273.108C272.36 273.826 272.22 274.591 272.173 275.403C271.83 281.802 277.337 286.797 282.672 289.263C283.421 289.591 284.169 289.888 284.949 290.153C290.519 292.011 297.585 292.026 302.375 288.186Z" fill="white"/>
</mask>
<g mask="url(#mask18_480_4671)">
<path d="M300.315 294.961L288.381 291.745L292.016 278.228L303.95 281.443L300.315 294.961Z" fill="url(#paint59_linear_480_4671)"/>
</g>
<mask id="mask19_480_4671" style="mask-type:luminance" maskUnits="userSpaceOnUse" x="272" y="267" width="36" height="25">
<path d="M302.375 288.186C303.857 287 304.98 285.47 305.604 283.753V283.738C305.682 283.535 305.744 283.316 305.807 283.098L307.445 278.009C306.509 280.85 304.215 283.02 301.517 284.284C295.994 286.86 289.333 286.064 283.935 283.566C283.218 283.223 282.5 282.848 281.829 282.427C276.978 279.477 272.391 273.701 274.185 267.739L272.579 273.108C272.36 273.826 272.22 274.591 272.173 275.403C271.83 281.802 277.337 286.797 282.672 289.263C283.421 289.591 284.169 289.888 284.949 290.153C290.519 292.011 297.585 292.026 302.375 288.186Z" fill="white"/>
</mask>
<g mask="url(#mask19_480_4671)">
<path d="M283.623 293.275L271.689 290.465L276.073 271.859L288.007 274.685L283.623 293.275Z" fill="url(#paint60_linear_480_4671)"/>
</g>
<path d="M283.951 283.566C289.349 286.064 296.01 286.86 301.532 284.284C304.512 282.895 306.992 280.382 307.71 277.104C308.396 273.92 307.289 270.658 305.432 268.067C301.86 263.134 295.682 260.246 289.707 259.731C283.873 259.216 276.541 261.152 274.357 267.27C272.173 273.405 276.869 279.399 281.845 282.442C282.531 282.832 283.233 283.207 283.951 283.566Z" fill="url(#paint61_linear_480_4671)"/>
<mask id="mask20_480_4671" style="mask-type:luminance" maskUnits="userSpaceOnUse" x="273" y="259" width="35" height="27">
<path d="M283.951 283.566C289.349 286.064 296.01 286.86 301.532 284.284C304.512 282.895 306.992 280.382 307.71 277.104C308.396 273.92 307.289 270.658 305.432 268.067C301.86 263.134 295.682 260.246 289.707 259.731C283.873 259.216 276.541 261.152 274.357 267.27C272.173 273.405 276.869 279.399 281.845 282.442C282.531 282.832 283.233 283.207 283.951 283.566Z" fill="white"/>
</mask>
<g mask="url(#mask20_480_4671)">
<path d="M277.851 284.815L276.51 279.586L311.376 270.548L312.733 275.777L277.851 284.815Z" fill="url(#paint62_linear_480_4671)"/>
</g>
<mask id="mask21_480_4671" style="mask-type:luminance" maskUnits="userSpaceOnUse" x="273" y="259" width="35" height="27">
<path d="M283.951 283.566C289.349 286.064 296.01 286.86 301.532 284.284C304.512 282.895 306.992 280.382 307.71 277.104C308.396 273.92 307.289 270.658 305.432 268.067C301.86 263.134 295.682 260.246 289.707 259.731C283.873 259.216 276.541 261.152 274.357 267.27C272.173 273.405 276.869 279.399 281.845 282.442C282.531 282.832 283.233 283.207 283.951 283.566Z" fill="white"/>
</mask>
<g mask="url(#mask21_480_4671)">
<path d="M273.405 278.509L273.125 277.432L307.991 268.379L308.271 269.471L273.405 278.509Z" fill="url(#paint63_linear_480_4671)"/>
</g>
<mask id="mask22_480_4671" style="mask-type:luminance" maskUnits="userSpaceOnUse" x="273" y="259" width="35" height="27">
<path d="M283.951 283.566C289.349 286.064 296.01 286.86 301.532 284.284C304.512 282.895 306.992 280.382 307.71 277.104C308.396 273.92 307.289 270.658 305.432 268.067C301.86 263.134 295.682 260.246 289.707 259.731C283.873 259.216 276.541 261.152 274.357 267.27C272.173 273.405 276.869 279.399 281.845 282.442C282.531 282.832 283.233 283.207 283.951 283.566Z" fill="white"/>
</mask>
<g mask="url(#mask22_480_4671)">
<path d="M266.354 271.844L265.496 268.504L300.362 259.45L301.22 262.806L266.354 271.844Z" fill="url(#paint64_linear_480_4671)"/>
</g>
<path d="M281.034 262.9C283.436 261.807 286.541 261.339 289.536 261.604C292.328 261.854 295.121 262.65 297.601 263.915C300.191 265.241 302.359 267.052 303.888 269.159C304.73 270.314 305.354 271.594 305.697 272.843C306.072 274.17 306.119 275.465 305.853 276.683C305.323 279.133 303.451 281.287 300.737 282.551C300.69 282.583 300.627 282.598 300.581 282.63C298.256 283.675 295.62 284.112 292.734 283.925C290.082 283.753 287.336 283.035 284.778 281.849C284.029 281.49 283.405 281.147 282.843 280.803C280.425 279.336 278.319 277.229 277.071 275.059C275.652 272.593 275.34 270.174 276.151 267.895C276.915 265.694 278.569 264.024 281.034 262.9ZM280.254 261.167C277.602 262.369 275.387 264.336 274.357 267.239C272.173 273.373 276.869 279.367 281.845 282.411C282.531 282.832 283.233 283.207 283.951 283.55C289.286 286.017 295.869 286.828 301.361 284.347C301.423 284.315 301.47 284.3 301.532 284.268C304.512 282.879 306.992 280.366 307.71 277.088C308.396 273.904 307.289 270.642 305.432 268.051C301.86 263.118 295.682 260.231 289.707 259.716C286.634 259.45 283.171 259.856 280.254 261.167Z" fill="url(#paint65_linear_480_4671)"/>
<path d="M49.0464 260.044C50.232 261.901 51.87 263.368 53.7732 264.305L53.7888 264.32C54.0228 264.43 54.2568 264.539 54.5064 264.633L60.1848 267.146C57.018 265.725 54.7872 262.806 53.664 259.544C51.3552 252.848 53.0868 245.246 56.628 239.331C57.1272 238.535 57.642 237.77 58.2036 237.036C62.1972 231.792 69.42 227.203 76.0812 229.981L70.0752 227.483C69.2796 227.14 68.4216 226.89 67.4856 226.734C60.138 225.564 53.6952 231.308 50.2164 237.161C49.7484 237.988 49.3116 238.815 48.9216 239.674C46.0824 245.902 45.2244 254.05 49.0464 260.044Z" fill="url(#paint66_linear_480_4671)"/>
<mask id="mask23_480_4671" style="mask-type:luminance" maskUnits="userSpaceOnUse" x="46" y="226" width="31" height="42">
<path d="M49.0464 260.044C50.232 261.901 51.87 263.368 53.7732 264.305L53.7888 264.32C54.0228 264.43 54.2568 264.539 54.5064 264.633L60.1848 267.146C57.018 265.725 54.7872 262.806 53.664 259.544C51.3552 252.848 53.0868 245.246 56.628 239.331C57.1272 238.535 57.642 237.77 58.2036 237.036C62.1972 231.792 69.42 227.203 76.0812 229.981L70.0752 227.483C69.2796 227.14 68.4216 226.89 67.4856 226.734C60.138 225.564 53.6952 231.308 50.2164 237.161C49.7484 237.988 49.3116 238.815 48.9216 239.674C46.0824 245.902 45.2244 254.05 49.0464 260.044Z" fill="white"/>
</mask>
<g mask="url(#mask23_480_4671)">
<path d="M41.4961 256.859L46.6597 243.467L61.8073 249.305L56.6593 262.697L41.4961 256.859Z" fill="url(#paint67_linear_480_4671)"/>
</g>
<mask id="mask24_480_4671" style="mask-type:luminance" maskUnits="userSpaceOnUse" x="46" y="226" width="31" height="42">
<path d="M49.0464 260.044C50.232 261.901 51.87 263.368 53.7732 264.305L53.7888 264.32C54.0228 264.43 54.2568 264.539 54.5064 264.633L60.1848 267.146C57.018 265.725 54.7872 262.806 53.664 259.544C51.3552 252.848 53.0868 245.246 56.628 239.331C57.1272 238.535 57.642 237.77 58.2036 237.036C62.1972 231.792 69.42 227.203 76.0812 229.981L70.0752 227.483C69.2796 227.14 68.4216 226.89 67.4856 226.734C60.138 225.564 53.6952 231.308 50.2164 237.161C49.7484 237.988 49.3116 238.815 48.9216 239.674C46.0824 245.902 45.2244 254.05 49.0464 260.044Z" fill="white"/>
</mask>
<g mask="url(#mask24_480_4671)">
<path d="M45.4585 237.77L50.1697 224.315L71.0893 231.651L66.3937 245.106L45.4585 237.77Z" fill="url(#paint68_linear_480_4671)"/>
</g>
<path d="M56.6281 239.331C53.0869 245.262 51.3553 252.848 53.6641 259.544C54.9121 263.15 57.5017 266.318 61.1989 267.551C64.7869 268.738 68.7025 267.864 71.9005 266.006C78.0313 262.479 82.1029 255.704 83.4289 248.868C84.7237 242.187 83.3977 233.477 76.5961 230.215C69.7789 226.937 62.2909 231.651 58.1881 237.02C57.6421 237.77 57.1273 238.55 56.6281 239.331Z" fill="url(#paint69_linear_480_4671)"/>
<mask id="mask25_480_4671" style="mask-type:luminance" maskUnits="userSpaceOnUse" x="52" y="229" width="32" height="40">
<path d="M56.6281 239.331C53.0869 245.262 51.3553 252.848 53.6641 259.544C54.9121 263.15 57.5017 266.318 61.1989 267.551C64.7869 268.738 68.7025 267.864 71.9005 266.006C78.0313 262.479 82.1029 255.704 83.4289 248.868C84.7237 242.187 83.3977 233.477 76.5961 230.215C69.7789 226.937 62.2909 231.651 58.1881 237.02C57.6421 237.77 57.1273 238.55 56.6281 239.331Z" fill="white"/>
</mask>
<g mask="url(#mask25_480_4671)">
<path d="M55.9263 232.135L62.1351 231.214L68.3283 272.593L62.1195 273.514L55.9263 232.135Z" fill="url(#paint70_linear_480_4671)"/>
</g>
<mask id="mask26_480_4671" style="mask-type:luminance" maskUnits="userSpaceOnUse" x="52" y="229" width="32" height="40">
<path d="M56.6281 239.331C53.0869 245.262 51.3553 252.848 53.6641 259.544C54.9121 263.15 57.5017 266.318 61.1989 267.551C64.7869 268.738 68.7025 267.864 71.9005 266.006C78.0313 262.479 82.1029 255.704 83.4289 248.868C84.7237 242.187 83.3977 233.477 76.5961 230.215C69.7789 226.937 62.2909 231.651 58.1881 237.02C57.6421 237.77 57.1273 238.55 56.6281 239.331Z" fill="white"/>
</mask>
<g mask="url(#mask26_480_4671)">
<path d="M63.7417 227.764L65.0365 227.577L71.2297 268.956L69.9349 269.144L63.7417 227.764Z" fill="url(#paint71_linear_480_4671)"/>
</g>
<mask id="mask27_480_4671" style="mask-type:luminance" maskUnits="userSpaceOnUse" x="52" y="229" width="32" height="40">
<path d="M56.6281 239.331C53.0869 245.262 51.3553 252.848 53.6641 259.544C54.9121 263.15 57.5017 266.318 61.1989 267.551C64.7869 268.738 68.7025 267.864 71.9005 266.006C78.0313 262.479 82.1029 255.704 83.4289 248.868C84.7237 242.187 83.3977 233.477 76.5961 230.215C69.7789 226.937 62.2909 231.651 58.1881 237.02C57.6421 237.77 57.1273 238.55 56.6281 239.331Z" fill="white"/>
</mask>
<g mask="url(#mask27_480_4671)">
<path d="M72.2905 220.428L76.2685 219.835L82.4617 261.214L78.4837 261.807L72.2905 220.428Z" fill="url(#paint72_linear_480_4671)"/>
</g>
<path d="M80.8236 238.472C81.7908 241.375 81.9468 245.012 81.2916 248.446C80.6676 251.646 79.404 254.768 77.6412 257.484C75.8004 260.309 73.4292 262.603 70.824 264.102C69.3888 264.929 67.8444 265.491 66.3624 265.741C64.7868 266.006 63.2892 265.912 61.9164 265.46C59.1396 264.554 56.9088 262.135 55.77 258.826C55.7544 258.764 55.7232 258.701 55.7076 258.639C54.7716 255.829 54.6 252.723 55.1616 249.414C55.692 246.37 56.8464 243.28 58.5312 240.47C59.0304 239.658 59.514 238.972 59.9664 238.363C61.9632 235.756 64.6308 233.571 67.2984 232.385C70.3248 231.042 73.1328 230.98 75.6756 232.197C78.1092 233.368 79.8408 235.491 80.8236 238.472ZM82.914 237.785C81.8532 234.57 79.8564 231.776 76.6116 230.231C69.7944 226.953 62.3064 231.667 58.2036 237.036C57.642 237.77 57.1272 238.55 56.628 239.331C53.1336 245.2 51.402 252.692 53.6016 259.341C53.6328 259.419 53.6484 259.482 53.6796 259.56C54.9276 263.165 57.5172 266.334 61.2144 267.567C64.8024 268.753 68.718 267.879 71.916 266.022C78.0468 262.494 82.1184 255.72 83.4444 248.883C84.1308 245.371 84.084 241.313 82.914 237.785Z" fill="url(#paint73_linear_480_4671)"/>
<path d="M292.765 141.338C290.596 141.682 288.397 141.448 286.431 140.636L286.416 140.62C286.182 140.527 285.932 140.417 285.714 140.292L280.066 137.717C283.233 139.137 286.884 138.872 290.082 137.545C296.618 134.829 301.142 128.492 303.232 121.905C303.498 121.016 303.732 120.11 303.903 119.205C305.167 112.727 303.81 104.283 297.304 101.146L303.17 103.971C303.95 104.345 304.714 104.814 305.448 105.422C311.204 110.136 311.173 118.768 309.114 125.277C308.817 126.166 308.474 127.056 308.1 127.915C305.307 134.158 299.8 140.214 292.765 141.338Z" fill="url(#paint74_linear_480_4671)"/>
<mask id="mask28_480_4671" style="mask-type:luminance" maskUnits="userSpaceOnUse" x="280" y="101" width="31" height="41">
<path d="M292.765 141.338C290.596 141.682 288.397 141.448 286.431 140.636L286.416 140.62C286.182 140.527 285.932 140.417 285.714 140.292L280.066 137.717C283.233 139.137 286.884 138.872 290.082 137.545C296.618 134.829 301.142 128.492 303.232 121.905C303.498 121.016 303.732 120.11 303.903 119.205C305.167 112.727 303.81 104.283 297.304 101.146L303.17 103.971C303.95 104.345 304.714 104.814 305.448 105.422C311.204 110.136 311.173 118.768 309.114 125.277C308.817 126.166 308.474 127.056 308.1 127.915C305.307 134.158 299.8 140.214 292.765 141.338Z" fill="white"/>
</mask>
<g mask="url(#mask28_480_4671)">
<path d="M300.175 144.866L306.758 132.114L292.328 124.652L285.745 137.405L300.175 144.866Z" fill="url(#paint75_linear_480_4671)"/>
</g>
<mask id="mask29_480_4671" style="mask-type:luminance" maskUnits="userSpaceOnUse" x="280" y="101" width="31" height="41">
<path d="M292.765 141.338C290.596 141.682 288.397 141.448 286.431 140.636L286.416 140.62C286.182 140.527 285.932 140.417 285.714 140.292L280.066 137.717C283.233 139.137 286.884 138.872 290.082 137.545C296.618 134.829 301.142 128.492 303.232 121.905C303.498 121.016 303.732 120.11 303.903 119.205C305.167 112.727 303.81 104.283 297.304 101.146L303.17 103.971C303.95 104.345 304.714 104.814 305.448 105.422C311.204 110.136 311.173 118.768 309.114 125.277C308.817 126.166 308.474 127.056 308.1 127.915C305.307 134.158 299.8 140.214 292.765 141.338Z" fill="white"/>
</mask>
<g mask="url(#mask29_480_4671)">
<path d="M311.797 129.241L318.723 116.786L299.363 105.984L292.437 118.44L311.797 129.241Z" fill="url(#paint76_linear_480_4671)"/>
</g>
<path d="M303.217 121.905C301.127 128.492 296.603 134.829 290.066 137.545C286.541 139.013 282.453 139.169 279.084 137.218C275.808 135.313 273.873 131.817 273.125 128.18C271.689 121.25 274.045 113.695 278.288 108.169C282.422 102.769 289.817 97.9925 296.759 100.896C303.732 103.815 305.183 112.556 303.888 119.189C303.716 120.126 303.482 121.016 303.217 121.905Z" fill="url(#paint77_linear_480_4671)"/>
<mask id="mask30_480_4671" style="mask-type:luminance" maskUnits="userSpaceOnUse" x="272" y="100" width="33" height="39">
<path d="M303.217 121.905C301.127 128.492 296.603 134.829 290.066 137.545C286.541 139.013 282.453 139.169 279.084 137.218C275.808 135.313 273.873 131.817 273.125 128.18C271.689 121.25 274.045 113.695 278.288 108.169C282.422 102.769 289.817 97.9925 296.759 100.896C303.732 103.815 305.183 112.556 303.888 119.189C303.716 120.126 303.482 121.016 303.217 121.905Z" fill="white"/>
</mask>
<g mask="url(#mask30_480_4671)">
<path d="M309.051 117.66L305.635 112.415L270.597 135.235L274.029 140.495L309.051 117.66Z" fill="url(#paint78_linear_480_4671)"/>
</g>
<mask id="mask31_480_4671" style="mask-type:luminance" maskUnits="userSpaceOnUse" x="272" y="100" width="33" height="39">
<path d="M303.217 121.905C301.127 128.492 296.603 134.829 290.066 137.545C286.541 139.013 282.453 139.169 279.084 137.218C275.808 135.313 273.873 131.817 273.125 128.18C271.689 121.25 274.045 113.695 278.288 108.169C282.422 102.769 289.817 97.9925 296.759 100.896C303.732 103.815 305.183 112.556 303.888 119.189C303.716 120.126 303.482 121.016 303.217 121.905Z" fill="white"/>
</mask>
<g mask="url(#mask31_480_4671)">
<path d="M307.133 108.919L306.431 107.826L271.393 130.662L272.111 131.754L307.133 108.919Z" fill="url(#paint79_linear_480_4671)"/>
</g>
<mask id="mask32_480_4671" style="mask-type:luminance" maskUnits="userSpaceOnUse" x="272" y="100" width="33" height="39">
<path d="M303.217 121.905C301.127 128.492 296.603 134.829 290.066 137.545C286.541 139.013 282.453 139.169 279.084 137.218C275.808 135.313 273.873 131.817 273.125 128.18C271.689 121.25 274.045 113.695 278.288 108.169C282.422 102.769 289.817 97.9925 296.759 100.896C303.732 103.815 305.183 112.556 303.888 119.189C303.716 120.126 303.482 121.016 303.217 121.905Z" fill="white"/>
</mask>
<g mask="url(#mask32_480_4671)">
<path d="M306.945 97.6491L304.761 94.2776L269.724 117.113L271.908 120.485L306.945 97.6491Z" fill="url(#paint80_linear_480_4671)"/>
</g>
<path d="M287.804 103.237C290.69 101.988 293.42 101.895 295.916 102.94C298.506 104.033 300.331 106.187 301.345 109.34C302.234 112.119 302.375 115.568 301.751 118.799C301.61 119.548 301.407 120.36 301.127 121.281C300.128 124.403 298.599 127.322 296.681 129.741C294.59 132.363 292.141 134.283 289.427 135.469C289.364 135.501 289.302 135.516 289.239 135.547C286.026 136.89 282.719 136.812 280.207 135.344C278.959 134.626 277.898 133.565 277.04 132.207C276.245 130.927 275.636 129.397 275.293 127.774C274.685 124.808 274.825 121.531 275.714 118.268C276.557 115.147 278.054 112.134 280.035 109.543C282.157 106.733 284.981 104.439 287.804 103.237ZM286.931 101.208C283.514 102.675 280.457 105.344 278.288 108.169C274.061 113.711 271.689 121.25 273.125 128.18C273.873 131.801 275.808 135.313 279.084 137.218C282.453 139.184 286.541 139.013 290.066 137.545C290.129 137.514 290.207 137.483 290.269 137.452C296.696 134.689 301.142 128.414 303.217 121.905C303.482 121.016 303.716 120.11 303.888 119.205C305.183 112.556 303.732 103.83 296.759 100.911C293.451 99.5222 290.035 99.8812 286.931 101.208Z" fill="url(#paint81_linear_480_4671)"/>
<defs>
<linearGradient id="paint0_linear_480_4671" x1="112.578" y1="150.968" x2="145.862" y2="117.702" gradientUnits="userSpaceOnUse">
<stop stop-color="#EF8578"/>
<stop offset="0.0969191" stop-color="#E78279"/>
<stop offset="0.2512" stop-color="#CF797D"/>
<stop offset="0.4434" stop-color="#AA6B82"/>
<stop offset="0.6662" stop-color="#76588A"/>
<stop offset="0.9119" stop-color="#343F93"/>
<stop offset="1" stop-color="#1A3697"/>
</linearGradient>
<linearGradient id="paint1_linear_480_4671" x1="130.499" y1="139.25" x2="115.262" y2="151.138" gradientUnits="userSpaceOnUse">
<stop offset="0.00529101" stop-color="#EF8179"/>
<stop offset="1" stop-color="#705289"/>
</linearGradient>
<linearGradient id="paint2_linear_480_4671" x1="146.809" y1="127.085" x2="133.03" y2="137.251" gradientUnits="userSpaceOnUse">
<stop stop-color="#F8D776"/>
<stop offset="1" stop-color="#705289"/>
</linearGradient>
<linearGradient id="paint3_linear_480_4671" x1="104.693" y1="142.429" x2="137.682" y2="109.459" gradientUnits="userSpaceOnUse">
<stop stop-color="#FEBB77"/>
<stop offset="1" stop-color="#F8D776"/>
</linearGradient>
<linearGradient id="paint4_linear_480_4671" x1="130.73" y1="118.097" x2="107.764" y2="149.977" gradientUnits="userSpaceOnUse">
<stop stop-color="#FCDF8C"/>
<stop offset="1" stop-color="#FDECBA"/>
</linearGradient>
<linearGradient id="paint5_linear_480_4671" x1="135.009" y1="121.646" x2="134.51" y2="132.967" gradientUnits="userSpaceOnUse">
<stop stop-color="#FCDF8C"/>
<stop offset="1" stop-color="#FDECBA"/>
</linearGradient>
<linearGradient id="paint6_linear_480_4671" x1="138.85" y1="102.178" x2="126.953" y2="129.678" gradientUnits="userSpaceOnUse">
<stop stop-color="#FCDF8C"/>
<stop offset="1" stop-color="#FDECBA"/>
</linearGradient>
<linearGradient id="paint7_linear_480_4671" x1="138.613" y1="110.403" x2="103.728" y2="141.448" gradientUnits="userSpaceOnUse">
<stop stop-color="#FCDF8C"/>
<stop offset="1" stop-color="#FDECBA"/>
</linearGradient>
<linearGradient id="paint8_linear_480_4671" x1="121.538" y1="154.473" x2="252.324" y2="154.473" gradientUnits="userSpaceOnUse">
<stop/>
<stop offset="1" stop-color="#00003A"/>
</linearGradient>
<linearGradient id="paint9_linear_480_4671" x1="141.559" y1="199.871" x2="232.355" y2="109.126" gradientUnits="userSpaceOnUse">
<stop/>
<stop offset="1" stop-color="#F1930A"/>
</linearGradient>
<linearGradient id="paint10_linear_480_4671" x1="141.559" y1="199.871" x2="232.355" y2="109.126" gradientUnits="userSpaceOnUse">
<stop stop-color="#02052A"/>
<stop offset="1" stop-color="#1E48AA"/>
</linearGradient>
<linearGradient id="paint11_linear_480_4671" x1="152.301" y1="85.3295" x2="150.058" y2="83.0872" gradientUnits="userSpaceOnUse">
<stop stop-color="#02052A"/>
<stop offset="1" stop-color="#020321"/>
</linearGradient>
<linearGradient id="paint12_linear_480_4671" x1="165.568" y1="83.6753" x2="154.749" y2="80.5529" gradientUnits="userSpaceOnUse">
<stop stop-color="#02052A"/>
<stop offset="1" stop-color="#020321"/>
</linearGradient>
<linearGradient id="paint13_linear_480_4671" x1="177.873" y1="217.771" x2="183.025" y2="206.265" gradientUnits="userSpaceOnUse">
<stop offset="1.4e-07" stop-color="#EE9957"/>
<stop offset="1" stop-color="#F8D776"/>
</linearGradient>
<linearGradient id="paint14_linear_480_4671" x1="186.198" y1="214.592" x2="191.35" y2="203.086" gradientUnits="userSpaceOnUse">
<stop offset="1.4e-07" stop-color="#EE9957"/>
<stop offset="1" stop-color="#F8D776"/>
</linearGradient>
<linearGradient id="paint15_linear_480_4671" x1="183.02" y1="206.263" x2="188.172" y2="194.757" gradientUnits="userSpaceOnUse">
<stop offset="1.4e-07" stop-color="#EE9957"/>
<stop offset="1" stop-color="#F8D776"/>
</linearGradient>
<linearGradient id="paint16_linear_480_4671" x1="194.522" y1="211.413" x2="199.674" y2="199.907" gradientUnits="userSpaceOnUse">
<stop offset="1.4e-07" stop-color="#EE9957"/>
<stop offset="1" stop-color="#F8D776"/>
</linearGradient>
<linearGradient id="paint17_linear_480_4671" x1="165.165" y1="184.454" x2="176.669" y2="189.6" gradientUnits="userSpaceOnUse">
<stop stop-color="#1569C1"/>
<stop offset="1" stop-color="#272994"/>
</linearGradient>
<linearGradient id="paint18_linear_480_4671" x1="168.342" y1="192.784" x2="179.846" y2="197.929" gradientUnits="userSpaceOnUse">
<stop stop-color="#1569C1"/>
<stop offset="1" stop-color="#272994"/>
</linearGradient>
<linearGradient id="paint19_linear_480_4671" x1="161.988" y1="176.125" x2="173.492" y2="181.27" gradientUnits="userSpaceOnUse">
<stop stop-color="#1569C1"/>
<stop offset="1" stop-color="#272994"/>
</linearGradient>
<linearGradient id="paint20_linear_480_4671" x1="171.519" y1="201.113" x2="183.023" y2="206.258" gradientUnits="userSpaceOnUse">
<stop stop-color="#1569C1"/>
<stop offset="1" stop-color="#272994"/>
</linearGradient>
<linearGradient id="paint21_linear_480_4671" x1="199.669" y1="199.905" x2="211.173" y2="205.051" gradientUnits="userSpaceOnUse">
<stop stop-color="#1569C1"/>
<stop offset="1" stop-color="#272994"/>
</linearGradient>
<linearGradient id="paint22_linear_480_4671" x1="196.492" y1="191.576" x2="207.996" y2="196.721" gradientUnits="userSpaceOnUse">
<stop stop-color="#1569C1"/>
<stop offset="1" stop-color="#272994"/>
</linearGradient>
<linearGradient id="paint23_linear_480_4671" x1="188.168" y1="194.755" x2="199.671" y2="199.9" gradientUnits="userSpaceOnUse">
<stop stop-color="#1569C1"/>
<stop offset="1" stop-color="#272994"/>
</linearGradient>
<linearGradient id="paint24_linear_480_4671" x1="207.994" y1="196.727" x2="219.497" y2="201.872" gradientUnits="userSpaceOnUse">
<stop stop-color="#1569C1"/>
<stop offset="1" stop-color="#272994"/>
</linearGradient>
<linearGradient id="paint25_linear_480_4671" x1="186.784" y1="169.597" x2="191.936" y2="158.091" gradientUnits="userSpaceOnUse">
<stop offset="1.4e-07" stop-color="#EE9957"/>
<stop offset="1" stop-color="#F8D776"/>
</linearGradient>
<linearGradient id="paint26_linear_480_4671" x1="178.459" y1="172.776" x2="183.611" y2="161.27" gradientUnits="userSpaceOnUse">
<stop offset="1.4e-07" stop-color="#EE9957"/>
<stop offset="1" stop-color="#F8D776"/>
</linearGradient>
<linearGradient id="paint27_linear_480_4671" x1="183.607" y1="161.268" x2="188.759" y2="149.762" gradientUnits="userSpaceOnUse">
<stop offset="1.4e-07" stop-color="#EE9957"/>
<stop offset="1" stop-color="#F8D776"/>
</linearGradient>
<linearGradient id="paint28_linear_480_4671" x1="175.282" y1="164.447" x2="180.434" y2="152.941" gradientUnits="userSpaceOnUse">
<stop offset="1.4e-07" stop-color="#EE9957"/>
<stop offset="1" stop-color="#F8D776"/>
</linearGradient>
<linearGradient id="paint29_linear_480_4671" x1="206.339" y1="171.016" x2="217.843" y2="176.161" gradientUnits="userSpaceOnUse">
<stop stop-color="#1569C1"/>
<stop offset="1" stop-color="#272994"/>
</linearGradient>
<linearGradient id="paint30_linear_480_4671" x1="211.486" y1="159.508" x2="222.99" y2="164.653" gradientUnits="userSpaceOnUse">
<stop stop-color="#1569C1"/>
<stop offset="1" stop-color="#272994"/>
</linearGradient>
<linearGradient id="paint31_linear_480_4671" x1="214.663" y1="167.837" x2="226.167" y2="172.982" gradientUnits="userSpaceOnUse">
<stop stop-color="#1569C1"/>
<stop offset="1" stop-color="#272994"/>
</linearGradient>
<linearGradient id="paint32_linear_480_4671" x1="217.84" y1="176.166" x2="229.344" y2="181.311" gradientUnits="userSpaceOnUse">
<stop stop-color="#1569C1"/>
<stop offset="1" stop-color="#272994"/>
</linearGradient>
<linearGradient id="paint33_linear_480_4671" x1="184.66" y1="85.5574" x2="166.899" y2="131.989" gradientUnits="userSpaceOnUse">
<stop stop-color="#F6C22A"/>
<stop offset="1" stop-color="#F1930A"/>
</linearGradient>
<linearGradient id="paint34_linear_480_4671" x1="156.551" y1="117.645" x2="149.958" y2="106.233" gradientUnits="userSpaceOnUse">
<stop offset="1.5e-07" stop-color="white"/>
<stop offset="1" stop-color="#4BB6EC"/>
</linearGradient>
<linearGradient id="paint35_linear_480_4671" x1="166.243" y1="115.005" x2="159.244" y2="102.889" gradientUnits="userSpaceOnUse">
<stop offset="1.5e-07" stop-color="white"/>
<stop offset="1" stop-color="#4BB6EC"/>
</linearGradient>
<linearGradient id="paint36_linear_480_4671" x1="176.825" y1="111.368" x2="169.822" y2="99.2459" gradientUnits="userSpaceOnUse">
<stop offset="1.5e-07" stop-color="white"/>
<stop offset="1" stop-color="#4BB6EC"/>
</linearGradient>
<linearGradient id="paint37_linear_480_4671" x1="189.032" y1="105.567" x2="182.071" y2="93.5166" gradientUnits="userSpaceOnUse">
<stop offset="1.5e-07" stop-color="white"/>
<stop offset="1" stop-color="#4BB6EC"/>
</linearGradient>
<linearGradient id="paint38_linear_480_4671" x1="89.6213" y1="390.796" x2="266.869" y2="213.649" gradientUnits="userSpaceOnUse">
<stop stop-color="white"/>
<stop offset="1" stop-color="#F17F0A"/>
</linearGradient>
<linearGradient id="paint39_linear_480_4671" x1="199.393" y1="260.163" x2="240.703" y2="218.876" gradientUnits="userSpaceOnUse">
<stop stop-color="#08499F"/>
<stop offset="1" stop-color="#F17F0A"/>
</linearGradient>
<linearGradient id="paint40_linear_480_4671" x1="176.241" y1="419.659" x2="270.091" y2="325.862" gradientUnits="userSpaceOnUse">
<stop stop-color="#F6C22A"/>
<stop offset="1" stop-color="#E31B41"/>
</linearGradient>
<linearGradient id="paint41_linear_480_4671" x1="246.593" y1="234.257" x2="267.787" y2="213.075" gradientUnits="userSpaceOnUse">
<stop stop-color="#F17F0A"/>
<stop offset="1" stop-color="#08499F"/>
</linearGradient>
<linearGradient id="paint42_linear_480_4671" x1="137.4" y1="181.328" x2="150.957" y2="167.779" gradientUnits="userSpaceOnUse">
<stop stop-color="#F17F0A"/>
<stop offset="1" stop-color="#08499F"/>
</linearGradient>
<linearGradient id="paint43_linear_480_4671" x1="187.857" y1="277.438" x2="210.518" y2="254.79" gradientUnits="userSpaceOnUse">
<stop stop-color="#08499F"/>
<stop offset="1" stop-color="#F17F0A"/>
</linearGradient>
<linearGradient id="paint44_linear_480_4671" x1="219.231" y1="313.651" x2="224.726" y2="308.159" gradientUnits="userSpaceOnUse">
<stop stop-color="#F17F0A"/>
<stop offset="1" stop-color="#08499F"/>
</linearGradient>
<linearGradient id="paint45_linear_480_4671" x1="175.644" y1="301.33" x2="185.341" y2="291.639" gradientUnits="userSpaceOnUse">
<stop stop-color="#F17F0A"/>
<stop offset="1" stop-color="#08499F"/>
</linearGradient>
<linearGradient id="paint46_linear_480_4671" x1="158.767" y1="226.537" x2="180.08" y2="205.235" gradientUnits="userSpaceOnUse">
<stop stop-color="#F17F0A"/>
<stop offset="1" stop-color="#08499F"/>
</linearGradient>
<linearGradient id="paint47_linear_480_4671" x1="243.706" y1="200.628" x2="259.306" y2="185.037" gradientUnits="userSpaceOnUse">
<stop stop-color="white"/>
<stop offset="1" stop-color="#F17F0A"/>
</linearGradient>
<linearGradient id="paint48_linear_480_4671" x1="230.847" y1="161.271" x2="251.652" y2="149.266" gradientUnits="userSpaceOnUse">
<stop stop-color="#F17F0A"/>
<stop offset="1" stop-color="white"/>
</linearGradient>
<linearGradient id="paint49_linear_480_4671" x1="259.38" y1="231.111" x2="271.555" y2="210.036" gradientUnits="userSpaceOnUse">
<stop stop-color="white"/>
<stop offset="1" stop-color="#F17F0A"/>
</linearGradient>
<linearGradient id="paint50_linear_480_4671" x1="77.6" y1="78.8502" x2="95.3217" y2="61.1385" gradientUnits="userSpaceOnUse">
<stop stop-color="#EF8578"/>
<stop offset="0.0969191" stop-color="#E78279"/>
<stop offset="0.2512" stop-color="#CF797D"/>
<stop offset="0.4434" stop-color="#AA6B82"/>
<stop offset="0.6662" stop-color="#76588A"/>
<stop offset="0.9119" stop-color="#343F93"/>
<stop offset="1" stop-color="#1A3697"/>
</linearGradient>
<linearGradient id="paint51_linear_480_4671" x1="86.5869" y1="76.218" x2="99.5961" y2="79.5076" gradientUnits="userSpaceOnUse">
<stop offset="0.00529101" stop-color="#EF8179"/>
<stop offset="1" stop-color="#705289"/>
</linearGradient>
<linearGradient id="paint52_linear_480_4671" x1="72.8203" y1="73.0545" x2="84.4196" y2="75.659" gradientUnits="userSpaceOnUse">
<stop stop-color="#F8D776"/>
<stop offset="1" stop-color="#705289"/>
</linearGradient>
<linearGradient id="paint53_linear_480_4671" x1="79.6917" y1="74.2287" x2="97.881" y2="56.0497" gradientUnits="userSpaceOnUse">
<stop stop-color="#FEBB77"/>
<stop offset="1" stop-color="#F8D776"/>
</linearGradient>
<linearGradient id="paint54_linear_480_4671" x1="80.5222" y1="62.8404" x2="104.037" y2="76.6668" gradientUnits="userSpaceOnUse">
<stop stop-color="#FCDF8C"/>
<stop offset="1" stop-color="#FDECBA"/>
</linearGradient>
<linearGradient id="paint55_linear_480_4671" x1="78.7944" y1="66.2953" x2="82.2815" y2="73.3488" gradientUnits="userSpaceOnUse">
<stop stop-color="#FCDF8C"/>
<stop offset="1" stop-color="#FDECBA"/>
</linearGradient>
<linearGradient id="paint56_linear_480_4671" x1="70.9091" y1="54.9984" x2="86.1658" y2="69.1395" gradientUnits="userSpaceOnUse">
<stop stop-color="#FCDF8C"/>
<stop offset="1" stop-color="#FDECBA"/>
</linearGradient>
<linearGradient id="paint57_linear_480_4671" x1="73.3619" y1="60.1577" x2="104.213" y2="70.124" gradientUnits="userSpaceOnUse">
<stop stop-color="#FCDF8C"/>
<stop offset="1" stop-color="#FDECBA"/>
</linearGradient>
<linearGradient id="paint58_linear_480_4671" x1="278.855" y1="287.441" x2="297.885" y2="268.422" gradientUnits="userSpaceOnUse">
<stop stop-color="#EF8578"/>
<stop offset="0.0969191" stop-color="#E78279"/>
<stop offset="0.2512" stop-color="#CF797D"/>
<stop offset="0.4434" stop-color="#AA6B82"/>
<stop offset="0.6662" stop-color="#76588A"/>
<stop offset="0.9119" stop-color="#343F93"/>
<stop offset="1" stop-color="#1A3697"/>
</linearGradient>
<linearGradient id="paint59_linear_480_4671" x1="288.506" y1="284.614" x2="302.475" y2="288.147" gradientUnits="userSpaceOnUse">
<stop offset="0.00529101" stop-color="#EF8179"/>
<stop offset="1" stop-color="#705289"/>
</linearGradient>
<linearGradient id="paint60_linear_480_4671" x1="273.723" y1="281.217" x2="286.179" y2="284.014" gradientUnits="userSpaceOnUse">
<stop stop-color="#F8D776"/>
<stop offset="1" stop-color="#705289"/>
</linearGradient>
<linearGradient id="paint61_linear_480_4671" x1="281.102" y1="282.478" x2="300.634" y2="262.957" gradientUnits="userSpaceOnUse">
<stop stop-color="#FEBB77"/>
<stop offset="1" stop-color="#F8D776"/>
</linearGradient>
<linearGradient id="paint62_linear_480_4671" x1="281.994" y1="270.249" x2="307.244" y2="285.096" gradientUnits="userSpaceOnUse">
<stop stop-color="#FCDF8C"/>
<stop offset="1" stop-color="#FDECBA"/>
</linearGradient>
<linearGradient id="paint63_linear_480_4671" x1="280.138" y1="273.959" x2="283.882" y2="281.533" gradientUnits="userSpaceOnUse">
<stop stop-color="#FCDF8C"/>
<stop offset="1" stop-color="#FDECBA"/>
</linearGradient>
<linearGradient id="paint64_linear_480_4671" x1="271.671" y1="261.829" x2="288.053" y2="277.013" gradientUnits="userSpaceOnUse">
<stop stop-color="#FCDF8C"/>
<stop offset="1" stop-color="#FDECBA"/>
</linearGradient>
<linearGradient id="paint65_linear_480_4671" x1="274.305" y1="267.369" x2="307.433" y2="278.07" gradientUnits="userSpaceOnUse">
<stop stop-color="#FCDF8C"/>
<stop offset="1" stop-color="#FDECBA"/>
</linearGradient>
<linearGradient id="paint66_linear_480_4671" x1="47.6914" y1="259.093" x2="76.4533" y2="230.347" gradientUnits="userSpaceOnUse">
<stop stop-color="#EF8578"/>
<stop offset="0.0969191" stop-color="#E78279"/>
<stop offset="0.2512" stop-color="#CF797D"/>
<stop offset="0.4434" stop-color="#AA6B82"/>
<stop offset="0.6662" stop-color="#76588A"/>
<stop offset="0.9119" stop-color="#343F93"/>
<stop offset="1" stop-color="#1A3697"/>
</linearGradient>
<linearGradient id="paint67_linear_480_4671" x1="54.8679" y1="244.464" x2="49.0838" y2="260.167" gradientUnits="userSpaceOnUse">
<stop offset="0.00529101" stop-color="#EF8179"/>
<stop offset="1" stop-color="#705289"/>
</linearGradient>
<linearGradient id="paint68_linear_480_4671" x1="60.5847" y1="227.803" x2="55.8349" y2="241.846" gradientUnits="userSpaceOnUse">
<stop stop-color="#F8D776"/>
<stop offset="1" stop-color="#705289"/>
</linearGradient>
<linearGradient id="paint69_linear_480_4671" x1="54.5017" y1="262.448" x2="82.1353" y2="234.83" gradientUnits="userSpaceOnUse">
<stop stop-color="#FEBB77"/>
<stop offset="1" stop-color="#F8D776"/>
</linearGradient>
<linearGradient id="paint70_linear_480_4671" x1="72.2339" y1="238.69" x2="52.0048" y2="266.029" gradientUnits="userSpaceOnUse">
<stop stop-color="#FCDF8C"/>
<stop offset="1" stop-color="#FDECBA"/>
</linearGradient>
<linearGradient id="paint71_linear_480_4671" x1="68.1794" y1="236.096" x2="58.9823" y2="239.493" gradientUnits="userSpaceOnUse">
<stop stop-color="#FCDF8C"/>
<stop offset="1" stop-color="#FDECBA"/>
</linearGradient>
<linearGradient id="paint72_linear_480_4671" x1="83.2042" y1="227.79" x2="63.6733" y2="244.843" gradientUnits="userSpaceOnUse">
<stop stop-color="#FCDF8C"/>
<stop offset="1" stop-color="#FDECBA"/>
</linearGradient>
<linearGradient id="paint73_linear_480_4671" x1="76.4922" y1="230.158" x2="60.0883" y2="267.11" gradientUnits="userSpaceOnUse">
<stop stop-color="#FCDF8C"/>
<stop offset="1" stop-color="#FDECBA"/>
</linearGradient>
<linearGradient id="paint74_linear_480_4671" x1="280.43" y1="138.094" x2="309.313" y2="109.227" gradientUnits="userSpaceOnUse">
<stop stop-color="#EF8578"/>
<stop offset="0.0969191" stop-color="#E78279"/>
<stop offset="0.2512" stop-color="#CF797D"/>
<stop offset="0.4434" stop-color="#AA6B82"/>
<stop offset="0.6662" stop-color="#76588A"/>
<stop offset="0.9119" stop-color="#343F93"/>
<stop offset="1" stop-color="#1A3697"/>
</linearGradient>
<linearGradient id="paint75_linear_480_4671" x1="300.551" y1="126.639" x2="292.643" y2="141.385" gradientUnits="userSpaceOnUse">
<stop offset="0.00529101" stop-color="#EF8179"/>
<stop offset="1" stop-color="#705289"/>
</linearGradient>
<linearGradient id="paint76_linear_480_4671" x1="309.211" y1="111.3" x2="301.856" y2="124.171" gradientUnits="userSpaceOnUse">
<stop stop-color="#F8D776"/>
<stop offset="1" stop-color="#705289"/>
</linearGradient>
<linearGradient id="paint77_linear_480_4671" x1="274.648" y1="133.284" x2="302.478" y2="105.471" gradientUnits="userSpaceOnUse">
<stop stop-color="#FEBB77"/>
<stop offset="1" stop-color="#F8D776"/>
</linearGradient>
<linearGradient id="paint78_linear_480_4671" x1="293.339" y1="109.811" x2="286.31" y2="143.091" gradientUnits="userSpaceOnUse">
<stop stop-color="#FCDF8C"/>
<stop offset="1" stop-color="#FDECBA"/>
</linearGradient>
<linearGradient id="paint79_linear_480_4671" x1="297.969" y1="111.124" x2="301.536" y2="120.259" gradientUnits="userSpaceOnUse">
<stop stop-color="#FCDF8C"/>
<stop offset="1" stop-color="#FDECBA"/>
</linearGradient>
<linearGradient id="paint80_linear_480_4671" x1="294.204" y1="94.3659" x2="294.409" y2="120.301" gradientUnits="userSpaceOnUse">
<stop stop-color="#FCDF8C"/>
<stop offset="1" stop-color="#FDECBA"/>
</linearGradient>
<linearGradient id="paint81_linear_480_4671" x1="296.892" y1="100.961" x2="280.128" y2="137.751" gradientUnits="userSpaceOnUse">
<stop stop-color="#FCDF8C"/>
<stop offset="1" stop-color="#FDECBA"/>
</linearGradient>
</defs>
</svg>
