<svg width="412" height="337" viewBox="0 0 412 337" fill="none" xmlns="http://www.w3.org/2000/svg">
<g clip-path="url(#clip0_480_4879)">
<mask id="mask0_480_4879" style="mask-type:luminance" maskUnits="userSpaceOnUse" x="-50" y="0" width="511" height="340">
<path d="M460.667 0H-49.3333V340H460.667V0Z" fill="white"/>
</mask>
<g mask="url(#mask0_480_4879)">
<path d="M76.6368 166.685C76.6368 166.515 76.7218 166.345 76.9768 166.345L82.6718 166.515C83.2668 166.515 83.6918 166.6 84.1168 166.77C84.5418 166.94 84.7968 167.11 85.0518 167.365C85.3068 167.62 85.4768 167.96 85.5618 168.3C85.6468 168.64 85.7318 169.065 85.7318 169.575L85.6468 171.105C85.6468 171.53 85.5618 171.955 85.4768 172.38C85.3918 172.72 85.1368 173.06 84.8818 173.315C84.6268 173.57 84.2868 173.74 83.8618 173.91C83.4368 174.08 83.0118 174.08 82.4168 174.08L79.3568 173.995L78.7618 172.21H78.6768L78.5918 173.995L76.4668 173.91L76.6368 166.685ZM78.6768 172.04L82.3318 172.125C82.7568 172.125 83.0118 172.04 83.1818 171.87C83.3518 171.7 83.4368 171.36 83.4368 170.935V169.66C83.4368 169.15 83.3518 168.895 83.1818 168.725C83.0118 168.555 82.7568 168.47 82.3318 168.47L78.8468 168.385C78.7618 168.385 78.7618 168.385 78.7618 168.47L78.6768 168.555V172.04Z" fill="#F1F1F4"/>
<path d="M88.7068 169.915L88.5368 172.21C88.5368 172.295 88.6218 172.38 88.7068 172.38L95.0818 172.55L94.9968 174.505L86.6668 174.25C86.4968 174.25 86.3268 174.165 86.4118 173.91L86.5818 166.94C86.5818 166.77 86.6668 166.6 86.9218 166.6L95.0818 166.855C95.2518 166.855 95.4218 166.94 95.4218 167.195L95.3368 169.15L93.2968 169.83H93.2118V168.81C93.2118 168.725 93.2118 168.725 93.1268 168.725L88.7918 168.555C88.7068 168.555 88.7068 168.555 88.7068 168.64V168.725V169.66L92.2768 169.745L92.1918 171.275L89.2168 171.19L88.7068 169.915Z" fill="#F1F1F4"/>
<path d="M102.987 169.83L102.902 168.98C102.902 168.895 102.902 168.895 102.817 168.81L98.8219 168.725C98.6519 168.725 98.5669 168.725 98.4819 168.81C98.3969 168.895 98.3969 168.98 98.3969 169.065V169.235C98.3969 169.405 98.3969 169.49 98.4819 169.49C98.5669 169.575 98.6519 169.575 98.7369 169.575L103.412 170.34C103.752 170.425 103.922 170.425 104.177 170.595C104.347 170.68 104.517 170.85 104.687 170.935C104.857 171.105 104.942 171.275 104.942 171.445C105.027 171.615 105.027 171.87 105.027 172.21V172.805C105.027 173.145 104.942 173.4 104.857 173.655C104.772 173.91 104.602 174.08 104.432 174.25C104.262 174.42 104.007 174.505 103.752 174.59C103.497 174.675 103.072 174.675 102.732 174.675L95.9319 174.505L96.0169 172.55L102.052 172.72C102.222 172.72 102.392 172.72 102.392 172.635C102.477 172.55 102.477 172.465 102.477 172.295V172.125C102.477 171.955 102.477 171.87 102.392 171.87C102.307 171.785 102.222 171.785 102.137 171.785L97.6319 171.105C97.2919 171.02 97.0369 171.02 96.8669 170.935C96.6119 170.85 96.4419 170.765 96.3569 170.595C96.1869 170.425 96.1019 170.255 96.1019 170.085C96.0169 169.915 96.0169 169.66 96.0169 169.32V168.81C96.0169 168.3 96.1869 167.875 96.5269 167.535C96.8669 167.28 97.2919 167.11 97.9719 167.11L104.687 167.28C104.942 167.28 105.027 167.365 105.027 167.62L104.942 169.15L102.987 169.83Z" fill="#F1F1F4"/>
<path d="M105.877 174.845L106.132 167.28L108.257 167.365L108.002 174.93L105.877 174.845Z" fill="#F1F1F4"/>
<path d="M115.992 171.87C115.992 171.785 115.992 171.615 115.992 171.53C115.992 171.445 115.992 171.275 115.992 171.19V171.105L118.117 171.19L118.032 174.93C118.032 175.1 117.947 175.185 117.777 175.185L112.082 175.015C111.487 175.015 111.062 174.93 110.637 174.76C110.212 174.59 109.957 174.42 109.702 174.165C109.447 173.91 109.277 173.57 109.192 173.23C109.107 172.89 109.022 172.465 109.022 171.955L109.107 170.425C109.107 170 109.192 169.575 109.277 169.15C109.362 168.81 109.617 168.47 109.872 168.215C110.127 167.96 110.467 167.79 110.892 167.62C111.317 167.45 111.742 167.45 112.337 167.45L118.032 167.62C118.202 167.62 118.372 167.705 118.287 167.96L118.202 169.575L116.162 170.255H116.077V169.49C116.077 169.405 116.077 169.405 115.992 169.405L112.337 169.32C112.167 169.32 111.912 169.32 111.827 169.32C111.657 169.32 111.572 169.405 111.487 169.49C111.402 169.575 111.317 169.745 111.317 169.83C111.232 170 111.232 170.17 111.232 170.425V171.785C111.232 172.21 111.317 172.55 111.487 172.72C111.657 172.89 111.912 172.975 112.337 173.06L115.907 173.145C115.992 173.145 115.992 173.145 115.992 173.06V171.87Z" fill="#F1F1F4"/>
<path d="M122.622 167.79C122.792 167.79 122.877 167.79 122.962 167.875C123.047 167.96 123.047 168.045 123.132 168.13L125.852 173.655C125.937 173.74 125.937 173.825 126.022 173.825H126.107C126.192 173.825 126.277 173.74 126.277 173.655L126.447 167.96L128.402 168.045L128.147 175.355C128.147 175.525 128.062 175.695 127.807 175.61L124.747 175.525C124.577 175.525 124.492 175.525 124.407 175.44C124.322 175.355 124.237 175.355 124.237 175.185L121.432 169.66C121.432 169.575 121.347 169.49 121.262 169.49H121.177C121.092 169.49 121.007 169.575 121.007 169.66L120.837 175.355L118.882 175.27L119.137 167.96C119.137 167.79 119.222 167.62 119.477 167.62L122.622 167.79Z" fill="#F1F1F4"/>
</g>
<mask id="mask1_480_4879" style="mask-type:luminance" maskUnits="userSpaceOnUse" x="-100" y="-151" width="602" height="602">
<path d="M260.749 -150.232L-99.8723 210.389L140.542 450.803L501.163 90.182L260.749 -150.232Z" fill="white"/>
</mask>
<g mask="url(#mask1_480_4879)">
<path d="M272.469 259.373C323.92 207.922 323.92 124.504 272.469 73.0526C221.018 21.6015 137.599 21.6015 86.148 73.0526C34.6969 124.504 34.6969 207.922 86.148 259.373C137.599 310.825 221.018 310.825 272.469 259.373Z" fill="#E2D3BF"/>
</g>
<mask id="mask2_480_4879" style="mask-type:luminance" maskUnits="userSpaceOnUse" x="-50" y="0" width="511" height="340">
<path d="M460.667 0H-49.3333V340H460.667V0Z" fill="white"/>
</mask>
<g mask="url(#mask2_480_4879)">
<path d="M82.5019 157.76C79.2719 152.15 73.4919 149.855 73.4919 149.855L71.4519 150.79L75.9569 158.95C75.3619 162.095 73.2369 163.795 73.2369 163.795C73.2369 163.795 70.5169 164.305 67.7119 162.775L64.3119 154.105L62.2719 155.04C62.2719 155.04 60.3169 160.905 62.5269 166.94C62.5269 166.94 63.3769 168.895 63.5469 169.065C64.3119 170 66.4369 171.02 70.4319 170.85L84.2019 197.115C83.0969 199.07 82.8419 201.535 83.8619 203.745C85.5619 207.315 89.8119 208.93 93.4669 207.23C97.0369 205.53 98.6519 201.28 96.9519 197.625C95.9319 195.415 93.8919 193.97 91.6819 193.545L80.3769 166.175C83.0969 163.37 83.6069 161.075 83.4369 159.8C83.4369 159.63 82.5019 157.76 82.5019 157.76ZM93.8069 203.065L90.1519 204.765L86.8369 202.47L87.1769 198.475L90.8319 196.775L94.1469 199.07L93.8069 203.065Z" fill="url(#paint0_linear_480_4879)"/>
<path d="M83.5219 159.885C80.2919 154.275 74.5119 151.98 74.5119 151.98L72.4719 152.915L76.9769 161.075C76.3819 164.22 74.2569 165.92 74.2569 165.92C74.2569 165.92 71.5369 166.43 68.7319 164.9L65.3319 156.23L63.2919 157.165C63.2919 157.165 61.3369 163.03 63.5469 169.065C63.5469 169.065 66.6919 173.23 71.3669 172.975L85.1369 199.24C84.0319 201.195 83.7769 203.66 84.7969 205.87C86.4969 209.44 90.7469 211.055 94.4019 209.355C97.9719 207.655 99.5869 203.405 97.8869 199.75C96.8669 197.54 94.8269 196.095 92.6169 195.67L81.3119 168.3C84.7119 164.985 83.5219 159.885 83.5219 159.885ZM94.8269 205.19L91.1719 206.89L87.8569 204.595L88.1969 200.6L91.8519 198.9L95.1669 201.195L94.8269 205.19Z" fill="url(#paint1_linear_480_4879)"/>
<path d="M64.4056 154.177L62.4033 155.112L63.4108 157.268L65.413 156.333L64.4056 154.177Z" fill="#E5E2FF"/>
<path d="M73.5787 149.907L71.5764 150.842L72.5839 152.999L74.5861 152.063L73.5787 149.907Z" fill="#E5E2FF"/>
<path d="M93.8067 203.1L90.1873 204.791L91.1947 206.948L94.8142 205.257L93.8067 203.1Z" fill="#E5E2FF"/>
<path d="M74.512 175.015L85.647 196.435C88.537 196.605 90.152 194.31 90.152 194.31L81.057 171.955C76.977 171.785 74.512 175.015 74.512 175.015ZM89.217 194.395C88.877 194.65 88.367 195.075 87.772 195.33C87.262 195.585 86.752 195.755 86.242 195.755L75.107 174.845C75.617 174.335 76.552 173.655 77.827 173.06C78.762 172.635 79.612 172.38 80.547 172.21L89.217 194.395Z" fill="url(#paint2_linear_480_4879)"/>
<path d="M89.217 194.395L90.067 194.225C90.067 194.225 88.792 196.52 85.562 196.35L86.242 195.84C86.242 195.84 87.857 195.67 89.217 194.395Z" fill="#E5E2FF"/>
<path opacity="0.62" d="M74.512 175.015L75.192 174.93C75.192 174.93 77.062 172.975 80.632 172.38L81.142 171.955C81.142 171.955 79.697 171.7 77.487 172.72C75.192 173.74 74.512 175.015 74.512 175.015Z" fill="url(#paint3_linear_480_4879)"/>
<path opacity="0.62" d="M71.5369 173.06C71.5369 173.06 76.8919 172.125 81.4819 168.47L82.9269 171.955C82.9269 171.955 81.3119 170.34 77.6569 171.785C73.4069 173.485 73.6619 176.885 73.6619 176.885L71.5369 173.06Z" fill="url(#paint4_linear_480_4879)"/>
<path opacity="0.5" d="M82.9268 171.955C81.9068 171.19 80.7168 171.19 80.7168 171.19L91.5118 197.2L92.7868 195.84L82.9268 171.955Z" fill="url(#paint5_linear_480_4879)"/>
<path d="M82.9268 171.955C82.9268 171.955 81.8218 175.44 85.0518 177.055L82.9268 171.955Z" fill="white"/>
</g>
<mask id="mask3_480_4879" style="mask-type:luminance" maskUnits="userSpaceOnUse" x="-50" y="0" width="511" height="340">
<path d="M460.667 0H-49.3333V340H460.667V0Z" fill="white"/>
</mask>
<g mask="url(#mask3_480_4879)">
<path d="M244.937 340H204.987C200.822 316.795 191.047 286.535 191.047 286.535C188.667 285.175 184.077 286.875 184.077 286.875L169.542 340H133.077C131.122 307.19 149.057 270.045 149.057 270.045C148.972 269.96 148.462 268.77 148.547 268.005C148.632 267.665 149.227 267.07 149.907 266.39C150.927 265.455 152.032 264.605 152.032 264.605L220.117 264.18C220.117 264.18 220.797 264.52 221.647 265.03C223.177 265.965 225.132 267.325 225.132 268.345C225.132 269.705 224.537 270.64 224.452 270.895V270.98C239.072 298.435 244.937 340 244.937 340Z" fill="url(#paint6_linear_480_4879)"/>
<path opacity="0.5" d="M166.822 316.115C161.977 337.28 151.352 352.92 143.107 351.05C134.862 349.18 132.227 330.48 137.072 309.23C141.917 288.065 152.542 272.425 160.787 274.295C169.032 276.25 171.752 294.95 166.822 316.115Z" fill="url(#paint7_radial_480_4879)"/>
<path opacity="0.5" d="M237.372 308.21C243.237 329.12 241.452 347.99 233.292 350.2C225.217 352.495 213.827 337.365 207.962 316.37C202.097 295.46 203.882 276.59 212.042 274.38C220.202 272.17 231.507 287.3 237.372 308.21Z" fill="url(#paint8_radial_480_4879)"/>
<path d="M164.782 340L164.357 339.915C169.032 312.545 180.762 289.595 180.932 289.34L181.017 289.255L183.992 286.62L184.247 286.96L181.272 289.595C180.762 290.7 169.372 313.225 164.782 340Z" fill="url(#paint9_linear_480_4879)"/>
<path d="M210.427 340C205.837 313.14 194.107 290.445 193.597 289.425L190.962 287.045L191.217 286.705L193.937 289.17C194.022 289.425 206.177 312.545 210.767 339.915L210.427 340Z" fill="url(#paint10_linear_480_4879)"/>
<path opacity="0.76" d="M225.217 268.345C225.217 269.705 224.622 270.64 224.537 270.895V270.98C210.342 274.21 199.547 287.385 199.547 287.385C207.282 302.175 220.117 340 220.117 340H204.987C200.822 316.795 191.047 286.535 191.047 286.535C188.667 285.175 184.077 286.875 184.077 286.875L169.542 340H160.107C163.507 317.73 173.452 290.615 173.452 290.615C163.592 279.225 149.057 270.045 149.057 270.045L147.357 268.94L148.632 268.005C154.922 274.04 175.322 281.945 175.917 282.2L149.992 266.39C151.012 265.455 152.117 264.605 152.117 264.605L220.202 264.18C220.202 264.18 220.882 264.52 221.732 265.03L203.117 275.23L225.217 268.345Z" fill="url(#paint11_linear_480_4879)"/>
<path opacity="0.76" d="M191.132 286.535L199.037 281.435L197.167 286.535L195.807 302.09L191.132 286.535Z" fill="url(#paint12_linear_480_4879)"/>
<path opacity="0.76" d="M184.162 286.875L175.832 282.2L158.152 274.21L180.677 289.17L182.037 294.44L184.162 286.875Z" fill="url(#paint13_linear_480_4879)"/>
<path d="M206.942 127.16C207.027 127.5 207.027 127.755 207.027 127.755C206.602 129.455 206.092 131.07 205.582 132.6C203.882 137.36 201.842 140.76 200.312 142.885C198.952 144.755 198.017 145.605 198.017 145.605C185.607 141.695 179.487 129.54 177.192 123.59V123.505C176.767 122.4 176.427 121.465 176.257 120.87C176.087 120.36 176.002 120.105 176.002 120.105C176.087 120.02 176.087 119.85 176.172 119.765V119.68C176.342 119.255 176.597 118.83 176.767 118.405C178.382 114.835 179.487 111.52 180.167 108.885C180.762 106.675 181.102 104.975 181.272 104.04C181.357 103.53 181.357 103.275 181.357 103.275L187.137 106.335L207.027 116.875C206.687 118.66 206.602 120.445 206.602 121.89C206.602 122.995 206.602 123.93 206.687 124.695C206.772 125.715 206.857 126.48 206.942 126.99C206.857 127.16 206.942 127.16 206.942 127.16Z" fill="#FE9083"/>
<path d="M201.417 146.88C200.227 147.985 198.952 149.005 197.337 149.855C197.337 149.855 197.252 149.855 197.252 149.94C197.252 149.94 197.252 149.94 197.167 149.855C196.742 149.6 195.212 148.665 193.257 147.22C188.072 143.31 179.402 135.405 176.852 124.695C176.852 124.695 176.852 124.695 176.852 124.61C176.597 123.335 176.342 122.06 176.257 120.7C176.257 120.36 176.172 120.02 176.172 119.68C176.172 119.68 177.872 123.76 180.932 128.095C184.417 133.28 189.687 138.89 196.062 138.89C201.502 138.89 204.307 135.15 205.752 131.75C206.347 130.305 206.687 128.86 206.942 127.84C207.027 127.5 207.027 127.245 207.112 127.075C207.112 126.99 207.112 126.82 207.112 126.735C207.197 126.395 207.197 126.14 207.197 126.14C207.197 126.14 209.067 139.23 201.417 146.88Z" fill="url(#paint14_linear_480_4879)"/>
<path opacity="0.5" d="M201.417 146.88C200.227 147.985 198.952 149.005 197.337 149.855H197.167H197.082C196.657 149.6 195.127 148.665 193.172 147.22C187.987 143.31 179.317 135.405 176.767 124.695C176.767 124.695 176.767 124.695 176.767 124.61C176.512 123.335 176.257 122.06 176.172 120.7C176.172 120.36 176.087 120.02 176.087 119.68C176.087 119.68 177.787 123.76 180.847 128.095C180.847 128.095 184.247 137.53 191.727 142.205C195.467 144.585 198.272 144.245 200.312 142.8C202.352 141.44 203.712 139.06 204.562 137.275C205.327 135.49 205.582 133.79 205.667 132.515C205.667 132.26 205.667 132.005 205.667 131.75C206.262 130.305 206.602 128.86 206.857 127.84C206.942 127.5 206.942 127.245 207.027 127.075C207.027 126.99 207.027 126.82 207.027 126.735C207.112 126.395 207.112 126.14 207.112 126.14C207.112 126.14 209.067 139.23 201.417 146.88Z" fill="url(#paint15_linear_480_4879)"/>
<path d="M249.102 223.975C249.017 223.975 248.932 224.06 248.932 224.06C248.252 224.145 246.042 223.635 243.237 221.255C240.857 219.215 237.967 215.73 235.162 210.035C229.467 198.645 227.852 191.08 227.597 189.72V189.55L224.282 194.82C222.072 201.62 217.737 229.585 217.822 230.86C217.907 232.05 221.562 237.915 221.562 238.68C221.477 239.445 219.777 241.06 219.352 242.76C219.012 243.95 221.307 247.605 222.837 250.325C223.687 251.77 224.282 252.96 224.282 253.385C224.282 254.66 220.287 260.95 220.287 260.95V264.35L220.202 264.435L220.032 264.605L219.862 264.69C218.332 265.88 211.872 269.875 191.557 270.98C167.587 272.255 151.522 264.52 151.522 264.52L152.712 261.205C152.712 261.205 151.607 260.27 151.522 259.76C151.437 259.25 152.372 258.145 152.372 258.145C152.372 258.145 149.992 256.87 149.992 255.255C149.992 253.64 154.837 248.625 154.667 244.375C154.497 240.125 150.842 236.3 150.332 233.92C149.822 231.54 156.622 225.505 156.622 225.505C150.842 207.145 149.737 182.495 149.737 182.495L148.632 181.22C148.632 181.22 141.747 197.03 135.457 204.765C134.692 205.7 133.927 206.635 133.077 207.485C131.292 209.355 129.422 211.14 127.637 212.67C123.302 216.495 119.307 218.96 118.372 218.79C116.757 218.45 110.297 205.7 110.637 192.695C110.807 186.49 114.547 179.52 118.372 173.995C118.797 173.4 119.222 172.805 119.647 172.21C122.367 168.47 125.087 165.495 126.277 164.22C126.787 163.71 127.042 163.455 127.042 163.455C127.042 163.455 126.192 160.565 125.512 158.1C125.512 158.015 125.512 158.015 125.427 157.93V157.845C125.427 157.76 125.427 157.76 125.427 157.76C125.087 156.23 124.832 154.955 125.087 154.615C125.597 153.765 128.742 152.745 129.252 152.15C129.762 151.47 132.057 140.675 133.757 139.485C135.372 138.38 138.347 137.53 147.952 133.705C148.462 133.535 148.887 133.365 149.397 133.11C160.277 128.86 170.902 123.59 170.902 123.59L174.982 118.575H176.767L176.172 119.85V119.935C176.427 121.21 176.767 122.485 177.192 123.675V123.76C182.802 141.44 197.252 147.135 197.252 147.135C207.282 139.74 207.112 128.01 207.112 128.01V126.395L208.982 126.99L210.257 130.05C210.257 130.05 212.467 133.45 221.052 137.19C222.582 137.87 224.112 138.635 225.812 139.655C233.717 144.16 242.472 151.045 243.152 152.49C243.237 152.66 243.322 152.915 243.407 153.255C244.342 156.91 246.212 170.51 247.997 175.355C249.102 178.415 250.887 180.03 252.162 180.965C253.097 181.645 253.777 181.815 253.777 181.815C253.947 182.58 254.032 183.345 254.117 184.025C257.772 207.06 250.717 222.87 249.102 223.975Z" fill="url(#paint16_linear_480_4879)"/>
<path opacity="0.5" d="M156.622 180.03L149.652 182.41L148.547 181.135C148.547 181.135 141.662 196.945 135.372 204.68C134.607 205.615 133.842 206.55 132.992 207.4C131.207 209.27 129.337 211.055 127.552 212.585L122.197 189.55L119.477 172.04C122.197 168.3 124.917 165.325 126.107 164.05C126.617 163.54 126.872 163.285 126.872 163.285C126.872 163.285 126.022 160.395 125.342 157.93C125.342 157.845 125.342 157.845 125.257 157.76V157.675C125.257 157.59 125.257 157.59 125.257 157.59C124.917 156.06 124.662 154.785 124.917 154.445C125.427 153.595 128.572 152.575 129.082 151.98C129.592 151.3 131.887 140.505 133.587 139.315C133.587 139.315 132.482 149.77 138.432 162.945L141.322 167.025L149.822 173.825C149.907 173.74 153.137 178.075 156.622 180.03Z" fill="url(#paint17_linear_480_4879)"/>
<path d="M136.307 198.815C134.777 209.95 118.202 218.535 118.202 218.535C114.462 218.535 110.382 212.075 106.642 204.17C102.902 196.18 102.647 173.4 102.477 171.955C102.307 170.51 100.182 167.705 100.097 166.515C100.012 165.325 103.497 162.775 103.497 162.775V162.69V162.605C103.157 161.84 101.032 157.42 101.202 156.57C101.372 155.72 105.282 153.765 105.282 153.765L105.537 158.1C105.537 158.1 114.717 156.4 117.777 149.26L118.287 147.05L119.817 148.07V157.42C119.817 157.42 120.157 158.865 120.582 158.865C121.092 158.865 124.662 157.08 125.342 157.335C126.107 157.59 126.872 162.605 127.807 163.2C128.827 163.88 131.462 165.665 131.887 166.6C132.057 167.025 132.057 168.47 132.142 170.085C132.142 172.125 132.142 174.59 132.482 175.95C132.992 178.755 137.837 187.68 136.307 198.815Z" fill="url(#paint18_linear_480_4879)"/>
<path d="M288.457 189.295C287.692 190.485 283.952 192.95 283.017 193.885C282.082 194.82 283.017 198.05 283.017 198.05C267.207 214.795 250.802 223.21 249.102 223.975C249.017 223.975 248.932 224.06 248.932 224.06C238.987 217.43 239.837 206.465 243.152 197.2C246.297 188.36 251.652 181.05 251.907 180.71C252.077 180.625 254.882 179.435 256.922 179.35C257.602 179.265 258.197 179.605 258.792 179.945C259.982 180.71 261.002 181.9 262.022 181.39C263.467 180.625 266.697 172.975 268.907 172.805C270.437 172.635 272.562 174.25 274.007 175.1C274.602 175.525 275.112 175.78 275.367 175.695C276.217 175.44 278.937 172.21 279.107 172.125C279.362 172.04 280.552 172.975 280.552 172.975L279.702 174.08C281.062 181.815 285.482 187 285.482 187L288.457 182.665C288.457 182.58 289.222 188.105 288.457 189.295Z" fill="url(#paint19_linear_480_4879)"/>
<path d="M206.942 126.905C206.942 126.99 206.942 127.16 206.857 127.245C206.857 127.5 206.772 127.67 206.687 127.925C205.667 131.665 201.587 135.49 196.402 133.705C190.792 131.665 179.997 108.97 179.997 108.97L181.102 104.125L206.602 124.865L206.857 126.82L206.942 126.905Z" fill="#CB904D"/>
<path d="M122.197 122.74C122.197 122.74 120.667 114.155 121.347 107.78C122.027 101.405 121.177 94.265 121.177 94.265C121.177 94.265 119.647 93.585 118.542 94.265C117.437 94.945 114.802 101.49 115.992 106.76C117.182 112.03 116.247 124.61 116.247 124.61H114.462L110.637 119.255L108.767 118.745C108.767 118.745 97.9719 128.945 98.1419 134.98L99.5869 140.335L112.932 139.91L121.602 129.965L122.197 122.74Z" fill="#EE8183"/>
<path d="M108.682 118.745C108.682 118.745 108.937 125.545 110.467 131.325C110.467 131.325 110.212 133.705 107.407 133.875L106.727 133.11C106.727 133.11 106.217 135.83 103.752 136L101.457 133.705L102.052 135.66C102.052 135.66 101.202 137.7 98.9918 137.615C98.9918 137.615 95.2518 134.725 95.0818 130.9L98.7368 127.84V125.46L103.072 122.4L103.157 120.7C103.157 120.615 105.707 118.66 108.682 118.745Z" fill="url(#paint20_linear_480_4879)"/>
<path opacity="0.6" d="M121.517 105.995C121.517 105.995 120.837 107.61 119.902 108.29C118.967 108.97 116.332 109.395 116.332 109.395L116.247 124.61H114.462L110.637 119.255C110.637 119.255 112.592 122.315 112.677 124.61L111.147 125.375L109.787 120.785L109.192 124.1L109.787 128.18C109.787 128.18 112.082 126.225 116.247 126.14L116.842 127.245C116.842 127.245 109.362 133.45 107.577 137.105C107.577 137.105 111.317 132.43 119.732 127.16L120.497 124.695L121.602 118.745C121.602 118.745 120.582 110.16 121.517 105.995Z" fill="url(#paint21_linear_480_4879)"/>
<path d="M127.807 132.43C127.127 134.555 119.817 143.225 118.967 145.095C118.117 146.965 117.692 149.43 117.692 149.43C114.122 157.165 105.452 158.27 105.452 158.27L105.027 151.3C105.027 151.3 100.352 148.58 99.5868 147.135L99.5018 146.88C99.2468 145.52 99.5018 140.42 99.5018 140.42L107.662 137.105C111.232 132.515 119.817 127.245 119.817 127.245L120.242 124.865C114.037 121.805 115.057 112.625 116.162 111.52C117.182 110.415 119.137 110.415 119.137 110.415C119.137 110.415 121.432 117.81 122.877 121.295C124.152 124.61 128.487 130.305 127.807 132.43Z" fill="url(#paint22_linear_480_4879)"/>
<path d="M103.157 120.615C103.157 120.615 104.092 129.03 106.727 133.11C106.727 133.11 103.327 128.86 103.072 122.4L103.157 120.615Z" fill="#E28183"/>
<path d="M98.7368 125.375C98.7368 125.375 99.5868 132.175 103.837 136C103.837 136 100.097 134.13 98.7368 127.755V125.375Z" fill="#E28183"/>
<path opacity="0.91" d="M120.072 143.31C120.072 143.31 110.892 152.235 104.942 151.3L105.367 158.27C105.367 158.27 115.057 157.42 118.202 147.22C118.202 147.305 119.307 144.33 120.072 143.31Z" fill="url(#paint23_linear_480_4879)"/>
<path d="M314.807 155.465C314.807 155.465 306.392 170.935 296.447 175.695H293.047L285.227 187.51C285.227 187.51 280.212 184.365 279.787 173.91C279.787 173.91 281.572 172.04 281.997 170C281.997 170 279.192 167.79 278.427 166.175C277.662 164.56 277.407 159.715 276.897 157.76C276.387 155.805 271.797 151.64 270.777 151.13C269.757 150.62 265.167 150.365 265.167 150.365C265.167 150.365 264.487 148.665 265.167 147.9C265.847 147.135 272.987 144.33 276.897 146.965C276.897 146.965 277.152 149.005 277.577 150.11C278.002 151.215 281.487 154.955 281.997 154.955C282.507 154.955 284.887 153 285.907 151.555C286.842 150.11 292.112 138.89 293.302 135.15V135.065C293.302 134.98 293.302 134.98 293.387 134.895C293.387 134.81 293.387 134.81 293.387 134.81C293.387 134.81 293.387 134.81 293.387 134.725C294.322 131.41 300.017 125.205 302.992 123.42C302.992 123.42 304.267 123.08 304.947 124.695C304.947 124.695 302.567 131.58 300.017 135.66C299.592 136.34 299.167 137.19 298.657 138.04C296.532 142.035 294.067 147.135 293.727 147.9V147.985L295.087 148.665L298.742 145.18L302.482 141.695L311.067 150.705L310.217 151.81L307.582 155.21L308.942 155.465L312.087 151.98L314.807 155.465Z" fill="url(#paint24_linear_480_4879)"/>
<path opacity="0.6" d="M312.767 158.78L310.047 162.775C310.047 162.775 295.172 151.3 292.027 150.365C288.797 149.43 287.607 150.025 287.607 150.025L284.292 154.275C284.292 154.275 290.412 159.715 290.922 167.025C290.922 167.025 288.882 157.76 281.912 154.955C282.422 154.955 284.802 153 285.822 151.555C286.757 150.11 292.027 138.89 293.217 135.15C293.047 135.83 292.792 137.02 293.387 138.04C294.152 139.4 298.402 138.125 298.657 138.04L293.727 147.9V147.985L295.087 148.665L298.742 145.18L296.957 149.43L310.217 151.81L307.582 155.21L308.942 155.465L312.767 158.78Z" fill="url(#paint25_linear_480_4879)"/>
<path d="M302.482 141.695C302.482 141.695 305.032 141.355 306.732 144.67L306.392 145.775C306.392 145.775 308.942 146.285 311.322 150.365C311.322 150.365 309.197 154.275 303.842 156.06C303.842 156.06 301.377 155.38 300.952 153.255L301.462 151.895L299.507 153.34C299.507 153.34 297.212 154.02 296.192 150.62L302.482 141.695Z" fill="url(#paint26_linear_480_4879)"/>
<path d="M315.572 154.36C315.572 154.36 316.082 151.895 313.447 150.28L308.347 155.89C308.347 155.89 308.517 157.675 310.727 158.1C310.727 158.185 314.212 156.995 315.572 154.36Z" fill="url(#paint27_linear_480_4879)"/>
<path opacity="0.91" d="M278.427 166.175C278.427 166.175 284.377 172.805 292.962 175.61L289.222 181.305L281.402 171.445L281.912 170C281.997 170 278.852 167.62 278.427 166.175Z" fill="url(#paint28_linear_480_4879)"/>
<path d="M306.307 145.69C306.307 145.69 303.842 149.77 301.377 151.81L300.867 153.17C300.867 153.17 305.627 149.94 307.412 146.2C307.412 146.2 306.902 145.775 306.307 145.69Z" fill="#E28183"/>
<path opacity="0.5" d="M288.457 189.295C287.692 190.485 283.952 192.95 283.017 193.885C282.082 194.82 283.017 198.05 283.017 198.05C267.207 214.795 250.802 223.21 249.102 223.975C249.017 223.975 248.932 224.06 248.932 224.06C247.657 224.23 241.367 222.445 235.077 209.865C229.382 198.475 227.767 190.91 227.512 189.55V189.38L228.872 187.51L230.912 164.305L232.357 168.98C237.797 162.35 242.982 152.235 242.982 152.235L243.237 153C244.172 156.655 246.042 170.255 247.827 175.1C248.932 178.16 250.717 179.775 251.992 180.71C246.977 185.3 244.427 191.93 243.237 197.2C242.132 202.045 242.047 205.7 242.047 205.7C242.047 205.7 243.407 199.155 247.827 191.25C249.442 188.36 251.737 185.81 254.032 183.685C255.732 182.07 257.517 180.795 258.877 179.775C260.067 180.54 261.087 181.73 262.107 181.22C255.477 191.165 255.647 210.885 261.852 207.145C268.057 203.405 269.502 195.415 269.502 195.415C268.057 185.725 268.482 174.76 269.672 172.635C271.117 172.72 275.197 175.61 275.452 175.525C275.027 187 280.467 194.65 280.467 194.65L284.037 189.21C278.852 180.54 279.277 172.04 279.277 172.04C279.532 171.955 280.722 172.89 280.722 172.89L279.872 173.995C281.232 181.73 285.652 186.915 285.652 186.915L288.627 182.58C288.457 182.58 289.222 188.105 288.457 189.295Z" fill="url(#paint29_linear_480_4879)"/>
<path opacity="0.5" d="M220.117 260.78V264.18L220.032 264.265L219.862 264.435L219.692 264.52C218.162 265.71 211.702 269.705 191.387 270.81C167.417 272.085 151.352 264.35 151.352 264.35L152.542 261.035C152.542 261.035 151.437 260.1 151.352 259.59C151.267 259.08 152.202 257.975 152.202 257.975C152.202 257.975 149.822 256.7 149.822 255.085C149.822 253.64 153.732 249.39 154.412 245.48C154.497 245.055 154.497 244.63 154.497 244.205C154.327 239.955 150.672 236.215 150.162 233.75C149.652 231.37 156.452 225.335 156.452 225.335C150.672 206.975 149.567 182.325 149.567 182.325L148.462 181.05C148.462 181.05 141.577 196.86 135.287 204.595C128.997 212.33 119.817 218.96 118.202 218.62C114.462 218.62 110.382 212.16 106.642 204.255C102.902 196.265 102.647 173.485 102.477 172.04C102.307 170.595 100.182 167.79 100.097 166.6C104.092 173.485 110.552 171.53 110.552 171.53C105.877 171.615 103.497 162.945 103.497 162.945V162.86V162.775L101.202 156.74C101.457 156.995 106.812 162.945 111.912 159.29C117.182 155.55 119.902 148.24 119.902 148.24V157.59C119.902 157.59 120.242 159.035 120.667 159.035C120.327 163.37 119.477 168.555 118.372 173.74C115.992 184.875 112.677 195.67 112.677 195.67C112.677 195.67 121.517 190.825 124.662 178.585C126.192 172.72 126.362 167.62 126.277 163.965C126.192 160.82 125.767 158.61 125.597 157.845C125.597 157.76 125.597 157.76 125.512 157.675V157.59C125.512 157.59 125.512 157.59 125.512 157.505L126.362 159.29L127.977 163.37C129.847 179.095 125.937 202.725 125.937 202.725C131.632 195.67 132.822 179.945 132.567 176.12C132.482 174.335 132.312 172.04 132.227 170.255C132.057 168.215 131.972 166.77 131.972 166.77L143.617 173.74L141.492 166.94L149.992 173.74C149.992 173.74 157.642 182.92 165.462 184.025C173.282 185.13 202.097 184.45 202.097 184.45C202.097 184.45 177.107 186.065 169.797 188.19C162.487 190.315 161.127 192.78 161.127 192.78C166.397 219.64 195.637 228.65 196.487 228.99C169.967 224.995 157.642 202.47 157.642 202.47C157.642 202.47 157.217 215.135 159.257 219.98C161.297 224.825 173.367 236.64 188.752 239.105C190.027 239.275 191.302 239.445 192.577 239.53C205.582 240.125 216.377 233.495 217.482 232.73C217.567 232.645 217.567 232.645 217.567 232.645C217.142 233.325 211.787 240.805 190.197 241.655C188.922 241.74 187.647 241.74 186.372 241.655C166.397 240.805 156.197 227.46 156.197 227.46C156.197 227.46 148.802 231.455 153.477 237.32C153.562 237.405 153.562 237.49 153.647 237.49C155.007 239.105 158.152 241.06 161.722 243.1C161.807 243.185 161.892 243.185 161.977 243.27C166.397 245.735 171.497 248.2 175.492 250.24C175.492 250.24 175.492 250.24 175.577 250.24C178.042 251.515 179.997 252.62 181.102 253.385C182.207 254.235 182.462 254.745 181.357 254.83C175.747 255.51 154.582 250.835 153.732 252.11C152.882 253.385 154.752 256.7 154.752 256.7C174.132 266.305 215.697 261.545 217.057 261.46C182.292 270.555 153.817 259.25 153.817 259.25L154.752 262.565C154.752 262.565 170.222 267.92 188.497 268.345C206.772 268.77 218.162 264.095 218.162 264.095L220.117 260.78Z" fill="url(#paint30_linear_480_4879)"/>
<path opacity="0.5" d="M205.922 184.365C205.922 184.365 219.777 185.13 228.872 187.51L224.197 194.65C224.197 194.65 217.057 188.445 205.922 184.365Z" fill="url(#paint31_linear_480_4879)"/>
<path opacity="0.5" d="M218.842 222.445C218.842 222.445 210.257 229.67 201.757 232.985C193.257 236.3 185.097 236.64 185.097 236.64C185.097 236.64 189.942 238.085 202.012 236.13C213.997 234.175 218.077 227.715 218.077 227.715L218.842 222.445Z" fill="url(#paint32_linear_480_4879)"/>
<path opacity="0.5" d="M222.752 250.155C206.772 254.32 186.542 248.37 186.712 247.605C186.882 246.84 192.237 247.945 204.732 245.395C216.802 242.93 221.222 238.68 221.477 238.425C221.392 239.19 219.692 240.805 219.267 242.505C218.842 243.78 221.137 247.435 222.752 250.155Z" fill="url(#paint33_linear_480_4879)"/>
<path opacity="0.5" d="M179.317 186.49C165.717 187.85 161.977 191.675 161.977 191.675C158.152 192.185 149.567 182.325 149.567 182.325L148.462 181.05C148.462 181.05 141.577 196.86 135.287 204.595C134.522 205.53 133.757 206.465 132.907 207.315L133.842 205.275C133.842 205.275 135.287 204.595 135.712 196.86C136.137 189.21 132.482 177.735 132.482 176.205C132.482 174.675 131.887 166.77 131.887 166.77L143.532 173.74L141.407 166.94L149.907 173.74C149.907 173.74 153.222 178.755 161.637 182.92C169.542 186.83 178.382 186.575 179.317 186.49Z" fill="url(#paint34_linear_480_4879)"/>
<path opacity="0.5" d="M148.462 181.05L156.622 180.03C156.622 180.03 159.852 182.155 166.397 184.875L160.957 192.865C160.957 192.865 163.082 204.255 169.287 210.715C169.287 210.715 152.882 201.62 150.587 193.885L148.462 181.05Z" fill="url(#paint35_linear_480_4879)"/>
<path opacity="0.5" d="M101.032 156.74L103.327 162.86C103.327 162.86 105.707 171.105 110.382 171.445C115.057 171.785 119.647 157.59 119.647 157.59V148.24C119.647 148.24 114.632 158.95 109.277 160.14C103.922 161.415 101.032 156.74 101.032 156.74Z" fill="url(#paint36_linear_480_4879)"/>
<path opacity="0.5" d="M129.167 151.895C129.167 151.895 133.332 160.225 138.517 162.86C138.517 162.86 132.397 147.985 133.672 139.23C133.672 139.23 131.377 140.675 129.167 151.895Z" fill="url(#paint37_linear_480_4879)"/>
<path opacity="0.76" d="M230.912 164.305L232.357 168.98L233.802 207.315C233.802 207.315 230.062 200.005 227.512 189.635L228.872 187.595C228.872 187.51 231.167 173.06 230.912 164.305Z" fill="url(#paint38_linear_480_4879)"/>
<path opacity="0.5" d="M275.452 175.61C275.452 175.61 274.602 194.395 282.592 196.01L283.017 198.05C283.017 198.05 272.647 197.625 275.452 175.61Z" fill="url(#paint39_linear_480_4879)"/>
<path opacity="0.3" d="M262.107 181.305C262.107 181.305 261.767 181.985 258.877 179.86C258.877 179.86 248.847 187 244.937 197.03C244.937 197.03 251.142 187.765 254.457 186.83C257.772 185.81 258.537 189.55 258.537 189.55C258.537 189.55 259.897 184.28 262.107 181.305Z" fill="url(#paint40_linear_480_4879)"/>
<path opacity="0.5" d="M100.012 166.6C100.012 166.6 103.922 173.74 111.147 171.53C111.147 171.53 106.812 174.42 102.477 172.04C102.392 172.04 99.7568 167.365 100.012 166.6Z" fill="url(#paint41_linear_480_4879)"/>
<path opacity="0.5" d="M125.342 157.59C125.342 157.59 130.697 177.48 116.757 192.44C116.757 192.44 125.767 187.85 127.807 177.14C129.847 166.345 125.342 157.59 125.342 157.59Z" fill="url(#paint42_linear_480_4879)"/>
<path opacity="0.5" d="M220.627 141.61C220.627 141.61 220.032 150.62 215.697 156.995C211.362 163.455 202.862 167.79 202.862 167.79C202.862 167.79 213.572 163.88 218.502 158.27C223.432 152.83 220.627 141.61 220.627 141.61Z" fill="url(#paint43_linear_480_4879)"/>
<path opacity="0.5" d="M165.887 128.18C165.887 128.18 165.887 135.66 168.267 143.31C170.647 150.96 191.642 164.305 191.642 164.305C191.642 164.305 170.052 155.295 165.802 147.22C161.722 139.23 165.887 128.18 165.887 128.18Z" fill="url(#paint44_linear_480_4879)"/>
<path d="M165.632 163.88V176.12C165.632 176.12 193.767 175.865 225.302 177.99L225.982 167.025C226.067 166.94 198.612 163.71 165.632 163.88Z" fill="url(#paint45_linear_480_4879)"/>
<path d="M170.817 166.685C170.817 166.515 170.902 166.345 171.157 166.345L176.852 166.515C177.447 166.515 177.872 166.6 178.297 166.77C178.722 166.94 178.977 167.11 179.232 167.365C179.487 167.62 179.657 167.96 179.742 168.3C179.827 168.64 179.912 169.065 179.912 169.575L179.827 171.105C179.827 171.53 179.742 171.955 179.657 172.38C179.572 172.72 179.317 173.06 179.062 173.315C178.807 173.57 178.467 173.74 178.042 173.91C177.617 174.08 177.192 174.08 176.597 174.08L173.537 173.995L172.942 172.21H172.857L172.772 173.995L170.647 173.91L170.817 166.685ZM172.857 172.04L176.512 172.125C176.937 172.125 177.192 172.04 177.362 171.87C177.532 171.7 177.617 171.36 177.617 170.935V169.66C177.617 169.15 177.532 168.895 177.362 168.725C177.192 168.555 176.937 168.47 176.512 168.47L173.027 168.385C172.942 168.385 172.942 168.385 172.942 168.47L172.857 168.555V172.04Z" fill="#EBEFFF"/>
<path d="M182.972 169.915L182.802 172.21C182.802 172.295 182.887 172.38 182.972 172.38L189.347 172.55L189.262 174.505L180.847 174.25C180.677 174.25 180.507 174.165 180.592 173.91L180.762 166.94C180.762 166.77 180.847 166.6 181.102 166.6L189.262 166.855C189.432 166.855 189.602 166.94 189.602 167.195L189.517 169.15L187.477 169.83H187.392V168.81C187.392 168.725 187.392 168.725 187.307 168.725L182.972 168.555C182.887 168.555 182.887 168.555 182.887 168.64V168.725V169.66L186.457 169.745L186.372 171.275L183.397 171.19L182.972 169.915Z" fill="#EBEFFF"/>
<path d="M197.167 169.83L197.082 168.98C197.082 168.895 197.082 168.895 196.997 168.81L193.002 168.725C192.832 168.725 192.747 168.725 192.662 168.81C192.577 168.895 192.577 168.98 192.577 169.065V169.235C192.577 169.405 192.577 169.49 192.662 169.49C192.747 169.575 192.832 169.575 192.917 169.575L197.592 170.34C197.932 170.425 198.102 170.425 198.357 170.595C198.527 170.68 198.697 170.85 198.867 170.935C199.037 171.105 199.122 171.275 199.122 171.445C199.207 171.615 199.207 171.87 199.207 172.21V172.805C199.207 173.145 199.122 173.4 199.037 173.655C198.952 173.91 198.782 174.08 198.612 174.25C198.442 174.42 198.187 174.505 197.932 174.59C197.677 174.675 197.252 174.675 196.912 174.675L190.112 174.505L190.197 172.55L196.232 172.72C196.402 172.72 196.572 172.72 196.572 172.635C196.657 172.55 196.657 172.465 196.657 172.295V172.125C196.657 171.955 196.657 171.87 196.572 171.87C196.487 171.785 196.402 171.785 196.317 171.785L191.812 171.105C191.472 171.02 191.217 171.02 191.047 170.935C190.792 170.85 190.622 170.765 190.537 170.595C190.367 170.425 190.282 170.255 190.282 170.085C190.197 169.915 190.197 169.66 190.197 169.32V168.81C190.197 168.3 190.367 167.875 190.707 167.535C191.047 167.28 191.472 167.11 192.152 167.11L198.867 167.28C199.122 167.28 199.207 167.365 199.207 167.62L199.122 169.15L197.167 169.83Z" fill="#EBEFFF"/>
<path d="M200.057 174.845L200.312 167.28L202.437 167.365L202.182 174.93L200.057 174.845Z" fill="#EBEFFF"/>
<path d="M210.172 171.87C210.172 171.785 210.172 171.615 210.172 171.53C210.172 171.445 210.172 171.275 210.172 171.19V171.105L212.297 171.19L212.212 174.93C212.212 175.1 212.127 175.185 211.957 175.185L206.262 175.015C205.667 175.015 205.242 174.93 204.817 174.76C204.392 174.59 204.137 174.42 203.882 174.165C203.627 173.91 203.457 173.57 203.372 173.23C203.287 172.89 203.202 172.465 203.202 171.955L203.287 170.425C203.287 170 203.372 169.575 203.457 169.15C203.542 168.81 203.797 168.47 204.052 168.215C204.307 167.96 204.647 167.79 205.072 167.62C205.497 167.45 205.922 167.45 206.517 167.45L212.212 167.62C212.382 167.62 212.552 167.705 212.467 167.96L212.382 169.575L210.342 170.255H210.257V169.49C210.257 169.405 210.257 169.405 210.172 169.405L206.517 169.32C206.347 169.32 206.092 169.32 206.007 169.32C205.837 169.32 205.752 169.405 205.667 169.49C205.582 169.575 205.497 169.745 205.497 169.83C205.412 170 205.412 170.17 205.412 170.425V171.785C205.412 172.21 205.497 172.55 205.667 172.72C205.837 172.89 206.092 172.975 206.517 173.06L210.087 173.145C210.172 173.145 210.172 173.145 210.172 173.06V171.87Z" fill="#EBEFFF"/>
<path d="M216.802 167.79C216.972 167.79 217.057 167.79 217.142 167.875C217.227 167.96 217.227 168.045 217.312 168.13L220.032 173.655C220.117 173.74 220.117 173.825 220.202 173.825H220.287C220.372 173.825 220.457 173.74 220.457 173.655L220.627 167.96L222.582 168.045L222.327 175.355C222.327 175.525 222.242 175.695 221.987 175.61L218.927 175.525C218.757 175.525 218.672 175.525 218.587 175.44C218.502 175.355 218.417 175.355 218.417 175.185L215.612 169.66C215.612 169.575 215.527 169.49 215.442 169.49H215.357C215.272 169.49 215.187 169.575 215.187 169.66L215.017 175.355L213.062 175.27L213.317 167.96C213.317 167.79 213.402 167.62 213.657 167.62L216.802 167.79Z" fill="#EBEFFF"/>
<path opacity="0.5" d="M210.172 129.795C209.492 137.7 207.112 143.225 204.562 146.965C200.992 152.065 197.167 153.765 197.167 153.765C193.342 152.065 190.027 150.025 187.137 147.73C174.982 138.04 171.072 124.61 170.817 123.505C175.917 135.83 183.482 143.395 189.177 147.56C193.767 150.96 197.167 152.235 197.167 152.235V148.325C196.232 147.985 195.382 147.56 194.532 147.135C184.502 142.035 179.232 131.495 176.767 124.695C176.767 124.695 176.767 124.695 176.767 124.61C175.407 120.955 174.897 118.32 174.897 118.32H176.682L176.087 119.595V119.68C176.342 120.955 176.682 122.23 177.107 123.42V123.505C182.717 141.185 197.167 146.88 197.167 146.88C207.197 139.485 207.027 127.755 207.027 127.755V126.14L208.897 126.735L210.172 129.795Z" fill="url(#paint46_linear_480_4879)"/>
<path opacity="0.3" d="M269.672 172.72C269.672 172.72 266.952 181.645 269.502 195.5C269.502 195.5 270.777 177.905 271.797 176.375C272.732 174.845 275.452 175.61 275.452 175.61C275.452 175.61 271.202 173.23 269.672 172.72Z" fill="url(#paint47_linear_480_4879)"/>
<path opacity="0.5" d="M243.237 221.17C240.857 219.13 237.967 215.645 235.162 209.95C229.467 198.56 227.852 190.995 227.597 189.635L228.957 187.595L230.742 170.085L232.442 169.065C232.442 169.065 238.477 162.435 243.067 152.32C243.152 152.49 243.237 152.745 243.322 153.085C244.257 156.74 246.127 170.34 247.912 175.185C249.017 178.245 250.802 179.86 252.077 180.795C252.077 180.795 241.622 196.35 241.112 207.4C240.517 217.345 242.812 220.66 243.237 221.17Z" fill="url(#paint48_linear_480_4879)"/>
<path opacity="0.5" d="M181.102 253.555C181.102 253.555 162.232 250.495 154.582 245.48C154.667 245.055 154.667 244.63 154.667 244.205C154.497 239.955 150.842 236.215 150.332 233.75C150.417 234.005 151.012 235.28 153.647 237.575C155.347 239.02 157.897 240.89 161.722 243.185C161.807 243.27 161.892 243.27 161.977 243.355C167.417 246.585 172.092 248.71 175.492 250.325C175.492 250.325 175.492 250.325 175.577 250.325C178.552 251.77 180.592 252.705 181.102 253.555Z" fill="url(#paint49_linear_480_4879)"/>
<path opacity="0.5" d="M221.392 238.51C221.307 239.275 219.607 240.89 219.182 242.59C219.182 242.59 212.297 249.9 186.627 247.69C186.797 246.925 192.152 248.03 204.647 245.48C216.802 243.1 221.137 238.765 221.392 238.51Z" fill="url(#paint50_linear_480_4879)"/>
<path opacity="0.5" d="M225.727 139.4L209.322 144.67L204.562 146.88H201.417H197.167L194.532 147.135L193.172 147.22L189.177 147.56L187.137 147.73L167.502 140.59L164.017 139.315L147.867 133.45C148.377 133.28 148.802 133.11 149.312 132.855C160.192 128.605 170.817 123.335 170.817 123.335L174.897 118.32H176.682C178.297 114.75 179.402 111.435 180.082 108.8L181.187 103.955C181.272 103.445 181.272 103.19 181.272 103.19L187.052 106.25L206.517 121.805C206.517 122.91 206.517 123.845 206.602 124.61L206.857 126.565C206.942 126.225 206.942 125.97 206.942 125.97L208.812 126.565L210.087 129.625C210.087 129.625 212.297 133.025 220.882 136.765C222.412 137.615 224.027 138.465 225.727 139.4Z" fill="#C0794A"/>
<path d="M213.232 124.44C213.232 124.44 205.582 126.14 197.167 122.06C188.752 117.98 181.697 105.995 181.187 102.935C180.762 99.9599 184.417 92.0549 184.417 85.9349C184.417 79.8149 181.442 69.2749 186.457 63.5799C191.472 57.8849 214.677 57.0349 222.242 64.3449C222.242 64.3449 224.537 70.2099 224.537 73.5249C224.537 74.2899 224.367 75.4799 224.197 76.8399C224.112 77.3499 224.027 77.8599 223.942 78.4549C223.262 82.4499 222.327 87.3799 222.752 89.5049C222.922 90.2699 223.177 90.9499 223.432 91.6299C224.367 93.7549 225.727 95.4549 225.982 97.3249C226.322 99.7049 223.092 116.96 213.232 124.44Z" fill="url(#paint51_linear_480_4879)"/>
<path d="M184.417 84.235C184.417 84.235 182.292 79.05 177.107 78.965C177.107 78.965 174.047 80.155 173.537 82.535C173.537 82.535 174.642 90.95 175.917 94.945C177.192 98.855 181.952 98.345 181.952 98.345C181.952 98.345 186.032 91.97 184.417 84.235Z" fill="url(#paint52_linear_480_4879)"/>
<path d="M204.477 101.49C204.477 101.49 206.262 101.32 206.942 101.915C207.707 102.51 210.427 105.145 213.912 105.825C217.397 106.59 219.692 103.615 220.457 103.445C221.222 103.275 221.987 104.295 221.987 104.295C221.987 104.295 221.647 103.105 219.862 102.51C219.862 102.51 219.097 105.315 214.082 104.295C209.067 103.36 206.942 101.15 206.942 101.15L206.687 100.725C206.772 100.81 205.327 101.065 204.477 101.49Z" fill="url(#paint53_linear_480_4879)"/>
<path opacity="0.6" d="M197.082 75.48L197.167 74.97C197.167 74.97 202.182 66.215 212.042 65.96C221.987 65.705 224.197 71.91 224.197 71.91L226.067 69.105L221.902 60.605L192.832 60.095L185.777 65.79L184.842 79.815L187.987 98.26L195.637 102.34L197.762 100.385C196.997 94.18 192.322 88.57 192.322 88.57L195.637 86.275C195.637 86.275 204.222 90.44 209.237 89.165C209.237 89.165 212.977 78.2 212.807 70.125C212.892 70.21 200.057 72.08 197.082 75.48Z" fill="url(#paint54_linear_480_4879)"/>
<path d="M196.657 76.16C196.657 76.16 197.167 73.015 202.522 71.74C208.472 70.295 213.317 69.105 213.317 69.105C213.317 69.105 212.297 72.59 210.257 73.865C210.257 73.865 203.967 73.61 200.737 74.375C197.592 75.055 196.657 76.16 196.657 76.16Z" fill="#8E6836"/>
<path d="M224.197 71.9099C224.197 71.9099 221.137 74.2049 219.097 79.8149C219.097 79.8149 221.052 77.2649 222.922 77.2649C224.197 77.2649 223.942 78.5399 223.942 78.5399C223.942 78.5399 225.217 75.1399 224.197 71.9099Z" fill="#8E6836"/>
<path d="M198.612 85.0849C198.612 85.0849 198.952 78.3699 205.497 76.6699C205.497 76.6699 207.792 79.7299 208.047 83.1299C208.047 83.1299 204.647 82.5349 198.612 85.0849Z" fill="url(#paint55_linear_480_4879)"/>
<path d="M217.312 87.7199C217.312 87.7199 217.822 82.3649 220.882 80.4099C220.882 80.4099 223.007 81.9399 222.752 86.4449C222.752 86.4449 220.967 85.7649 217.312 87.7199Z" fill="url(#paint56_linear_480_4879)"/>
<path d="M198.612 85.085C198.612 85.085 200.737 87.72 206.687 88.23C206.687 88.23 207.792 86.53 207.707 83.13C207.707 83.13 202.267 82.62 198.612 85.085Z" fill="#FFEBED"/>
<path d="M217.312 87.72V88.485C217.312 88.485 218.247 90.355 221.477 90.695C221.477 90.695 222.497 89.08 222.582 86.36C222.667 86.445 220.542 85.935 217.312 87.72Z" fill="#FFEBED"/>
<path d="M204.987 82.96C204.987 82.96 203.457 84.83 203.627 87.635C203.627 87.635 205.582 88.06 206.687 88.145C206.687 88.145 207.962 86.36 207.707 83.045C207.707 83.13 206.007 82.705 204.987 82.96Z" fill="#C99D7F"/>
<path d="M220.457 86.5299C220.457 86.5299 219.607 87.4649 219.437 90.2699C219.437 90.2699 220.627 90.7799 221.562 90.7799C221.562 90.7799 222.752 89.0799 222.667 86.4449C222.667 86.4449 221.817 86.1049 220.457 86.5299Z" fill="#C99D7F"/>
<path d="M204.477 87.89C204.477 87.89 203.967 84.32 206.007 82.875L207.707 83.13C207.707 83.13 208.302 86.02 206.687 88.23C206.687 88.23 204.987 87.975 204.477 87.89Z" fill="#8E6836"/>
<path d="M221.222 86.3599C221.222 86.3599 220.457 87.9749 220.117 90.4399C220.117 90.4399 220.712 90.6949 221.562 90.6949C221.562 90.6949 222.752 89.2499 222.667 86.3599C222.667 86.4449 221.817 86.1899 221.222 86.3599Z" fill="#8E6836"/>
<path d="M198.612 85.085C198.612 85.085 202.522 82.79 209.322 84.065L208.047 83.13C208.047 83.13 203.287 81.685 198.612 85.085Z" fill="#632C11"/>
<path d="M217.312 87.7199C217.312 87.7199 220.457 86.0199 224.197 86.9549L222.667 85.8499C222.667 85.8499 220.202 85.4249 217.312 87.7199Z" fill="#632C11"/>
<path d="M202.947 85.085C202.947 85.085 204.052 84.83 204.987 85.85C204.987 85.85 203.627 86.19 202.947 85.085Z" fill="white"/>
<path d="M218.757 88.23C218.757 88.23 220.457 87.89 221.052 88.655C221.052 88.655 220.117 89.25 218.757 88.23Z" fill="white"/>
<path d="M199.037 85.5099C199.037 85.5099 202.097 88.5699 207.027 89.2499L207.112 87.4649L206.687 88.2299C206.687 88.2299 202.012 87.8899 199.037 85.5099Z" fill="#C69465"/>
<path d="M217.312 88.485C217.312 88.485 217.822 90.44 221.817 91.29L221.647 90.355L221.392 90.695C221.562 90.78 218.672 90.355 217.312 88.485Z" fill="#C69465"/>
<path d="M209.322 96.3899C209.322 96.3899 210.852 96.0499 213.572 96.3899C216.292 96.7299 219.352 97.4949 221.052 96.3899C221.052 96.3899 218.842 98.5999 216.887 98.9399C214.932 99.2799 212.042 97.5799 212.042 97.5799H210.767C210.682 97.5799 209.747 97.0699 209.322 96.3899Z" fill="#CB645F"/>
<path d="M210.852 97.58C210.852 97.58 211.532 97.155 212.127 97.24C212.722 97.325 213.232 98.175 213.232 98.175C213.232 98.175 212.042 97.58 210.852 97.58Z" fill="#9F744A"/>
<path d="M221.052 96.39C221.732 95.71 218.077 89.08 216.292 88.825C214.507 88.57 212.892 96.22 212.892 96.22C212.892 96.22 215.357 96.56 217.737 96.9C220.117 97.155 221.052 96.39 221.052 96.39Z" fill="#FFBCAF"/>
<path opacity="0.6" d="M223.687 75.5649C222.667 75.3949 219.097 79.7299 219.097 79.7299C219.097 79.7299 216.887 86.6999 217.312 88.7399C217.737 90.7799 223.262 91.8849 223.262 91.8849L223.517 91.5449C223.262 90.8649 223.007 90.1849 222.837 89.4199C222.412 87.2949 223.347 82.3649 224.027 78.3699C224.027 78.3699 224.282 77.5199 224.282 76.7549C224.282 76.2449 224.197 75.6499 223.687 75.5649Z" fill="url(#paint57_linear_480_4879)"/>
<path d="M223.517 103.955C222.412 101.575 223.092 100.385 213.232 99.1099C199.292 97.3249 198.102 101.49 195.807 100.895C195.722 100.895 195.637 100.81 195.552 100.81C193.002 99.7899 186.967 93.9249 186.797 85.9349C186.627 77.6049 192.237 71.7399 192.237 71.7399C190.197 70.0399 189.432 65.1099 191.557 63.0699C193.767 60.9449 197.422 61.4549 206.517 62.3899C215.612 63.3249 215.612 62.8149 215.612 62.8149C218.502 63.5799 220.202 66.2999 220.627 67.1499C220.712 67.3199 220.797 67.4049 220.797 67.4049L221.902 66.3849C224.962 70.8049 224.367 75.6499 224.367 75.6499C224.367 75.6499 229.382 65.5349 228.787 64.0899C227.767 61.4549 224.877 57.5449 224.707 57.2899C224.707 57.2899 223.857 49.5549 221.477 49.5549C219.097 49.5549 208.727 51.8499 208.727 51.8499C209.832 49.2149 209.662 46.1549 209.662 46.1549C209.662 46.1549 209.662 46.1549 209.577 46.1549C206.177 49.1299 202.947 49.4699 198.272 51.6799C195.892 52.7849 194.787 53.8049 193.937 54.8249L193.597 55.1649L193.257 55.5899C192.917 56.0149 192.577 56.4399 192.237 56.8649C192.237 56.8649 192.237 56.9499 192.152 56.9499C191.812 57.3749 191.302 57.7999 190.792 58.2249C187.732 60.6899 181.017 62.3899 180.167 65.0249C179.402 67.6599 181.187 71.2299 182.122 74.9699C183.057 78.7099 182.632 81.9399 182.632 81.9399C182.632 81.9399 185.862 86.1049 184.757 92.1399C183.822 97.5799 181.782 98.4299 181.782 98.4299C180.337 101.405 181.017 104.21 181.017 104.21C183.992 116.025 196.317 123.08 196.317 123.08C207.282 127.16 214.507 125.375 214.507 125.375C222.497 120.19 225.217 103.02 225.302 102.17C225.302 102.255 223.857 104.55 223.517 103.955ZM218.587 114.835C216.632 114.495 216.207 109.65 215.612 108.97C214.932 108.375 211.447 108.63 211.447 108.63C211.447 108.63 208.217 112.285 206.942 112.37C205.667 112.455 198.782 109.65 200.227 105.485C201.672 101.32 206.942 100.725 206.942 100.725C206.942 100.725 209.662 103.02 213.657 103.275C217.652 103.53 219.182 102.765 219.607 102.595C220.117 102.34 222.667 103.53 222.582 107.185C222.667 109.82 220.542 115.175 218.587 114.835Z" fill="url(#paint58_linear_480_4879)"/>
<path d="M218.162 90.2699C218.162 90.2699 221.647 94.6049 221.307 96.2199C220.967 98.0049 216.887 98.9399 216.887 98.9399C216.887 98.9399 220.117 97.8349 220.797 96.2199C220.797 96.2199 219.947 92.9049 218.162 90.2699Z" fill="#D2726C"/>
<path opacity="0.6" d="M224.452 75.48C224.452 75.48 225.047 70.635 221.987 66.215C224.452 61.795 224.792 57.12 224.792 57.12C225.642 59.16 226.067 63.155 226.067 63.155L228.872 63.92C229.382 65.365 224.452 75.48 224.452 75.48Z" fill="url(#paint59_linear_480_4879)"/>
<path opacity="0.6" d="M220.627 66.9799C220.117 66.1299 218.502 63.4099 215.612 62.6449C215.612 62.6449 215.612 63.2399 206.517 62.2199C197.422 61.2849 193.682 60.7749 191.557 62.8999C189.347 65.0249 190.197 69.8699 192.237 71.5699C192.237 71.5699 186.712 77.4349 186.797 85.7649C186.967 93.7549 193.002 99.7049 195.552 100.64L195.467 101.49C195.467 101.49 195.892 119.765 200.397 121.21C204.817 122.655 214.082 121.89 214.932 122.74C215.782 123.59 214.847 124.95 214.762 125.12C214.762 125.12 207.537 126.905 196.572 122.825C196.572 122.825 184.247 115.77 181.272 103.955C181.272 103.955 180.592 101.15 182.037 98.1749C182.037 98.1749 184.077 97.3249 185.012 91.8849C186.117 85.8499 182.887 81.6849 182.887 81.6849C182.887 81.6849 183.312 78.4549 182.377 74.7149C181.442 70.9749 179.572 67.4049 180.422 64.7699C185.607 65.6199 188.922 62.8999 188.922 62.8999C188.922 62.8999 189.857 61.6249 193.852 61.0299C197.847 60.3499 213.827 61.9649 213.827 61.9649C213.827 61.9649 212.212 60.6049 208.812 59.7549C205.582 58.9049 194.702 59.9249 193.512 60.0099C194.787 59.7549 207.112 57.6299 208.557 58.0549C210.087 58.4799 215.442 60.9449 215.442 60.9449C214.932 58.4799 210.172 52.5299 210.172 52.5299C210.172 52.5299 203.372 52.6149 198.952 53.5499C195.042 54.3999 192.832 56.1849 192.407 56.5249L193.427 55.2499L193.767 54.8249L194.107 54.4849L195.637 54.2299L203.372 51.0849C206.007 49.7249 209.322 46.2399 209.747 45.8149H209.832C209.832 45.8149 210.002 48.8749 208.897 51.5099C215.442 50.6599 217.652 51.0849 217.652 51.0849C220.542 55.5899 220.627 66.9799 220.627 66.9799Z" fill="url(#paint60_linear_480_4879)"/>
<path opacity="0.5" d="M196.487 122.91C196.487 122.91 200.482 121.975 206.602 122.23C212.637 122.485 216.122 122.485 214.677 125.205C214.592 125.205 207.027 126.99 196.487 122.91Z" fill="url(#paint61_linear_480_4879)"/>
<path d="M217.567 51.3399C217.567 51.3399 221.222 49.8949 222.752 50.1499C222.752 50.1499 222.157 49.3849 221.562 49.2149C220.967 49.0449 208.812 51.7649 208.812 51.7649C208.812 51.7649 216.377 50.8299 217.567 51.3399Z" fill="url(#paint62_linear_480_4879)"/>
<path d="M210.087 52.6999C210.087 52.6999 209.832 56.6949 208.472 58.1399L193.427 60.0949L189.007 59.3299C189.007 59.3299 190.707 58.5649 192.577 56.4399C194.532 54.2299 204.307 52.1049 210.087 52.6999Z" fill="url(#paint63_linear_480_4879)"/>
<path d="M224.707 57.12C224.707 57.12 225.897 61.115 225.982 63.155L228.787 63.92C228.872 63.92 228.022 60.945 224.707 57.12Z" fill="url(#paint64_linear_480_4879)"/>
<path opacity="0.8" d="M183.737 91.3749C183.737 91.3749 182.717 86.2749 180.082 83.8099C177.532 81.2599 174.557 82.1099 174.557 82.1099C174.557 82.1099 175.322 91.5449 176.172 93.8399C177.022 96.1349 178.297 96.7299 178.297 96.7299C178.297 96.7299 176.512 95.1149 176.257 92.0549C176.002 88.9099 175.917 84.5749 176.597 84.0649C177.277 83.5549 180.082 85.5949 180.082 85.5949C180.082 85.5949 179.232 86.6999 178.722 89.4199C178.212 92.2249 180.167 94.1799 180.847 94.1799C181.612 94.1799 180.847 90.9499 180.932 90.0999C181.017 88.9949 182.632 89.2499 183.737 91.3749Z" fill="url(#paint65_linear_480_4879)"/>
<path opacity="0.8" d="M181.187 85.085C181.187 85.085 178.382 86.955 178.637 90.78C178.977 94.605 181.102 94.435 181.102 93.585C181.102 92.82 180.677 90.695 180.932 89.59C181.187 88.4 183.057 88.91 183.057 88.91C183.057 88.91 181.782 85.85 181.187 85.085Z" fill="url(#paint66_linear_480_4879)"/>
<path d="M225.472 102.085C225.472 102.085 221.987 118.15 214.677 125.29C214.592 125.205 222.922 121.975 225.472 102.085Z" fill="#FF8234"/>
<path d="M221.562 49.215C221.562 49.215 223.432 50.66 223.772 55.675C224.112 60.69 221.987 66.215 221.987 66.215C221.987 66.215 224.792 62.05 225.047 57.46C225.217 52.955 223.007 49.81 221.562 49.215Z" fill="#FF8234"/>
<path d="M199.037 59.6699C199.037 59.6699 203.287 61.1149 208.047 61.5399C212.807 61.9649 213.742 62.0499 213.742 62.0499C213.742 62.0499 211.872 60.1799 207.792 59.6699C203.797 59.1599 199.037 59.6699 199.037 59.6699Z" fill="url(#paint67_linear_480_4879)"/>
<path d="M219.777 102.425C219.777 102.425 221.817 102.425 222.667 104.975C223.347 107.015 223.517 108.8 223.517 108.8L224.282 105.995C224.282 105.995 223.347 102.425 222.327 101.575C221.647 100.98 220.372 100.385 219.777 100.555V102.425Z" fill="url(#paint68_linear_480_4879)"/>
<path d="M214.252 99.7899L214.592 102.85C214.592 102.85 217.057 103.02 218.757 102.34L219.012 100.47C219.097 100.555 215.867 99.7049 214.252 99.7899Z" fill="url(#paint69_linear_480_4879)"/>
<path d="M225.727 139.4C225.727 139.4 240.347 150.11 242.302 153.765C244.172 157.42 244.937 168.98 247.572 173.995C247.572 173.995 245.787 165.835 244.597 159.46C243.322 153.085 243.662 153 242.982 151.385C242.217 149.77 231.252 142.12 225.727 139.4Z" fill="#FF8234"/>
<path d="M223.092 198.9C223.092 198.9 216.037 229.075 216.377 231.115C216.717 233.155 221.307 237.32 221.477 238.425C221.477 238.425 217.992 243.1 218.162 244.12C218.332 245.14 224.282 251.685 224.112 253.725C224.027 254.32 220.202 260.695 220.202 260.695C220.202 260.695 224.537 254.405 224.792 253.47C225.047 252.45 219.437 244.12 219.267 243.27C218.842 241.06 222.072 239.445 222.157 238C222.242 236.555 217.822 232.985 217.822 230.605C217.737 228.31 223.092 198.9 223.092 198.9Z" fill="#FF8234"/>
<path d="M224.537 270.895C224.537 270.895 239.752 305.405 245.022 340C244.937 340 244.087 306.255 224.537 270.895Z" fill="#FF8234"/>
<path d="M127.807 132.43C127.807 132.43 123.897 131.58 122.197 128.18C120.582 124.695 121.602 119.765 121.602 119.765C121.602 119.765 124.662 125.715 126.192 127.755C127.807 129.71 128.232 132.005 127.807 132.43Z" fill="#FFBCAF"/>
</g>
<mask id="mask4_480_4879" style="mask-type:luminance" maskUnits="userSpaceOnUse" x="-50" y="0" width="511" height="340">
<path d="M460.667 0H-49.3333V340H460.667V0Z" fill="white"/>
</mask>
<g mask="url(#mask4_480_4879)">
<path opacity="0.6" d="M249.612 114.41L252.332 192.44C252.417 195.5 254.967 197.965 258.112 197.965H392.497C395.642 197.965 398.192 195.5 398.277 192.355L400.147 113.39C400.232 110.16 397.597 107.44 394.367 107.525L255.307 108.46C252.077 108.46 249.442 111.18 249.612 114.41Z" fill="#F79036"/>
<path d="M392.497 198.22H258.027C254.797 198.22 252.162 195.67 252.077 192.44L249.357 114.41C249.272 112.795 249.867 111.265 250.972 110.075C252.077 108.885 253.607 108.29 255.222 108.205L394.282 107.27C395.897 107.27 397.427 107.865 398.532 109.055C399.637 110.245 400.317 111.775 400.232 113.39L398.362 192.355C398.362 195.67 395.727 198.22 392.497 198.22ZM394.367 107.78L255.307 108.715C253.777 108.715 252.417 109.31 251.312 110.415C250.292 111.52 249.697 112.965 249.782 114.41L252.502 192.44C252.587 195.415 255.052 197.795 258.027 197.795H392.412C395.387 197.795 397.852 195.33 397.937 192.355L399.807 113.39C399.807 111.86 399.297 110.415 398.192 109.395C397.257 108.375 395.812 107.78 394.367 107.78Z" fill="#A2714C"/>
<path opacity="0.6" d="M249.782 118.405H399.977L400.232 114.325C400.487 110.67 397.512 107.61 393.857 107.695L254.882 108.8C251.992 108.8 249.697 111.18 249.697 114.07L249.782 118.405Z" fill="url(#paint70_linear_480_4879)"/>
<path opacity="0.3" d="M257.347 124.695V169.83H303.332V124.44L257.347 124.695Z" fill="url(#paint71_linear_480_4879)"/>
<path opacity="0.3" d="M367.677 127.755H347.702V147.73H367.677V127.755Z" fill="url(#paint72_linear_480_4879)"/>
<path opacity="0.3" d="M391.307 127.755H371.332V147.73H391.307V127.755Z" fill="url(#paint73_linear_480_4879)"/>
<path opacity="0.3" d="M343.707 127.755H323.732V147.73H343.707V127.755Z" fill="url(#paint74_linear_480_4879)"/>
<path d="M391.307 159.375H340.137V164.135H391.307V159.375Z" fill="#D1D4FB"/>
<path d="M391.307 166.685H327.387V168.13H391.307V166.685Z" fill="#D1D4FB"/>
<path d="M340.222 150.28H327.982V151.725H340.222V150.28Z" fill="#D1D4FB"/>
<path d="M363.852 150.28H351.612V151.725H363.852V150.28Z" fill="#D1D4FB"/>
<path d="M387.397 150.28H375.157V151.725H387.397V150.28Z" fill="#D1D4FB"/>
<path d="M344.302 169.065H323.732V170.51H344.302V169.065Z" fill="#D1D4FB"/>
<path d="M391.307 171.445H327.387V172.89H391.307V171.445Z" fill="#D1D4FB"/>
<path d="M391.307 173.825H323.732V175.27H391.307V173.825Z" fill="#D1D4FB"/>
<path d="M391.307 176.205H323.732V177.65H391.307V176.205Z" fill="#D1D4FB"/>
<path d="M391.307 185.81H327.387V187.255H391.307V185.81Z" fill="#D1D4FB"/>
<path d="M391.307 188.19H323.732V189.635H391.307V188.19Z" fill="#D1D4FB"/>
<path d="M391.307 190.57H323.732V192.015H391.307V190.57Z" fill="#D1D4FB"/>
<path d="M388.587 178.585H323.732V180.03H388.587V178.585Z" fill="#D1D4FB"/>
<path d="M391.307 180.965H327.387V182.41H391.307V180.965Z" fill="#D1D4FB"/>
<path d="M378.472 183.345H323.732V184.79H378.472V183.345Z" fill="#D1D4FB"/>
<path d="M270.182 160.82C262.957 160.82 257.092 154.955 257.092 147.73C257.092 140.505 262.957 134.64 270.182 134.64C277.407 134.64 283.272 140.505 283.272 147.73C283.272 154.955 277.407 160.82 270.182 160.82ZM270.182 135.49C263.467 135.49 257.942 141.015 257.942 147.73C257.942 154.445 263.467 159.97 270.182 159.97C276.897 159.97 282.422 154.445 282.422 147.73C282.422 141.015 276.982 135.49 270.182 135.49Z" fill="#E0FFFF"/>
<path d="M270.182 154.87C274.125 154.87 277.322 151.673 277.322 147.73C277.322 143.787 274.125 140.59 270.182 140.59C266.238 140.59 263.042 143.787 263.042 147.73C263.042 151.673 266.238 154.87 270.182 154.87Z" fill="white"/>
<path d="M303.332 137.53C296.107 137.53 290.242 131.665 290.242 124.44C290.242 117.215 296.107 111.35 303.332 111.35C310.557 111.35 316.422 117.215 316.422 124.44C316.337 131.665 310.472 137.53 303.332 137.53ZM303.332 112.2C296.617 112.2 291.092 117.725 291.092 124.44C291.092 131.155 296.617 136.68 303.332 136.68C310.047 136.68 315.572 131.155 315.572 124.44C315.487 117.725 310.047 112.2 303.332 112.2Z" fill="#E0FFFF"/>
<path d="M309.895 125.466C310.471 121.803 307.969 118.366 304.305 117.79C300.642 117.213 297.205 119.716 296.629 123.379C296.052 127.043 298.555 130.48 302.218 131.056C305.882 131.632 309.319 129.13 309.895 125.466Z" fill="white"/>
<path d="M255.052 112.285L255.987 110.84L261.172 115.345L260.407 116.45L255.052 112.285Z" fill="white"/>
<path d="M261.257 112.285L260.322 110.84L255.137 115.345L255.987 116.45L261.257 112.285Z" fill="white"/>
<path d="M396.237 111.775H349.997V114.07H396.237V111.775Z" fill="white"/>
</g>
<mask id="mask5_480_4879" style="mask-type:luminance" maskUnits="userSpaceOnUse" x="-50" y="0" width="511" height="340">
<path d="M460.667 0H-49.3333V340H460.667V0Z" fill="white"/>
</mask>
<g mask="url(#mask5_480_4879)">
<path d="M106.472 78.2849V98.3449L130.527 98.5999L130.867 77.6899L106.472 78.2849Z" fill="url(#paint75_linear_480_4879)"/>
<path d="M130.867 77.6899L132.397 80.3249L131.632 98.5999H130.527L130.867 77.6899Z" fill="url(#paint76_linear_480_4879)"/>
<path d="M110.807 85.085L113.017 81.855L125.002 91.97L123.217 94.35L110.807 85.085Z" fill="white"/>
<path d="M125.342 85.085L123.132 81.855L111.147 91.97L112.932 94.35L125.342 85.085Z" fill="white"/>
</g>
<mask id="mask6_480_4879" style="mask-type:luminance" maskUnits="userSpaceOnUse" x="-50" y="0" width="511" height="340">
<path d="M460.667 0H-49.3333V340H460.667V0Z" fill="white"/>
</mask>
<g mask="url(#mask6_480_4879)">
<path opacity="0.81" d="M162.572 314.67H80.3769C76.7219 314.67 73.7469 311.78 73.6619 308.125L72.1319 240.72C72.0469 236.98 75.1069 233.835 78.8469 233.835H164.442C168.267 233.835 171.242 236.98 171.157 240.72L169.287 308.125C169.202 311.78 166.227 314.67 162.572 314.67Z" fill="url(#paint77_linear_480_4879)"/>
<path d="M162.572 314.84H80.3768C76.6368 314.84 73.4918 311.78 73.4068 308.04L71.8768 240.635C71.7918 238.765 72.5568 236.98 73.8318 235.62C75.1068 234.26 76.8918 233.495 78.7618 233.495H164.357C166.227 233.495 168.012 234.26 169.372 235.62C170.732 236.98 171.412 238.765 171.327 240.635L169.457 308.04C169.372 311.865 166.312 314.84 162.572 314.84ZM78.8468 234.005C77.0618 234.005 75.4468 234.685 74.1718 235.96C72.8968 237.235 72.3018 238.935 72.3018 240.635L73.8318 308.04C73.9168 311.525 76.8068 314.415 80.3768 314.415H162.572C166.142 314.415 169.032 311.61 169.117 308.04L170.987 240.635C171.072 238.85 170.392 237.15 169.117 235.875C167.842 234.6 166.227 233.92 164.442 233.92H78.8468V234.005Z" fill="#A26C3D"/>
<path d="M137.412 247.605H94.2317V249.475H137.412V247.605Z" fill="white"/>
<path d="M115.822 252.11H94.2317V253.98H115.822V252.11Z" fill="white"/>
<path d="M115.822 255.85H94.2317V257.72H115.822V255.85Z" fill="white"/>
<path d="M135.457 255.85H118.287V257.72H135.457V255.85Z" fill="white"/>
<path d="M129.082 259.59H94.2317V261.46H129.082V259.59Z" fill="white"/>
<path d="M106.642 263.33H94.2317V265.2H106.642V263.33Z" fill="white"/>
<path d="M130.612 274.635H109.192V276.505H130.612V274.635Z" fill="white"/>
<path d="M133.077 267.07H94.2317V268.94H133.077V267.07Z" fill="white"/>
<path d="M124.152 270.895H94.2317V272.765H124.152V270.895Z" fill="white"/>
<path d="M108.257 274.635H94.2317V276.505H108.257V274.635Z" fill="white"/>
<path d="M115.822 278.375H94.2317V280.245H115.822V278.375Z" fill="white"/>
<path d="M100.437 282.115H94.2317V283.985H100.437V282.115Z" fill="white"/>
<path d="M125.512 282.115H102.987V283.985H125.512V282.115Z" fill="white"/>
<path d="M130.612 285.77H109.192V287.64H130.612V285.77Z" fill="white"/>
<path d="M108.257 285.77H94.2317V287.64H108.257V285.77Z" fill="white"/>
<path d="M115.822 289.51H94.2317V291.38H115.822V289.51Z" fill="white"/>
<path d="M100.437 293.335H94.2317V295.205H100.437V293.335Z" fill="white"/>
<path d="M125.512 293.335H102.987V295.205H125.512V293.335Z" fill="white"/>
</g>
<mask id="mask7_480_4879" style="mask-type:luminance" maskUnits="userSpaceOnUse" x="-50" y="0" width="511" height="340">
<path d="M460.667 0H-49.3333V340H460.667V0Z" fill="white"/>
</mask>
<g mask="url(#mask7_480_4879)">
<path d="M383.062 92.48C383.062 94.605 381.362 96.305 379.237 96.305C377.112 96.305 375.412 94.605 375.412 92.48C375.412 90.355 377.112 88.655 379.237 88.655C381.362 88.74 383.062 90.44 383.062 92.48Z" fill="url(#paint78_linear_480_4879)"/>
</g>
<mask id="mask8_480_4879" style="mask-type:luminance" maskUnits="userSpaceOnUse" x="-50" y="0" width="511" height="340">
<path d="M460.667 0H-49.3333V340H460.667V0Z" fill="white"/>
</mask>
<g mask="url(#mask8_480_4879)">
<path d="M26.9968 180.625C26.9968 183.26 24.8718 185.385 22.2368 185.385C19.6018 185.385 17.4768 183.26 17.4768 180.625C17.4768 177.99 19.6018 175.865 22.2368 175.865C24.8718 175.865 26.9968 177.99 26.9968 180.625Z" fill="url(#paint79_linear_480_4879)"/>
</g>
<mask id="mask9_480_4879" style="mask-type:luminance" maskUnits="userSpaceOnUse" x="-50" y="0" width="511" height="340">
<path d="M460.667 0H-49.3333V340H460.667V0Z" fill="white"/>
</mask>
<g mask="url(#mask9_480_4879)">
<path d="M390.457 96.305C392.569 96.305 394.282 94.5925 394.282 92.48C394.282 90.3675 392.569 88.655 390.457 88.655C388.344 88.655 386.632 90.3675 386.632 92.48C386.632 94.5925 388.344 96.305 390.457 96.305Z" fill="url(#paint80_linear_480_4879)"/>
</g>
<mask id="mask10_480_4879" style="mask-type:luminance" maskUnits="userSpaceOnUse" x="-50" y="0" width="511" height="340">
<path d="M460.667 0H-49.3333V340H460.667V0Z" fill="white"/>
</mask>
<g mask="url(#mask10_480_4879)">
<path d="M145.487 121.38C146.989 121.38 148.207 120.162 148.207 118.66C148.207 117.158 146.989 115.94 145.487 115.94C143.985 115.94 142.767 117.158 142.767 118.66C142.767 120.162 143.985 121.38 145.487 121.38Z" fill="url(#paint81_linear_480_4879)"/>
</g>
<mask id="mask11_480_4879" style="mask-type:luminance" maskUnits="userSpaceOnUse" x="-50" y="0" width="511" height="340">
<path d="M460.667 0H-49.3333V340H460.667V0Z" fill="white"/>
</mask>
<g mask="url(#mask11_480_4879)">
<path d="M325.432 239.87C326.934 239.87 328.152 238.652 328.152 237.15C328.152 235.648 326.934 234.43 325.432 234.43C323.929 234.43 322.712 235.648 322.712 237.15C322.712 238.652 323.929 239.87 325.432 239.87Z" fill="url(#paint82_linear_480_4879)"/>
</g>
<mask id="mask12_480_4879" style="mask-type:luminance" maskUnits="userSpaceOnUse" x="-50" y="0" width="511" height="340">
<path d="M460.667 0H-49.3333V340H460.667V0Z" fill="white"/>
</mask>
<g mask="url(#mask12_480_4879)">
<path d="M46.1217 266.305C47.4361 266.305 48.5017 265.239 48.5017 263.925C48.5017 262.611 47.4361 261.545 46.1217 261.545C44.8073 261.545 43.7417 262.611 43.7417 263.925C43.7417 265.239 44.8073 266.305 46.1217 266.305Z" fill="url(#paint83_linear_480_4879)"/>
</g>
<mask id="mask13_480_4879" style="mask-type:luminance" maskUnits="userSpaceOnUse" x="-50" y="0" width="511" height="340">
<path d="M460.667 0H-49.3333V340H460.667V0Z" fill="white"/>
</mask>
<g mask="url(#mask13_480_4879)">
<path opacity="0.73" d="M87.0919 240.38H45.6118C42.2968 240.38 39.5769 237.745 39.4069 234.43L38.4719 207.145C38.3869 203.66 41.1918 200.77 44.6768 200.77H87.9418C91.4268 200.77 94.2319 203.66 94.1469 207.145L93.2969 234.43C93.2119 237.66 90.4068 240.38 87.0919 240.38Z" fill="url(#paint84_linear_480_4879)"/>
<path d="M87.0918 240.55H45.6118C42.1268 240.55 39.3218 237.83 39.2368 234.345L38.3018 207.06C38.2168 205.275 38.8968 203.66 40.0868 202.385C41.2768 201.11 42.9768 200.43 44.6768 200.43H87.9418C89.7268 200.43 91.3418 201.11 92.5318 202.385C93.7218 203.66 94.4018 205.275 94.3168 207.06L93.4668 234.345C93.3818 237.83 90.5768 240.55 87.0918 240.55ZM44.6768 200.94C43.0618 200.94 41.5318 201.62 40.3418 202.725C39.1518 203.83 38.6418 205.445 38.6418 207.06L39.5768 234.345C39.6618 237.575 42.2968 240.125 45.5268 240.125H87.0068C90.2368 240.125 92.8718 237.575 92.9568 234.345L93.8068 207.06C93.8918 205.445 93.2968 203.915 92.1068 202.725C91.0018 201.535 89.4718 200.94 87.8568 200.94H44.6768Z" fill="#A2733D"/>
<path d="M56.6619 210.46L46.4619 222.36L56.8319 231.2V226.61L50.7969 221.425L56.4069 215.05L56.6619 210.46Z" fill="white"/>
<path d="M74.6818 211.055L84.8818 222.87L74.4268 231.71V227.12L80.4618 221.935L73.7468 214.88L74.6818 211.055Z" fill="white"/>
<path d="M58.8718 231.2L67.7968 211.565H71.9618L61.9318 231.2H58.8718Z" fill="white"/>
</g>
<mask id="mask14_480_4879" style="mask-type:luminance" maskUnits="userSpaceOnUse" x="-50" y="0" width="511" height="340">
<path d="M460.667 0H-49.3333V340H460.667V0Z" fill="white"/>
</mask>
<g mask="url(#mask14_480_4879)">
<path opacity="0.73" d="M366.147 296.48H314.297C310.132 296.48 306.732 293.165 306.562 289L305.372 254.83C305.202 250.495 308.772 246.84 313.107 246.84H367.167C371.502 246.84 375.072 250.495 374.902 254.83L373.882 289C373.797 293.165 370.312 296.48 366.147 296.48Z" fill="url(#paint85_linear_480_4879)"/>
<path d="M366.147 296.735H314.297C309.962 296.735 306.477 293.335 306.307 289.085L305.117 254.915C305.032 252.705 305.797 250.665 307.327 249.135C308.857 247.605 310.897 246.67 313.022 246.67H367.167C369.377 246.67 371.332 247.52 372.862 249.05C374.392 250.58 375.157 252.705 375.072 254.83L374.052 289C373.967 293.335 370.482 296.735 366.147 296.735ZM313.107 247.095C311.067 247.095 309.112 247.945 307.667 249.39C306.222 250.835 305.457 252.79 305.542 254.915L306.732 289.085C306.902 293.165 310.217 296.395 314.297 296.395H366.147C370.227 296.395 373.542 293.165 373.712 289.085L374.732 254.915C374.817 252.875 374.052 250.92 372.607 249.475C371.162 248.03 369.292 247.18 367.167 247.18H313.107V247.095Z" fill="#A2733D"/>
<path d="M363.257 252.365H315.742V280.585H363.257V252.365Z" fill="#D1D4FB"/>
<path d="M335.377 259.42V273.615L347.447 265.795L335.377 259.42Z" fill="white"/>
<path d="M363.257 285.77H315.742V288.32H363.257V285.77Z" fill="#D1D4FB"/>
<path d="M328.067 285.77H315.742V288.32H328.067V285.77Z" fill="white"/>
</g>
<mask id="mask15_480_4879" style="mask-type:luminance" maskUnits="userSpaceOnUse" x="-50" y="0" width="511" height="340">
<path d="M460.667 0H-49.3333V340H460.667V0Z" fill="white"/>
</mask>
<g mask="url(#mask15_480_4879)">
<path fill-rule="evenodd" clip-rule="evenodd" d="M280.977 243.44L278.512 250.495C279.872 246.585 281.827 244.12 280.977 243.44ZM278.512 250.58L276.047 257.635C276.642 257.465 277.152 254.49 278.512 250.58ZM280.977 243.44L278.512 250.495C279.872 246.585 281.827 244.12 280.977 243.44ZM278.512 250.58L276.047 257.635C276.642 257.465 277.152 254.49 278.512 250.58ZM285.652 256.7L288.032 258.06L290.667 250.92L287.862 250.495C287.947 250.24 287.947 249.985 288.032 249.73C288.202 248.54 288.287 247.35 288.287 246.16L291.177 244.29L289.817 238L287.012 240.635C286.587 239.87 286.162 239.105 285.567 238.595C285.397 238.425 285.227 238.255 285.057 238.085L286.757 234.175L282.252 232.73L281.147 236.725C280.127 236.725 279.107 236.98 278.087 237.405L277.577 233.665L272.562 237.49L273.752 240.805C272.817 241.825 272.052 243.015 271.287 244.375L268.907 243.015L266.272 250.155L269.077 250.58C268.822 252.11 268.652 253.555 268.737 254.915L265.847 256.785L267.207 263.075L270.012 260.44C270.522 261.46 271.117 262.31 271.967 262.99L270.267 266.9L274.772 268.685L275.452 266.135L275.962 264.435C276.982 264.435 278.002 264.18 279.022 263.755L279.532 267.495L284.547 263.67L283.357 260.355C284.037 259.505 284.717 258.655 285.312 257.635C285.312 257.295 285.482 256.955 285.652 256.7ZM278.512 250.58C277.152 254.49 278.512 258.57 276.047 257.635C273.582 256.785 272.647 252.875 274.007 248.965C275.367 245.055 278.512 242.59 280.977 243.44C283.442 244.29 279.872 246.585 278.512 250.58ZM280.977 243.44L278.512 250.495C279.872 246.585 281.827 244.12 280.977 243.44ZM278.512 250.58L276.047 257.635C276.642 257.465 277.152 254.49 278.512 250.58Z" fill="url(#paint86_linear_480_4879)"/>
<path fill-rule="evenodd" clip-rule="evenodd" d="M288.032 258.06L290.667 250.92L288.032 249.645L287.607 249.475L287.862 245.565L290.837 244.12L289.902 238.085L283.527 235.96L284.717 238.765L286.927 234.175L282.422 232.73L280.552 232.135L276.047 230.35L275.197 233.41L271.287 231.54L266.272 235.365L267.802 239.445L263.127 252.45L260.832 260.865L265.252 261.375L263.807 264.69L268.312 266.475L274.687 268.6L273.667 266.56L272.987 265.285L275.367 266.05L279.447 267.41L284.462 263.585L281.402 259.93L285.312 257.55L288.032 258.06ZM274.007 248.965C275.367 245.055 278.512 242.59 280.977 243.44L278.512 250.495L276.047 257.55C273.497 256.785 272.562 252.875 274.007 248.965Z" fill="url(#paint87_linear_480_4879)"/>
<path fill-rule="evenodd" clip-rule="evenodd" d="M281.657 255.935L284.292 248.795L281.487 248.37C281.742 246.84 281.912 245.395 281.827 244.035L284.717 242.165L283.357 235.875L280.552 238.51C280.042 237.49 279.447 236.64 278.682 235.96L280.382 232.05L275.877 230.265L274.687 234.515C273.667 234.515 272.647 234.77 271.627 235.195L271.117 231.455L266.102 235.28L267.292 238.595C266.357 239.615 265.592 240.805 264.827 242.165L262.447 240.805L259.812 247.945L262.617 248.37C262.362 249.9 262.192 251.345 262.277 252.705L259.387 254.575L260.747 260.865L263.552 258.23C264.062 259.25 264.657 260.1 265.422 260.78L263.722 264.69L268.227 266.475L269.417 262.225C270.437 262.225 271.457 261.97 272.477 261.545L272.987 265.285L278.002 261.46L276.812 258.145C277.747 257.125 278.512 255.935 279.277 254.575L281.657 255.935ZM269.587 255.51C267.122 254.66 266.187 250.75 267.547 246.84C268.907 242.93 272.052 240.465 274.517 241.315C276.982 242.165 277.917 246.075 276.557 249.985C275.197 253.98 272.052 256.445 269.587 255.51Z" fill="url(#paint88_linear_480_4879)"/>
<path opacity="0.5" fill-rule="evenodd" clip-rule="evenodd" d="M291.177 244.375L284.717 242.25L281.827 244.12L288.202 246.16L291.177 244.375Z" fill="#603117"/>
<path fill-rule="evenodd" clip-rule="evenodd" d="M284.377 263.585L277.917 261.46L276.812 258.145L283.187 260.27L284.377 263.585Z" fill="#FFE1B3"/>
<path opacity="0.5" fill-rule="evenodd" clip-rule="evenodd" d="M278.682 236.13L282.252 237.15L283.442 235.96L285.737 236.725L286.842 234.26L280.382 232.135L278.682 236.13Z" fill="#603117"/>
<path opacity="0.5" fill-rule="evenodd" clip-rule="evenodd" d="M269.332 262.225L272.732 263.585L272.477 261.46C272.477 261.545 270.607 262.48 269.332 262.225Z" fill="#603117"/>
<path opacity="0.5" fill-rule="evenodd" clip-rule="evenodd" d="M269.842 243.015L275.537 245.99C275.537 245.99 276.387 244.885 276.982 244.46C276.982 244.46 275.537 238.255 269.842 243.015Z" fill="#603117"/>
</g>
<mask id="mask16_480_4879" style="mask-type:luminance" maskUnits="userSpaceOnUse" x="-50" y="0" width="511" height="340">
<path d="M460.667 0H-49.3333V340H460.667V0Z" fill="white"/>
</mask>
<g mask="url(#mask16_480_4879)">
<path d="M140.047 31.45L145.487 42.33L141.832 44.03L136.732 34L140.047 31.45Z" fill="#FF6C1D"/>
</g>
<mask id="mask17_480_4879" style="mask-type:luminance" maskUnits="userSpaceOnUse" x="-50" y="0" width="511" height="340">
<path d="M460.667 0H-49.3333V340H460.667V0Z" fill="white"/>
</mask>
<g mask="url(#mask17_480_4879)">
<path d="M17.2217 285.855L22.3217 291.38L24.2767 289.085L19.5167 283.9L17.2217 285.855Z" fill="#FF8E68"/>
</g>
<mask id="mask18_480_4879" style="mask-type:luminance" maskUnits="userSpaceOnUse" x="-50" y="0" width="511" height="340">
<path d="M460.667 0H-49.3333V340H460.667V0Z" fill="white"/>
</mask>
<g mask="url(#mask18_480_4879)">
<path d="M273.752 98.09L268.652 101.15L266.612 97.325L272.222 94.01L273.752 98.09Z" fill="#E08631"/>
</g>
<mask id="mask19_480_4879" style="mask-type:luminance" maskUnits="userSpaceOnUse" x="-50" y="0" width="511" height="340">
<path d="M460.667 0H-49.3333V340H460.667V0Z" fill="white"/>
</mask>
<g mask="url(#mask19_480_4879)">
<path d="M298.827 293.335L291.517 298.52L289.477 294.61L296.532 290.53L298.827 293.335Z" fill="#E08631"/>
</g>
<mask id="mask20_480_4879" style="mask-type:luminance" maskUnits="userSpaceOnUse" x="-50" y="0" width="511" height="340">
<path d="M460.667 0H-49.3333V340H460.667V0Z" fill="white"/>
</mask>
<g mask="url(#mask20_480_4879)">
<path fill-rule="evenodd" clip-rule="evenodd" d="M289.137 71.655L287.947 43.01H325.432L323.817 71.57L289.137 71.655Z" fill="url(#paint89_linear_480_4879)"/>
<path fill-rule="evenodd" clip-rule="evenodd" d="M287.947 43.01L286.842 44.71L287.947 71.655H289.137L287.947 43.01Z" fill="url(#paint90_linear_480_4879)"/>
<path d="M300.357 48.79L294.492 48.11L295.342 67.745L300.357 67.235V65.195L297.467 65.28L297.127 50.15L300.357 50.235V48.79Z" fill="white"/>
<path d="M312.427 48.79L318.292 48.11L317.527 67.745L312.427 67.235V65.195L315.317 65.28L315.657 50.15L312.427 50.235V48.79Z" fill="white"/>
</g>
<mask id="mask21_480_4879" style="mask-type:luminance" maskUnits="userSpaceOnUse" x="-50" y="0" width="511" height="340">
<path d="M460.667 0H-49.3333V340H460.667V0Z" fill="white"/>
</mask>
<g mask="url(#mask21_480_4879)">
<path fill-rule="evenodd" clip-rule="evenodd" d="M30.9069 134.3L31.6719 114.75H6.17188L7.19187 134.215L30.9069 134.3Z" fill="url(#paint91_linear_480_4879)"/>
<path fill-rule="evenodd" clip-rule="evenodd" d="M31.672 114.75L32.437 115.94L31.672 134.3H30.907L31.672 114.75Z" fill="url(#paint92_linear_480_4879)"/>
<path d="M21.8968 118.745C21.8968 118.745 24.7018 118.66 25.2118 118.83C25.7218 119.085 25.0418 123.59 25.0418 123.59L26.1468 124.61L25.1268 125.63C25.1268 125.63 25.2118 130.22 24.5318 130.645C23.8518 131.07 21.6418 130.645 21.6418 130.645V129.455C21.6418 129.455 23.5118 129.54 23.7668 129.285C24.1068 129.03 24.0218 125.035 24.0218 125.035L24.5318 124.525L24.0218 123.93C24.0218 123.93 24.1068 121.04 24.0218 120.275C24.0218 119.765 21.8118 119.68 21.8118 119.68V118.745H21.8968Z" fill="white"/>
<path d="M15.4368 118.745C15.4368 118.745 12.6318 118.66 12.1218 118.83C11.6118 119.085 12.2918 123.59 12.2918 123.59L11.1868 124.61L12.2068 125.63C12.2068 125.63 12.1218 130.22 12.8018 130.645C13.4818 131.07 15.6918 130.645 15.6918 130.645V129.455C15.6918 129.455 13.8218 129.54 13.5668 129.285C13.3118 129.03 13.3118 125.035 13.3118 125.035L12.8018 124.525L13.3118 123.93C13.3118 123.93 13.2268 121.04 13.3118 120.275C13.3118 119.765 15.5218 119.68 15.5218 119.68V118.745H15.4368Z" fill="white"/>
</g>
<mask id="mask22_480_4879" style="mask-type:luminance" maskUnits="userSpaceOnUse" x="-50" y="0" width="511" height="340">
<path d="M460.667 0H-49.3333V340H460.667V0Z" fill="white"/>
</mask>
<g mask="url(#mask22_480_4879)">
<path d="M246.382 74.2049L240.092 57.7999L256.327 61.1999L246.382 74.2049ZM240.772 58.3949L246.467 73.3549L255.562 61.5399L240.772 58.3949Z" fill="#A2714C"/>
<path d="M296.325 298.716L290.847 306.188L291.19 306.439L296.667 298.967L296.325 298.716Z" fill="#A2714C"/>
<path d="M239.582 237.32L233.717 229.925L234.057 229.67L239.922 236.98L239.582 237.32Z" fill="#A2714C"/>
<path d="M57.4266 288.915L45.6116 280.33L45.8666 279.99L57.6816 288.575L57.4266 288.915Z" fill="#A2714C"/>
<path d="M55.8634 278.583L47.0552 290.145L47.3933 290.403L56.2015 278.84L55.8634 278.583Z" fill="#A2714C"/>
<path d="M30.943 159.113L30.7454 159.489L38.3448 163.482L38.5425 163.106L30.943 159.113Z" fill="#A2714C"/>
<path d="M331.552 60.6899L331.212 60.3499L339.967 50.3199L340.307 50.5749L331.552 60.6899Z" fill="#A2714C"/>
<path d="M160.255 85.0331L159.874 85.2224L163.812 93.1369L164.192 92.9476L160.255 85.0331Z" fill="#A2714C"/>
<path d="M107.589 218.299L97.4836 226.752L97.7563 227.078L107.862 218.625L107.589 218.299Z" fill="#A2714C"/>
</g>
</g>
<defs>
<linearGradient id="paint0_linear_480_4879" x1="93.5801" y1="207.299" x2="67.966" y2="152.476" gradientUnits="userSpaceOnUse">
<stop stop-color="#FFDECC"/>
<stop offset="1" stop-color="#FFD5BB"/>
</linearGradient>
<linearGradient id="paint1_linear_480_4879" x1="94.5762" y1="209.439" x2="68.962" y2="154.617" gradientUnits="userSpaceOnUse">
<stop stop-color="#E7C9A6"/>
<stop offset="1" stop-color="#BF8460"/>
</linearGradient>
<linearGradient id="paint2_linear_480_4879" x1="88.2082" y1="195.81" x2="77.4114" y2="172.701" gradientUnits="userSpaceOnUse">
<stop stop-color="#E7C9A6"/>
<stop offset="1" stop-color="#BF8460"/>
</linearGradient>
<linearGradient id="paint3_linear_480_4879" x1="74.3481" y1="174.696" x2="80.9069" y2="171.631" gradientUnits="userSpaceOnUse">
<stop stop-color="#E0B08B"/>
<stop offset="1" stop-color="#B77877"/>
</linearGradient>
<linearGradient id="paint4_linear_480_4879" x1="78.3388" y1="174.686" x2="76.4838" y2="170.716" gradientUnits="userSpaceOnUse">
<stop stop-color="white"/>
<stop offset="1" stop-color="#B77877"/>
</linearGradient>
<linearGradient id="paint5_linear_480_4879" x1="92.779" y1="196.548" x2="80.8765" y2="171.073" gradientUnits="userSpaceOnUse">
<stop/>
<stop offset="1" stop-color="white"/>
</linearGradient>
<linearGradient id="paint6_linear_480_4879" x1="188.921" y1="340" x2="188.921" y2="264.171" gradientUnits="userSpaceOnUse">
<stop stop-color="#C08F56"/>
<stop offset="1" stop-color="#95722C"/>
</linearGradient>
<radialGradient id="paint7_radial_480_4879" cx="0" cy="0" r="1" gradientUnits="userSpaceOnUse" gradientTransform="translate(151.997 312.729) rotate(12.9927) scale(15.2356 39.3642)">
<stop stop-color="#4B474B"/>
<stop offset="1"/>
</radialGradient>
<radialGradient id="paint8_radial_480_4879" cx="0" cy="0" r="1" gradientUnits="userSpaceOnUse" gradientTransform="translate(222.718 312.347) rotate(-15.6582) scale(15.2361 39.3632)">
<stop stop-color="#4B474B"/>
<stop offset="1"/>
</radialGradient>
<linearGradient id="paint9_linear_480_4879" x1="164.38" y1="313.379" x2="184.268" y2="313.379" gradientUnits="userSpaceOnUse">
<stop stop-color="#EFBD8C"/>
<stop offset="1" stop-color="#EEE1AF"/>
</linearGradient>
<linearGradient id="paint10_linear_480_4879" x1="210.854" y1="313.38" x2="190.964" y2="313.38" gradientUnits="userSpaceOnUse">
<stop stop-color="#EFBD8C"/>
<stop offset="1" stop-color="#EEE1AF"/>
</linearGradient>
<linearGradient id="paint11_linear_480_4879" x1="186.253" y1="340" x2="186.253" y2="264.171" gradientUnits="userSpaceOnUse">
<stop stop-color="#FFDBCC"/>
<stop offset="1" stop-color="#BB7F5F"/>
</linearGradient>
<linearGradient id="paint12_linear_480_4879" x1="195.08" y1="302.086" x2="195.08" y2="281.404" gradientUnits="userSpaceOnUse">
<stop stop-color="#FFDBCC"/>
<stop offset="1" stop-color="#BB7F5F"/>
</linearGradient>
<linearGradient id="paint13_linear_480_4879" x1="171.125" y1="294.48" x2="171.125" y2="274.218" gradientUnits="userSpaceOnUse">
<stop stop-color="#FFDBCC"/>
<stop offset="1" stop-color="#BB7F5F"/>
</linearGradient>
<linearGradient id="paint14_linear_480_4879" x1="191.678" y1="149.982" x2="191.678" y2="119.714" gradientUnits="userSpaceOnUse">
<stop stop-color="#F8DFCD"/>
<stop offset="1" stop-color="#F3EDFB"/>
</linearGradient>
<linearGradient id="paint15_linear_480_4879" x1="176.095" y1="134.818" x2="207.26" y2="134.818" gradientUnits="userSpaceOnUse">
<stop stop-color="#FFDBCC"/>
<stop offset="1" stop-color="#BB7F5F"/>
</linearGradient>
<linearGradient id="paint16_linear_480_4879" x1="182.766" y1="270.92" x2="182.766" y2="118.396" gradientUnits="userSpaceOnUse">
<stop stop-color="#EFBD8C"/>
<stop offset="1" stop-color="#EEE1AF"/>
</linearGradient>
<linearGradient id="paint17_linear_480_4879" x1="119.468" y1="175.878" x2="156.613" y2="175.878" gradientUnits="userSpaceOnUse">
<stop stop-color="#FFDBCC"/>
<stop offset="1" stop-color="#BB7F5F"/>
</linearGradient>
<linearGradient id="paint18_linear_480_4879" x1="118.319" y1="218.594" x2="118.319" y2="147.271" gradientUnits="userSpaceOnUse">
<stop stop-color="#EFBD8C"/>
<stop offset="1" stop-color="#F3D1C7"/>
</linearGradient>
<linearGradient id="paint19_linear_480_4879" x1="240.968" y1="198.038" x2="288.827" y2="198.038" gradientUnits="userSpaceOnUse">
<stop stop-color="#F1B399"/>
<stop offset="1" stop-color="#F3D1C7"/>
</linearGradient>
<linearGradient id="paint20_linear_480_4879" x1="102.751" y1="137.546" x2="102.751" y2="118.74" gradientUnits="userSpaceOnUse">
<stop offset="0.0159875" stop-color="#FFC2A9"/>
<stop offset="1" stop-color="#FF9595"/>
</linearGradient>
<linearGradient id="paint21_linear_480_4879" x1="114.594" y1="137.1" x2="114.594" y2="105.971" gradientUnits="userSpaceOnUse">
<stop stop-color="#FFEADB"/>
<stop offset="0.9944" stop-color="#C2997C"/>
</linearGradient>
<linearGradient id="paint22_linear_480_4879" x1="113.584" y1="158.279" x2="113.584" y2="110.288" gradientUnits="userSpaceOnUse">
<stop offset="0.0159875" stop-color="#FFC2A9"/>
<stop offset="1" stop-color="#FF9595"/>
</linearGradient>
<linearGradient id="paint23_linear_480_4879" x1="105.001" y1="150.789" x2="120.091" y2="150.789" gradientUnits="userSpaceOnUse">
<stop offset="0.0159875" stop-color="#D6BDA1"/>
<stop offset="0.9944" stop-color="#C49489"/>
</linearGradient>
<linearGradient id="paint24_linear_480_4879" x1="289.813" y1="187.51" x2="289.813" y2="123.334" gradientUnits="userSpaceOnUse">
<stop offset="0.0159875" stop-color="#FFC2A9"/>
<stop offset="1" stop-color="#FF9595"/>
</linearGradient>
<linearGradient id="paint25_linear_480_4879" x1="297.395" y1="166.949" x2="297.395" y2="135.065" gradientUnits="userSpaceOnUse">
<stop stop-color="#FFEADB"/>
<stop offset="0.9944" stop-color="#C2997C"/>
</linearGradient>
<linearGradient id="paint26_linear_480_4879" x1="303.685" y1="155.944" x2="303.685" y2="141.651" gradientUnits="userSpaceOnUse">
<stop stop-color="#FFB0B0"/>
<stop offset="0.984" stop-color="#FFC2A9"/>
</linearGradient>
<linearGradient id="paint27_linear_480_4879" x1="311.975" y1="158.145" x2="311.975" y2="150.307" gradientUnits="userSpaceOnUse">
<stop stop-color="#FFB0B0"/>
<stop offset="0.984" stop-color="#FFC2A9"/>
</linearGradient>
<linearGradient id="paint28_linear_480_4879" x1="278.452" y1="173.766" x2="293.03" y2="173.766" gradientUnits="userSpaceOnUse">
<stop offset="0.0159875" stop-color="#D6BDA1"/>
<stop offset="0.9944" stop-color="#C49489"/>
</linearGradient>
<linearGradient id="paint29_linear_480_4879" x1="258.165" y1="224.078" x2="258.165" y2="152.243" gradientUnits="userSpaceOnUse">
<stop stop-color="#FFDBCC"/>
<stop offset="1" stop-color="#BB7F5F"/>
</linearGradient>
<linearGradient id="paint30_linear_480_4879" x1="100.003" y1="209.605" x2="220.151" y2="209.605" gradientUnits="userSpaceOnUse">
<stop stop-color="#FFDBCC"/>
<stop offset="1" stop-color="#BB7F5F"/>
</linearGradient>
<linearGradient id="paint31_linear_480_4879" x1="205.926" y1="189.5" x2="228.892" y2="189.5" gradientUnits="userSpaceOnUse">
<stop stop-color="#FFE0CC"/>
<stop offset="1" stop-color="#BB7F5F"/>
</linearGradient>
<linearGradient id="paint32_linear_480_4879" x1="185.097" y1="229.804" x2="218.847" y2="229.804" gradientUnits="userSpaceOnUse">
<stop stop-color="#FFE0CC"/>
<stop offset="1" stop-color="#BB7F5F"/>
</linearGradient>
<linearGradient id="paint33_linear_480_4879" x1="186.66" y1="245.065" x2="222.718" y2="245.065" gradientUnits="userSpaceOnUse">
<stop stop-color="#FFE0CC"/>
<stop offset="1" stop-color="#BB7F5F"/>
</linearGradient>
<linearGradient id="paint34_linear_480_4879" x1="155.627" y1="207.281" x2="155.627" y2="166.812" gradientUnits="userSpaceOnUse">
<stop stop-color="#FFE0CC"/>
<stop offset="1" stop-color="#BB7F5F"/>
</linearGradient>
<linearGradient id="paint35_linear_480_4879" x1="158.885" y1="210.683" x2="158.885" y2="180.006" gradientUnits="userSpaceOnUse">
<stop stop-color="#FFE0CC"/>
<stop offset="1" stop-color="#BB7F5F"/>
</linearGradient>
<linearGradient id="paint36_linear_480_4879" x1="110.403" y1="171.468" x2="110.403" y2="148.291" gradientUnits="userSpaceOnUse">
<stop stop-color="#FFE0CC"/>
<stop offset="1" stop-color="#BB7F5F"/>
</linearGradient>
<linearGradient id="paint37_linear_480_4879" x1="129.158" y1="151.058" x2="138.499" y2="151.058" gradientUnits="userSpaceOnUse">
<stop stop-color="#FFE0CC"/>
<stop offset="1" stop-color="#BB7F5F"/>
</linearGradient>
<linearGradient id="paint38_linear_480_4879" x1="230.697" y1="207.281" x2="230.697" y2="164.322" gradientUnits="userSpaceOnUse">
<stop stop-color="#FFDBCC"/>
<stop offset="1" stop-color="#BB7F5F"/>
</linearGradient>
<linearGradient id="paint39_linear_480_4879" x1="278.995" y1="198.041" x2="278.995" y2="175.593" gradientUnits="userSpaceOnUse">
<stop stop-color="#FFDBCC"/>
<stop offset="1" stop-color="#BB7F5F"/>
</linearGradient>
<linearGradient id="paint40_linear_480_4879" x1="253.535" y1="197.038" x2="253.535" y2="179.877" gradientUnits="userSpaceOnUse">
<stop stop-color="#FFDBCC"/>
<stop offset="1" stop-color="#BB7F5F"/>
</linearGradient>
<linearGradient id="paint41_linear_480_4879" x1="105.552" y1="172.948" x2="105.552" y2="166.574" gradientUnits="userSpaceOnUse">
<stop stop-color="#FFE0CC"/>
<stop offset="1" stop-color="#BB7F5F"/>
</linearGradient>
<linearGradient id="paint42_linear_480_4879" x1="122.576" y1="192.378" x2="122.576" y2="157.547" gradientUnits="userSpaceOnUse">
<stop stop-color="#FFDBCC"/>
<stop offset="1" stop-color="#BB7F5F"/>
</linearGradient>
<linearGradient id="paint43_linear_480_4879" x1="212.186" y1="167.862" x2="212.186" y2="141.651" gradientUnits="userSpaceOnUse">
<stop stop-color="#FFE0CC"/>
<stop offset="1" stop-color="#BB7F5F"/>
</linearGradient>
<linearGradient id="paint44_linear_480_4879" x1="177.848" y1="164.318" x2="177.848" y2="128.143" gradientUnits="userSpaceOnUse">
<stop stop-color="#FFE0CC"/>
<stop offset="1" stop-color="#BB7F5F"/>
</linearGradient>
<linearGradient id="paint45_linear_480_4879" x1="165.633" y1="170.935" x2="226.055" y2="170.935" gradientUnits="userSpaceOnUse">
<stop stop-color="#A07742"/>
<stop offset="1" stop-color="#C08F56"/>
</linearGradient>
<linearGradient id="paint46_linear_480_4879" x1="170.842" y1="136.068" x2="210.163" y2="136.068" gradientUnits="userSpaceOnUse">
<stop stop-color="#FFDBCC"/>
<stop offset="1" stop-color="#BB7F5F"/>
</linearGradient>
<linearGradient id="paint47_linear_480_4879" x1="271.925" y1="195.482" x2="271.925" y2="172.726" gradientUnits="userSpaceOnUse">
<stop stop-color="#FFDBCC"/>
<stop offset="1" stop-color="#BB7F5F"/>
</linearGradient>
<linearGradient id="paint48_linear_480_4879" x1="239.76" y1="221.153" x2="239.76" y2="152.243" gradientUnits="userSpaceOnUse">
<stop stop-color="#FFDBCC"/>
<stop offset="1" stop-color="#BB7F5F"/>
</linearGradient>
<linearGradient id="paint49_linear_480_4879" x1="165.674" y1="253.521" x2="165.674" y2="233.767" gradientUnits="userSpaceOnUse">
<stop stop-color="#FFDBCC"/>
<stop offset="1" stop-color="#BB7F5F"/>
</linearGradient>
<linearGradient id="paint50_linear_480_4879" x1="204.047" y1="248.095" x2="204.047" y2="238.502" gradientUnits="userSpaceOnUse">
<stop stop-color="#FFDBCC"/>
<stop offset="1" stop-color="#BB7F5F"/>
</linearGradient>
<linearGradient id="paint51_linear_480_4879" x1="203.625" y1="124.79" x2="203.625" y2="59.164" gradientUnits="userSpaceOnUse">
<stop offset="0.0159875" stop-color="#FFC2A9"/>
<stop offset="1" stop-color="#FF9595"/>
</linearGradient>
<linearGradient id="paint52_linear_480_4879" x1="179.16" y1="98.3086" x2="179.16" y2="78.9605" gradientUnits="userSpaceOnUse">
<stop offset="0.0159875" stop-color="#FFC2A9"/>
<stop offset="1" stop-color="#FF9595"/>
</linearGradient>
<linearGradient id="paint53_linear_480_4879" x1="212.746" y1="105.625" x2="213.557" y2="101.402" gradientUnits="userSpaceOnUse">
<stop stop-color="#E1616A"/>
<stop offset="1" stop-color="#FF8883"/>
</linearGradient>
<linearGradient id="paint54_linear_480_4879" x1="205.423" y1="102.394" x2="205.423" y2="60.1173" gradientUnits="userSpaceOnUse">
<stop stop-color="#FFEADB"/>
<stop offset="0.9944" stop-color="#C2997C"/>
</linearGradient>
<linearGradient id="paint55_linear_480_4879" x1="203.363" y1="85.0804" x2="203.363" y2="76.7057" gradientUnits="userSpaceOnUse">
<stop stop-color="#CF6074"/>
<stop offset="1" stop-color="#F37270"/>
</linearGradient>
<linearGradient id="paint56_linear_480_4879" x1="220.067" y1="87.7378" x2="220.067" y2="80.4502" gradientUnits="userSpaceOnUse">
<stop stop-color="#CF6074"/>
<stop offset="1" stop-color="#FF817F"/>
</linearGradient>
<linearGradient id="paint57_linear_480_4879" x1="220.753" y1="91.9784" x2="220.753" y2="75.5791" gradientUnits="userSpaceOnUse">
<stop stop-color="#FFEADB"/>
<stop offset="0.9944" stop-color="#C2997C"/>
</linearGradient>
<linearGradient id="paint58_linear_480_4879" x1="204.505" y1="125.615" x2="204.505" y2="46.0274" gradientUnits="userSpaceOnUse">
<stop stop-color="#A04E2E"/>
<stop offset="1" stop-color="#A52E06"/>
</linearGradient>
<linearGradient id="paint59_linear_480_4879" x1="225.41" y1="75.497" x2="225.41" y2="57.137" gradientUnits="userSpaceOnUse">
<stop stop-color="#FFEADB"/>
<stop offset="0.9944" stop-color="#C79260"/>
</linearGradient>
<linearGradient id="paint60_linear_480_4879" x1="200.39" y1="125.615" x2="200.39" y2="46.0274" gradientUnits="userSpaceOnUse">
<stop stop-color="#CCC2DB"/>
<stop offset="0.9944" stop-color="#C79260"/>
</linearGradient>
<linearGradient id="paint61_linear_480_4879" x1="205.727" y1="125.597" x2="205.727" y2="122.177" gradientUnits="userSpaceOnUse">
<stop stop-color="#776D7E"/>
<stop offset="1" stop-color="#C28C68"/>
</linearGradient>
<linearGradient id="paint62_linear_480_4879" x1="215.759" y1="51.7394" x2="215.759" y2="49.199" gradientUnits="userSpaceOnUse">
<stop stop-color="#D13A1F"/>
<stop offset="1" stop-color="#C91006"/>
</linearGradient>
<linearGradient id="paint63_linear_480_4879" x1="199.575" y1="60.1034" x2="199.575" y2="52.5923" gradientUnits="userSpaceOnUse">
<stop stop-color="#D13A1F"/>
<stop offset="1" stop-color="#C91006"/>
</linearGradient>
<linearGradient id="paint64_linear_480_4879" x1="226.794" y1="63.9115" x2="226.794" y2="57.137" gradientUnits="userSpaceOnUse">
<stop stop-color="#D13A1F"/>
<stop offset="1" stop-color="#C91006"/>
</linearGradient>
<linearGradient id="paint65_linear_480_4879" x1="181.978" y1="93.7228" x2="173.311" y2="83.1054" gradientUnits="userSpaceOnUse">
<stop stop-color="#FFEADB"/>
<stop offset="0.9944" stop-color="#F49E60"/>
</linearGradient>
<linearGradient id="paint66_linear_480_4879" x1="182.885" y1="92.3553" x2="178.621" y2="87.1312" gradientUnits="userSpaceOnUse">
<stop stop-color="#FFEADB"/>
<stop offset="0.9944" stop-color="#F49E60"/>
</linearGradient>
<linearGradient id="paint67_linear_480_4879" x1="199.074" y1="60.7752" x2="213.75" y2="60.7752" gradientUnits="userSpaceOnUse">
<stop stop-color="#D13A1F"/>
<stop offset="1" stop-color="#C91006"/>
</linearGradient>
<linearGradient id="paint68_linear_480_4879" x1="219.775" y1="104.668" x2="224.226" y2="104.668" gradientUnits="userSpaceOnUse">
<stop stop-color="#D13A1F"/>
<stop offset="1" stop-color="#C91006"/>
</linearGradient>
<linearGradient id="paint69_linear_480_4879" x1="214.279" y1="101.358" x2="219.08" y2="101.358" gradientUnits="userSpaceOnUse">
<stop stop-color="#D13A1F"/>
<stop offset="1" stop-color="#C91006"/>
</linearGradient>
<linearGradient id="paint70_linear_480_4879" x1="249.693" y1="113.004" x2="400.193" y2="113.004" gradientUnits="userSpaceOnUse">
<stop stop-color="#C28C68"/>
<stop offset="1" stop-color="#FFBCA9"/>
</linearGradient>
<linearGradient id="paint71_linear_480_4879" x1="280.309" y1="169.847" x2="280.309" y2="124.455" gradientUnits="userSpaceOnUse">
<stop stop-color="#FFE0CC"/>
<stop offset="1" stop-color="#C28C68"/>
</linearGradient>
<linearGradient id="paint72_linear_480_4879" x1="357.709" y1="147.716" x2="357.709" y2="127.722" gradientUnits="userSpaceOnUse">
<stop stop-color="#FFE0CC"/>
<stop offset="1" stop-color="#C28C68"/>
</linearGradient>
<linearGradient id="paint73_linear_480_4879" x1="381.299" y1="147.716" x2="381.299" y2="127.722" gradientUnits="userSpaceOnUse">
<stop stop-color="#FFE0CC"/>
<stop offset="1" stop-color="#C28C68"/>
</linearGradient>
<linearGradient id="paint74_linear_480_4879" x1="333.724" y1="147.716" x2="333.724" y2="127.722" gradientUnits="userSpaceOnUse">
<stop stop-color="#FFE0CC"/>
<stop offset="1" stop-color="#C28C68"/>
</linearGradient>
<linearGradient id="paint75_linear_480_4879" x1="118.684" y1="98.5892" x2="118.684" y2="77.6605" gradientUnits="userSpaceOnUse">
<stop stop-color="#E3BA3D"/>
<stop offset="1" stop-color="#FF9A75"/>
</linearGradient>
<linearGradient id="paint76_linear_480_4879" x1="131.477" y1="98.5892" x2="131.477" y2="77.6605" gradientUnits="userSpaceOnUse">
<stop stop-color="#EA9642"/>
<stop offset="1" stop-color="#FE6811"/>
</linearGradient>
<linearGradient id="paint77_linear_480_4879" x1="115.053" y1="319.064" x2="126.371" y2="228.952" gradientUnits="userSpaceOnUse">
<stop stop-color="#FF3C06"/>
<stop offset="1" stop-color="#A05F37"/>
</linearGradient>
<linearGradient id="paint78_linear_480_4879" x1="379.278" y1="96.3121" x2="379.278" y2="88.7155" gradientUnits="userSpaceOnUse">
<stop stop-color="#FF6745"/>
<stop offset="1" stop-color="#FFBB6D"/>
</linearGradient>
<linearGradient id="paint79_linear_480_4879" x1="22.2842" y1="185.333" x2="22.2842" y2="175.878" gradientUnits="userSpaceOnUse">
<stop stop-color="#FF6745"/>
<stop offset="1" stop-color="#FFBB6D"/>
</linearGradient>
<linearGradient id="paint80_linear_480_4879" x1="390.435" y1="96.3121" x2="390.435" y2="88.7155" gradientUnits="userSpaceOnUse">
<stop stop-color="#B38F1A"/>
<stop offset="1" stop-color="#FE6811"/>
</linearGradient>
<linearGradient id="paint81_linear_480_4879" x1="145.49" y1="121.317" x2="145.49" y2="115.945" gradientUnits="userSpaceOnUse">
<stop stop-color="#B38F1A"/>
<stop offset="1" stop-color="#FE6811"/>
</linearGradient>
<linearGradient id="paint82_linear_480_4879" x1="325.398" y1="239.839" x2="325.398" y2="234.467" gradientUnits="userSpaceOnUse">
<stop stop-color="#A07742"/>
<stop offset="1" stop-color="#C08F56"/>
</linearGradient>
<linearGradient id="paint83_linear_480_4879" x1="46.1543" y1="266.333" x2="46.1543" y2="261.531" gradientUnits="userSpaceOnUse">
<stop stop-color="#A07742"/>
<stop offset="1" stop-color="#C08F56"/>
</linearGradient>
<linearGradient id="paint84_linear_480_4879" x1="66.3035" y1="240.356" x2="66.3035" y2="200.693" gradientUnits="userSpaceOnUse">
<stop stop-color="#E3AF06"/>
<stop offset="1" stop-color="#FFC06D"/>
</linearGradient>
<linearGradient id="paint85_linear_480_4879" x1="340.166" y1="296.498" x2="340.166" y2="246.88" gradientUnits="userSpaceOnUse">
<stop stop-color="#E3AF06"/>
<stop offset="1" stop-color="#FFC06D"/>
</linearGradient>
<linearGradient id="paint86_linear_480_4879" x1="275.785" y1="268.752" x2="281.137" y2="232.614" gradientUnits="userSpaceOnUse">
<stop stop-color="#A03118"/>
<stop offset="1" stop-color="#D33206"/>
</linearGradient>
<linearGradient id="paint87_linear_480_4879" x1="271.792" y1="267.819" x2="281.46" y2="231.916" gradientUnits="userSpaceOnUse">
<stop stop-color="#A03118"/>
<stop offset="1" stop-color="#D33206"/>
</linearGradient>
<linearGradient id="paint88_linear_480_4879" x1="267.252" y1="266.339" x2="272.959" y2="229.961" gradientUnits="userSpaceOnUse">
<stop stop-color="#C14818"/>
<stop offset="1" stop-color="#E72006"/>
</linearGradient>
<linearGradient id="paint89_linear_480_4879" x1="301.165" y1="74.8829" x2="310.797" y2="39.1121" gradientUnits="userSpaceOnUse">
<stop stop-color="#C14818"/>
<stop offset="1" stop-color="#E72006"/>
</linearGradient>
<linearGradient id="paint90_linear_480_4879" x1="284.609" y1="70.7562" x2="291.792" y2="44.0812" gradientUnits="userSpaceOnUse">
<stop stop-color="#A03118"/>
<stop offset="1" stop-color="#D33206"/>
</linearGradient>
<linearGradient id="paint91_linear_480_4879" x1="22.6887" y1="136.485" x2="16.1224" y2="112.099" gradientUnits="userSpaceOnUse">
<stop stop-color="#C14818"/>
<stop offset="1" stop-color="#E72006"/>
</linearGradient>
<linearGradient id="paint92_linear_480_4879" x1="33.9754" y1="133.672" x2="29.0788" y2="115.487" gradientUnits="userSpaceOnUse">
<stop stop-color="#A03118"/>
<stop offset="1" stop-color="#D33206"/>
</linearGradient>
<clipPath id="clip0_480_4879">
<rect width="510" height="340" fill="white" transform="translate(-49.3333)"/>
</clipPath>
</defs>
</svg>
