<svg width="412" height="441" viewBox="0 0 412 441" fill="none" xmlns="http://www.w3.org/2000/svg">
<path d="M89.0297 263.35C86.5981 263.35 84.1666 262.711 81.991 261.433L56.1398 246.483C54.988 245.845 54.3481 244.695 54.3481 243.417C54.3481 242.139 54.988 240.989 56.1398 240.35L81.991 225.4C86.3422 222.845 91.7172 222.845 96.0684 225.4L121.92 240.35C123.071 240.989 123.711 242.139 123.711 243.417C123.711 244.695 123.071 245.845 121.92 246.483L96.0684 261.433C93.8928 262.711 91.4612 263.35 89.0297 263.35ZM89.0297 225.272C86.8541 225.272 84.6785 225.783 82.7589 226.933L56.9077 241.883C56.2678 242.267 56.0118 242.906 56.0118 243.545C56.0118 244.183 56.3958 244.822 56.9077 245.206L82.7589 260.156C86.5981 262.328 91.3333 262.328 95.1725 260.156L121.024 245.206C121.664 244.822 121.92 244.183 121.92 243.545C121.92 242.906 121.536 242.267 121.024 241.883L95.1725 226.933C93.2529 225.783 91.2053 225.272 89.0297 225.272Z" fill="url(#paint0_linear_480_4674)"/>
<path opacity="0.3" d="M222.125 458.211L37.1993 351.645C34.5118 350.111 34.8958 347.428 37.9672 345.639L156.601 277.278C159.673 275.489 164.408 275.233 167.095 276.895L352.021 383.333C354.708 384.867 354.324 387.55 351.253 389.339L232.619 457.7C229.42 459.617 224.812 459.745 222.125 458.211Z" fill="#282100"/>
<path d="M226.348 477.122C224.301 477.122 222.253 476.739 220.717 475.844L9.68448 354.2C8.02079 353.306 7.25293 351.9 7.25293 350.494C7.25293 348.833 8.53269 347.045 10.5803 345.895L154.426 261.817C158.265 259.645 163.896 259.389 167.223 261.306L378.128 382.95C379.792 383.845 380.56 385.25 380.56 386.656C380.56 388.317 379.28 390.106 377.232 391.256L233.515 475.333C231.467 476.483 228.78 477.122 226.348 477.122ZM221.485 474.311C224.301 475.972 229.292 475.717 232.619 473.8L376.464 389.722C378.128 388.828 379.024 387.678 379.024 386.528C379.024 385.378 378.128 384.739 377.36 384.228L166.455 262.583C163.64 260.922 158.649 261.178 155.321 263.095L11.3482 347.3C9.68448 348.195 8.78864 349.344 8.78864 350.494C8.78864 351.645 9.68448 352.283 10.4523 352.795L221.485 474.311Z" fill="url(#paint1_linear_480_4674)"/>
<path d="M401.036 204.7L217.006 98.6445C215.726 97.8778 214.446 97.7501 213.295 98.1334L209.839 99.2834L210.991 99.5389C210.479 100.05 210.095 100.817 209.839 101.583L168.247 236.517C167.223 239.839 168.759 243.928 171.574 245.589L355.732 351.772C356.116 352.028 356.628 352.156 357.14 352.283L356.628 353.306L359.827 352.156C361.107 351.645 362.259 350.494 362.771 348.706L404.363 213.772C405.515 210.45 403.979 206.361 401.036 204.7Z" fill="url(#paint2_radial_480_4674)"/>
<path d="M349.077 356.883L167.351 252.106C164.664 250.572 160.057 250.7 156.857 252.489L39.375 320.211L35.4077 318.678L36.5595 324.172C36.6875 324.939 37.3274 325.833 38.3512 326.344L221.869 432.272C224.557 433.806 229.164 433.678 232.363 431.889L350.101 364.039C351.509 363.144 352.405 362.122 352.661 361.1L353.812 355.733L349.077 356.883Z" fill="url(#paint3_radial_480_4674)"/>
<path d="M222.125 427.417L37.1993 320.85C34.5118 319.317 34.8958 316.633 37.9672 314.845L156.601 246.483C159.673 244.695 164.408 244.439 167.095 246.1L351.893 352.667C354.58 354.2 354.196 356.883 351.125 358.672L232.491 427.033C229.42 428.822 224.812 428.95 222.125 427.417Z" fill="url(#paint4_radial_480_4674)"/>
<path d="M351.253 357.139L232.619 425.5C229.548 427.289 224.813 427.544 222.125 425.883L37.1994 319.444C36.3036 318.933 35.7917 318.294 35.5357 317.528C35.1518 318.806 35.6637 319.956 37.1994 320.85L221.997 427.417C224.685 428.95 229.42 428.822 232.491 427.033L351.125 358.672C353.173 357.522 353.94 355.861 353.557 354.583C353.429 355.478 352.533 356.372 351.253 357.139Z" fill="white"/>
<g opacity="0.4">
<path d="M125.375 303.6L119.104 300.022C118.592 299.767 118.72 299.256 119.232 298.872L126.655 294.656C127.295 294.272 128.063 294.272 128.574 294.528L134.845 298.106C135.357 298.361 135.229 298.872 134.717 299.256L127.295 303.472C126.783 303.856 125.887 303.856 125.375 303.6Z" fill="#3E2A03"/>
<path d="M134.973 309.095L128.702 305.517C128.19 305.261 128.318 304.75 128.83 304.367L136.253 300.15C136.893 299.767 137.661 299.767 138.173 300.022L144.443 303.6C144.955 303.856 144.827 304.367 144.315 304.75L136.893 308.967C136.381 309.35 135.485 309.478 134.973 309.095Z" fill="#3E2A03"/>
<path d="M144.699 314.717L138.429 311.139C137.917 310.883 138.045 310.372 138.557 309.989L145.979 305.772C146.619 305.389 147.387 305.389 147.899 305.645L154.17 309.222C154.682 309.478 154.554 309.989 154.042 310.372L146.619 314.589C146.107 314.972 145.211 314.972 144.699 314.717Z" fill="#3E2A03"/>
<path d="M158.009 310.117L151.738 306.539C151.226 306.283 151.354 305.772 151.866 305.389L158.009 301.811C158.649 301.428 159.417 301.428 159.929 301.683L166.2 305.261C166.711 305.517 166.583 306.028 166.072 306.411L159.929 309.989C159.417 310.372 158.521 310.372 158.009 310.117Z" fill="#3E2A03"/>
<path d="M167.607 315.611L161.336 312.033C160.824 311.778 160.952 311.267 161.464 310.883L167.607 307.306C168.247 306.922 169.015 306.922 169.527 307.178L175.798 310.756C176.31 311.011 176.182 311.522 175.67 311.906L169.527 315.483C169.015 315.867 168.119 315.995 167.607 315.611Z" fill="#3E2A03"/>
<path d="M177.333 321.233L171.062 317.656C170.551 317.4 170.679 316.889 171.19 316.506L177.333 312.928C177.973 312.544 178.741 312.545 179.253 312.8L185.524 316.378C186.036 316.633 185.908 317.145 185.396 317.528L179.253 321.106C178.613 321.489 177.717 321.489 177.333 321.233Z" fill="#3E2A03"/>
<path d="M186.932 326.728L180.661 323.15C180.149 322.895 180.277 322.383 180.789 322L186.932 318.422C187.572 318.039 188.339 318.039 188.851 318.295L195.122 321.872C195.634 322.128 195.506 322.639 194.994 323.022L188.851 326.6C188.339 326.983 187.444 327.111 186.932 326.728Z" fill="#3E2A03"/>
<path d="M196.53 332.35L190.259 328.772C189.747 328.517 189.875 328.006 190.387 327.622L196.53 324.045C197.17 323.661 197.938 323.661 198.449 323.917L204.72 327.495C205.232 327.75 205.104 328.261 204.592 328.645L198.449 332.222C197.938 332.606 197.042 332.606 196.53 332.35Z" fill="#3E2A03"/>
<path d="M206.128 337.844L199.857 334.267C199.345 334.011 199.473 333.5 199.985 333.117L206.128 329.539C206.768 329.156 207.536 329.156 208.048 329.411L214.318 332.989C214.83 333.244 214.702 333.756 214.19 334.139L208.048 337.717C207.536 338.1 206.64 338.228 206.128 337.844Z" fill="#3E2A03"/>
<path d="M215.854 343.467L209.583 339.889C209.072 339.633 209.2 339.122 209.711 338.739L215.854 335.161C216.494 334.778 217.262 334.778 217.774 335.033L224.045 338.611C224.557 338.867 224.429 339.378 223.917 339.761L217.774 343.339C217.134 343.722 216.366 343.722 215.854 343.467Z" fill="#3E2A03"/>
<path d="M225.452 348.961L219.182 345.383C218.67 345.128 218.798 344.617 219.31 344.233L225.452 340.656C226.092 340.272 226.86 340.272 227.372 340.528L233.643 344.106C234.155 344.361 234.027 344.872 233.515 345.256L227.372 348.833C226.86 349.217 225.964 349.345 225.452 348.961Z" fill="#3E2A03"/>
<path d="M235.051 354.583L228.78 351.006C228.268 350.75 228.396 350.239 228.908 349.856L235.051 346.278C235.69 345.894 236.458 345.894 236.97 346.15L243.241 349.728C243.753 349.983 243.625 350.494 243.113 350.878L236.97 354.456C236.458 354.839 235.562 354.839 235.051 354.583Z" fill="#3E2A03"/>
<path d="M244.777 360.078L238.506 356.5C237.994 356.245 238.122 355.733 238.634 355.35L244.777 351.772C245.417 351.389 246.185 351.389 246.697 351.645L252.967 355.222C253.479 355.478 253.351 355.989 252.839 356.372L246.697 359.95C246.057 360.333 245.289 360.333 244.777 360.078Z" fill="#3E2A03"/>
<path d="M172.214 307.433L165.944 303.856C165.432 303.6 165.56 303.089 166.072 302.706L172.214 299.128C172.854 298.744 173.622 298.744 174.134 299L180.405 302.578C180.917 302.833 180.789 303.344 180.277 303.728L174.134 307.306C173.622 307.689 172.726 307.817 172.214 307.433Z" fill="#3E2A03"/>
<path d="M162.36 301.811L156.089 298.233C155.577 297.978 155.705 297.467 156.217 297.083L162.36 293.506C163 293.122 163.768 293.122 164.28 293.378L170.551 296.956C171.063 297.211 170.935 297.722 170.423 298.106L164.28 301.683C163.768 302.067 162.872 302.194 162.36 301.811Z" fill="#3E2A03"/>
<path d="M152.634 296.189L139.196 288.395C138.685 288.139 138.813 287.628 139.324 287.245L145.467 283.667C146.107 283.283 146.875 283.283 147.387 283.539L160.824 291.333C161.336 291.589 161.208 292.1 160.696 292.483L154.554 296.061C154.042 296.445 153.146 296.445 152.634 296.189Z" fill="#3E2A03"/>
<path d="M159.417 289.289L148.539 283.028C148.027 282.772 148.155 282.261 148.667 281.878L154.81 278.3C155.449 277.917 156.217 277.917 156.729 278.172L167.607 284.433C168.119 284.689 167.991 285.2 167.479 285.583L161.336 289.161C160.824 289.544 159.929 289.672 159.417 289.289Z" fill="#3E2A03"/>
<path d="M181.813 313.056L175.542 309.478C175.03 309.222 175.158 308.711 175.67 308.328L181.813 304.75C182.452 304.367 183.22 304.367 183.732 304.622L190.003 308.2C190.515 308.456 190.387 308.967 189.875 309.35L183.732 312.928C183.22 313.311 182.324 313.311 181.813 313.056Z" fill="#3E2A03"/>
<path d="M191.411 318.55L185.14 314.972C184.628 314.717 184.756 314.206 185.268 313.822L191.411 310.244C192.051 309.861 192.818 309.861 193.33 310.117L199.601 313.694C200.113 313.95 199.985 314.461 199.473 314.844L193.33 318.422C192.818 318.806 191.923 318.933 191.411 318.55Z" fill="#3E2A03"/>
<path d="M201.137 324.172L194.866 320.594C194.354 320.339 194.482 319.828 194.994 319.444L201.137 315.867C201.777 315.483 202.545 315.483 203.057 315.739L209.327 319.317C209.839 319.572 209.711 320.083 209.2 320.467L203.057 324.044C202.545 324.428 201.649 324.428 201.137 324.172Z" fill="#3E2A03"/>
<path d="M210.735 329.667L204.464 326.089C203.952 325.833 204.08 325.322 204.592 324.939L210.735 321.361C211.375 320.978 212.143 320.978 212.655 321.233L218.926 324.811C219.438 325.067 219.31 325.578 218.798 325.961L212.655 329.539C212.143 329.922 211.247 330.05 210.735 329.667Z" fill="#3E2A03"/>
<path d="M220.333 335.289L214.062 331.711C213.551 331.456 213.679 330.945 214.19 330.561L220.333 326.983C220.973 326.6 221.741 326.6 222.253 326.856L228.524 330.433C229.036 330.689 228.908 331.2 228.396 331.583L222.253 335.161C221.741 335.544 220.845 335.544 220.333 335.289Z" fill="#3E2A03"/>
<path d="M230.06 340.783L223.789 337.206C223.277 336.95 223.405 336.439 223.917 336.056L230.06 332.478C230.699 332.095 231.467 332.095 231.979 332.35L238.25 335.928C238.762 336.183 238.634 336.695 238.122 337.078L231.979 340.656C231.339 341.039 230.571 341.039 230.06 340.783Z" fill="#3E2A03"/>
<path d="M239.658 346.406L233.387 342.828C232.875 342.572 233.003 342.061 233.515 341.678L239.658 338.1C240.298 337.717 241.065 337.717 241.577 337.972L247.848 341.55C248.36 341.806 248.232 342.317 247.72 342.7L241.577 346.278C241.065 346.661 240.17 346.661 239.658 346.406Z" fill="#3E2A03"/>
<path d="M249.256 351.9L242.985 348.322C242.473 348.067 242.601 347.556 243.113 347.172L249.256 343.594C249.896 343.211 250.664 343.211 251.176 343.467L257.446 347.044C257.958 347.3 257.83 347.811 257.318 348.194L251.176 351.772C250.664 352.156 249.768 352.156 249.256 351.9Z" fill="#3E2A03"/>
<path d="M258.982 357.522L252.711 353.945C252.199 353.689 252.327 353.178 252.839 352.795L258.982 349.217C259.622 348.833 260.39 348.833 260.902 349.089L267.173 352.667C267.685 352.922 267.557 353.433 267.045 353.817L260.902 357.395C260.262 357.778 259.494 357.778 258.982 357.522Z" fill="#3E2A03"/>
<path d="M276.003 367.361L262.437 359.567C261.926 359.311 262.054 358.8 262.565 358.417L268.708 354.839C269.348 354.456 270.116 354.456 270.628 354.711L284.193 362.506C284.705 362.761 284.577 363.272 284.065 363.656L277.923 367.233C277.411 367.617 276.515 367.617 276.003 367.361Z" fill="#3E2A03"/>
<path d="M294.815 356.5L283.298 349.856C282.786 349.6 282.914 349.089 283.426 348.706L289.568 345.128C290.208 344.745 290.976 344.745 291.488 345L303.006 351.645C303.518 351.9 303.39 352.411 302.878 352.795L296.735 356.372C296.223 356.756 295.327 356.883 294.815 356.5Z" fill="#3E2A03"/>
<path d="M198.705 311.906L192.435 308.328C191.923 308.072 192.051 307.561 192.563 307.178L198.705 303.6C199.345 303.217 200.113 303.217 200.625 303.472L206.896 307.05C207.408 307.306 207.28 307.817 206.768 308.2L200.625 311.778C200.113 312.161 199.217 312.289 198.705 311.906Z" fill="#3E2A03"/>
<path d="M188.851 306.283L182.581 302.706C182.069 302.45 182.197 301.939 182.708 301.556L188.851 297.978C189.491 297.595 190.259 297.595 190.771 297.85L197.042 301.428C197.554 301.683 197.426 302.195 196.914 302.578L190.771 306.156C190.259 306.539 189.363 306.539 188.851 306.283Z" fill="#3E2A03"/>
<path d="M178.997 300.533L172.726 296.956C172.214 296.7 172.342 296.189 172.854 295.806L178.997 292.228C179.637 291.845 180.405 291.845 180.917 292.1L187.188 295.678C187.699 295.933 187.572 296.445 187.06 296.828L180.917 300.406C180.277 300.789 179.509 300.789 178.997 300.533Z" fill="#3E2A03"/>
<path d="M169.143 294.911L162.872 291.333C162.36 291.078 162.488 290.567 163 290.183L169.143 286.606C169.783 286.222 170.551 286.222 171.063 286.478L177.333 290.056C177.845 290.311 177.717 290.822 177.205 291.206L171.063 294.783C170.423 295.167 169.527 295.167 169.143 294.911Z" fill="#3E2A03"/>
<path d="M208.303 317.528L202.033 313.95C201.521 313.694 201.649 313.183 202.161 312.8L208.303 309.222C208.943 308.839 209.711 308.839 210.223 309.094L216.494 312.672C217.006 312.928 216.878 313.439 216.366 313.822L210.223 317.4C209.711 317.783 208.815 317.783 208.303 317.528Z" fill="#3E2A03"/>
<path d="M218.03 323.022L211.759 319.445C211.247 319.189 211.375 318.678 211.887 318.295L218.03 314.717C218.67 314.333 219.438 314.333 219.949 314.589L226.22 318.167C226.732 318.422 226.604 318.933 226.092 319.317L219.949 322.895C219.31 323.278 218.542 323.406 218.03 323.022Z" fill="#3E2A03"/>
<path d="M227.628 328.645L221.357 325.067C220.845 324.811 220.973 324.3 221.485 323.917L227.628 320.339C228.268 319.956 229.036 319.956 229.548 320.211L235.818 323.789C236.33 324.045 236.202 324.556 235.69 324.939L229.548 328.517C229.036 328.9 228.14 328.9 227.628 328.645Z" fill="#3E2A03"/>
<path d="M237.226 334.139L230.956 330.561C230.444 330.306 230.572 329.794 231.083 329.411L237.226 325.833C237.866 325.45 238.634 325.45 239.146 325.706L245.417 329.283C245.929 329.539 245.801 330.05 245.289 330.433L239.146 334.011C238.634 334.394 237.738 334.394 237.226 334.139Z" fill="#3E2A03"/>
<path d="M246.952 339.761L240.682 336.183C240.17 335.928 240.298 335.417 240.81 335.033L246.952 331.456C247.592 331.072 248.36 331.072 248.872 331.328L255.143 334.906C255.655 335.161 255.527 335.672 255.015 336.056L248.872 339.633C248.232 340.017 247.336 340.017 246.952 339.761Z" fill="#3E2A03"/>
<path d="M256.551 345.256L250.28 341.678C249.768 341.422 249.896 340.911 250.408 340.528L256.551 336.95C257.19 336.567 257.958 336.567 258.47 336.822L264.741 340.4C265.253 340.656 265.125 341.167 264.613 341.55L258.47 345.128C257.958 345.511 257.062 345.511 256.551 345.256Z" fill="#3E2A03"/>
<path d="M266.149 350.878L259.878 347.3C259.366 347.044 259.494 346.533 260.006 346.15L266.149 342.572C266.789 342.189 267.557 342.189 268.069 342.444L274.339 346.022C274.851 346.278 274.723 346.789 274.211 347.172L268.069 350.75C267.557 351.133 266.661 351.133 266.149 350.878Z" fill="#3E2A03"/>
<path d="M275.747 356.372L269.476 352.795C268.964 352.539 269.092 352.028 269.604 351.645L275.747 348.067C276.387 347.683 277.155 347.683 277.667 347.939L283.938 351.517C284.449 351.772 284.322 352.283 283.81 352.667L277.667 356.245C277.155 356.628 276.259 356.628 275.747 356.372Z" fill="#3E2A03"/>
<path d="M285.473 361.994L279.202 358.417C278.69 358.161 278.818 357.65 279.33 357.267L285.473 353.689C286.113 353.306 286.881 353.306 287.393 353.561L293.664 357.139C294.176 357.394 294.048 357.906 293.536 358.289L287.393 361.867C286.881 362.25 285.985 362.25 285.473 361.994Z" fill="#3E2A03"/>
<path d="M193.586 298.233L187.316 294.656C186.804 294.4 186.932 293.889 187.444 293.506L193.586 289.928C194.226 289.544 194.994 289.545 195.506 289.8L201.777 293.378C202.289 293.633 202.161 294.145 201.649 294.528L195.506 298.106C194.994 298.489 194.098 298.489 193.586 298.233Z" fill="#3E2A03"/>
<path d="M183.988 292.739L177.717 289.161C177.205 288.906 177.333 288.395 177.845 288.011L183.988 284.433C184.628 284.05 185.396 284.05 185.908 284.306L192.179 287.883C192.69 288.139 192.562 288.65 192.051 289.033L186.036 292.611C185.396 292.995 184.5 292.995 183.988 292.739Z" fill="#3E2A03"/>
<path d="M174.518 287.117L168.247 283.539C167.735 283.283 167.863 282.772 168.375 282.389L174.518 278.811C175.158 278.428 175.926 278.428 176.437 278.683L182.708 282.261C183.22 282.517 183.092 283.028 182.58 283.411L176.437 286.989C175.798 287.372 174.902 287.5 174.518 287.117Z" fill="#3E2A03"/>
<path d="M164.92 281.622L158.649 278.045C158.137 277.789 158.265 277.278 158.777 276.895L164.92 273.317C165.56 272.933 166.327 272.933 166.839 273.189L173.11 276.767C173.622 277.022 173.494 277.533 172.982 277.917L166.839 281.495C166.199 281.878 165.432 281.878 164.92 281.622Z" fill="#3E2A03"/>
<path d="M174.774 276L168.503 272.422C167.991 272.167 168.119 271.656 168.631 271.272L170.679 270.122C171.319 269.739 172.086 269.739 172.598 269.995L178.869 273.572C179.381 273.828 179.253 274.339 178.741 274.722L176.694 275.872C176.054 276.256 175.286 276.256 174.774 276Z" fill="#3E2A03"/>
<path d="M187.188 283.156L180.917 279.578C180.405 279.322 180.533 278.811 181.045 278.428L183.092 277.278C183.732 276.894 184.5 276.894 185.012 277.15L191.283 280.728C191.795 280.983 191.667 281.494 191.155 281.878L189.107 283.028C188.595 283.411 187.699 283.411 187.188 283.156Z" fill="#3E2A03"/>
<path d="M196.786 288.65L190.515 285.072C190.003 284.817 190.131 284.306 190.643 283.922L192.69 282.772C193.33 282.389 194.098 282.389 194.61 282.645L200.881 286.222C201.393 286.478 201.265 286.989 200.753 287.372L198.705 288.522C198.193 288.906 197.298 288.906 196.786 288.65Z" fill="#3E2A03"/>
<path d="M206.384 294.144L200.113 290.567C199.601 290.311 199.729 289.8 200.241 289.417L202.289 288.267C202.929 287.883 203.697 287.883 204.208 288.139L210.479 291.717C210.991 291.972 210.863 292.483 210.351 292.867L208.304 294.017C207.664 294.4 206.896 294.4 206.384 294.144Z" fill="#3E2A03"/>
<path d="M215.854 299.639L209.583 296.061C209.072 295.806 209.2 295.295 209.711 294.911L211.759 293.761C212.399 293.378 213.167 293.378 213.679 293.633L219.95 297.211C220.461 297.467 220.333 297.978 219.822 298.361L217.774 299.511C217.262 299.895 216.366 299.895 215.854 299.639Z" fill="#3E2A03"/>
<path d="M269.22 330.433L262.949 326.856C262.438 326.6 262.565 326.089 263.077 325.706L265.125 324.556C265.765 324.172 266.533 324.172 267.045 324.428L273.315 328.006C273.827 328.261 273.699 328.772 273.188 329.156L271.14 330.306C270.628 330.689 269.732 330.689 269.22 330.433Z" fill="#3E2A03"/>
<path d="M278.69 335.928L272.42 332.35C271.908 332.094 272.036 331.583 272.548 331.2L274.595 330.05C275.235 329.667 276.003 329.667 276.515 329.922L282.786 333.5C283.298 333.756 283.17 334.267 282.658 334.65L280.61 335.8C280.098 336.183 279.202 336.183 278.69 335.928Z" fill="#3E2A03"/>
<path d="M288.289 341.422L282.018 337.845C281.506 337.589 281.634 337.078 282.146 336.695L284.193 335.545C284.833 335.161 285.601 335.161 286.113 335.417L292.384 338.995C292.896 339.25 292.768 339.761 292.256 340.145L290.208 341.295C289.696 341.678 288.8 341.678 288.289 341.422Z" fill="#3E2A03"/>
<path d="M297.887 346.917L291.616 343.339C291.104 343.083 291.232 342.572 291.744 342.189L293.792 341.039C294.432 340.656 295.2 340.656 295.711 340.911L301.982 344.489C302.494 344.744 302.366 345.256 301.854 345.639L299.807 346.789C299.167 347.172 298.399 347.172 297.887 346.917Z" fill="#3E2A03"/>
<path d="M203.313 303.728L197.042 300.15C196.53 299.895 196.658 299.383 197.17 299L203.313 295.422C203.952 295.039 204.72 295.039 205.232 295.295L211.503 298.872C212.015 299.128 211.887 299.639 211.375 300.022L205.232 303.6C204.592 303.983 203.824 304.111 203.313 303.728Z" fill="#3E2A03"/>
<path d="M212.911 309.35L206.64 305.772C206.128 305.517 206.256 305.006 206.768 304.622L212.911 301.045C213.551 300.661 214.318 300.661 214.83 300.917L221.101 304.495C221.613 304.75 221.485 305.261 220.973 305.645L214.83 309.222C214.318 309.606 213.423 309.606 212.911 309.35Z" fill="#3E2A03"/>
<path d="M222.509 314.844L216.238 311.267C215.726 311.011 215.854 310.5 216.366 310.117L222.509 306.539C223.149 306.156 223.917 306.156 224.429 306.411L230.7 309.989C231.211 310.244 231.083 310.756 230.572 311.139L224.429 314.717C223.917 315.1 223.021 315.1 222.509 314.844Z" fill="#3E2A03"/>
<path d="M232.235 320.467L225.964 316.889C225.452 316.633 225.58 316.122 226.092 315.739L232.235 312.161C232.875 311.778 233.643 311.778 234.155 312.033L240.426 315.611C240.938 315.867 240.81 316.378 240.298 316.761L234.155 320.339C233.515 320.722 232.747 320.722 232.235 320.467Z" fill="#3E2A03"/>
<path d="M241.833 325.961L235.562 322.383C235.051 322.128 235.179 321.617 235.69 321.233L241.833 317.656C242.473 317.272 243.241 317.272 243.753 317.528L250.024 321.106C250.536 321.361 250.408 321.872 249.896 322.256L243.753 325.833C243.241 326.217 242.345 326.217 241.833 325.961Z" fill="#3E2A03"/>
<path d="M251.432 331.583L245.161 328.006C244.649 327.75 244.777 327.239 245.289 326.856L251.432 323.278C252.072 322.894 252.839 322.894 253.351 323.15L259.622 326.728C260.134 326.983 260.006 327.494 259.494 327.878L253.351 331.456C252.839 331.839 251.944 331.839 251.432 331.583Z" fill="#3E2A03"/>
<path d="M261.158 337.078L254.887 333.5C254.375 333.245 254.503 332.733 255.015 332.35L261.158 328.772C261.798 328.389 262.565 328.389 263.077 328.645L269.348 332.222C269.86 332.478 269.732 332.989 269.22 333.372L263.077 336.95C262.438 337.333 261.542 337.333 261.158 337.078Z" fill="#3E2A03"/>
<path d="M270.756 342.7L264.485 339.122C263.973 338.867 264.101 338.356 264.613 337.972L270.756 334.395C271.396 334.011 272.164 334.011 272.676 334.267L278.946 337.844C279.458 338.1 279.33 338.611 278.818 338.994L272.676 342.572C272.164 342.956 271.268 342.956 270.756 342.7Z" fill="#3E2A03"/>
<path d="M280.354 348.195L274.083 344.617C273.572 344.361 273.7 343.85 274.211 343.467L280.354 339.889C280.994 339.506 281.762 339.506 282.274 339.761L288.545 343.339C289.057 343.595 288.929 344.106 288.417 344.489L282.274 348.067C281.762 348.45 280.866 348.45 280.354 348.195Z" fill="#3E2A03"/>
<path d="M148.155 304.494L129.726 293.889C129.214 293.633 129.342 293.122 129.854 292.739L135.997 289.161C136.637 288.778 137.405 288.778 137.917 289.033L156.345 299.639C156.857 299.894 156.729 300.406 156.217 300.789L150.074 304.367C149.563 304.75 148.667 304.75 148.155 304.494Z" fill="#3E2A03"/>
<path d="M266.533 372.728L248.104 362.122C247.592 361.867 247.72 361.356 248.232 360.972L254.375 357.395C255.015 357.011 255.783 357.011 256.295 357.267L274.723 367.872C275.235 368.128 275.107 368.639 274.595 369.022L268.452 372.6C267.94 372.983 267.045 372.983 266.533 372.728Z" fill="#3E2A03"/>
<path d="M228.012 362.761L221.741 359.183C221.229 358.928 221.357 358.417 221.869 358.033L229.292 353.817C229.932 353.433 230.7 353.433 231.211 353.689L237.482 357.267C237.994 357.522 237.866 358.033 237.354 358.417L229.932 362.633C229.42 363.017 228.524 363.017 228.012 362.761Z" fill="#3E2A03"/>
<path d="M158.009 322.383L148.027 316.633C147.515 316.378 147.643 315.867 148.155 315.483L155.577 311.267C156.217 310.883 156.985 310.883 157.497 311.139L167.479 316.889C167.991 317.144 167.863 317.656 167.351 318.039L159.929 322.256C159.417 322.639 158.521 322.639 158.009 322.383Z" fill="#3E2A03"/>
<path d="M218.798 357.394L208.816 351.644C208.304 351.389 208.432 350.878 208.944 350.494L216.366 346.278C217.006 345.894 217.774 345.894 218.286 346.15L228.268 351.9C228.78 352.156 228.652 352.667 228.14 353.05L220.717 357.267C220.078 357.65 219.31 357.65 218.798 357.394Z" fill="#3E2A03"/>
<path d="M171.958 330.433L161.976 324.683C161.464 324.428 161.592 323.917 162.104 323.533L169.527 319.317C170.167 318.933 170.935 318.933 171.447 319.189L181.429 324.939C181.941 325.195 181.813 325.706 181.301 326.089L173.878 330.306C173.366 330.689 172.47 330.689 171.958 330.433Z" fill="#3E2A03"/>
<path d="M171.447 319.317L214.83 344.361C215.342 344.617 215.342 345.128 214.83 345.511L207.28 349.856C206.768 350.111 205.872 350.111 205.36 349.856L161.976 324.811L171.447 319.317Z" fill="#3E2A03"/>
<path d="M255.015 372.856L261.926 376.817C262.31 377.072 262.31 377.456 261.798 377.711L258.726 379.5C258.214 379.756 257.574 379.756 257.063 379.628L250.152 375.667C249.768 375.411 249.768 375.028 250.28 374.772L253.351 372.983C253.863 372.6 254.503 372.6 255.015 372.856Z" fill="#3E2A03"/>
<path d="M245.289 367.233L252.199 371.195C252.583 371.45 252.583 371.833 252.071 372.089L249 373.878C248.488 374.133 247.848 374.133 247.336 374.006L240.426 370.045C240.042 369.789 240.042 369.406 240.554 369.15L243.625 367.361C244.137 366.978 244.777 366.978 245.289 367.233Z" fill="#3E2A03"/>
<path d="M235.563 361.611L242.473 365.572C242.857 365.828 242.857 366.211 242.345 366.467L239.274 368.256C238.762 368.511 238.122 368.511 237.61 368.383L230.699 364.422C230.316 364.167 230.316 363.783 230.827 363.528L233.899 361.739C234.539 361.483 235.179 361.483 235.563 361.611Z" fill="#3E2A03"/>
<path d="M250.536 364.167L257.446 368.128C257.83 368.383 257.83 368.767 257.318 369.022L254.247 370.811C253.735 371.067 253.095 371.067 252.583 370.939L245.673 366.978C245.289 366.722 245.289 366.339 245.801 366.083L248.872 364.295C249.384 363.911 250.152 363.911 250.536 364.167Z" fill="#3E2A03"/>
</g>
<g opacity="0.4">
<path d="M125.375 303.6L119.104 300.022C118.592 299.767 118.72 299.256 119.232 298.872L126.655 294.656C127.295 294.272 128.063 294.272 128.574 294.528L134.845 298.106C135.357 298.361 135.229 298.872 134.717 299.256L127.295 303.472C126.783 303.856 125.887 303.856 125.375 303.6Z" fill="#3E2A03"/>
<path d="M134.973 309.095L128.702 305.517C128.19 305.261 128.318 304.75 128.83 304.367L136.253 300.15C136.893 299.767 137.661 299.767 138.173 300.022L144.443 303.6C144.955 303.856 144.827 304.367 144.315 304.75L136.893 308.967C136.381 309.35 135.485 309.478 134.973 309.095Z" fill="#3E2A03"/>
<path d="M144.699 314.717L138.429 311.139C137.917 310.883 138.045 310.372 138.557 309.989L145.979 305.772C146.619 305.389 147.387 305.389 147.899 305.645L154.17 309.222C154.682 309.478 154.554 309.989 154.042 310.372L146.619 314.589C146.107 314.972 145.211 314.972 144.699 314.717Z" fill="#3E2A03"/>
<path d="M158.009 310.117L151.738 306.539C151.226 306.283 151.354 305.772 151.866 305.389L158.009 301.811C158.649 301.428 159.417 301.428 159.929 301.683L166.2 305.261C166.711 305.517 166.583 306.028 166.072 306.411L159.929 309.989C159.417 310.372 158.521 310.372 158.009 310.117Z" fill="#3E2A03"/>
<path d="M167.607 315.611L161.336 312.033C160.824 311.778 160.952 311.267 161.464 310.883L167.607 307.306C168.247 306.922 169.015 306.922 169.527 307.178L175.798 310.756C176.31 311.011 176.182 311.522 175.67 311.906L169.527 315.483C169.015 315.867 168.119 315.995 167.607 315.611Z" fill="#3E2A03"/>
<path d="M177.333 321.233L171.062 317.656C170.551 317.4 170.679 316.889 171.19 316.506L177.333 312.928C177.973 312.544 178.741 312.545 179.253 312.8L185.524 316.378C186.036 316.633 185.908 317.145 185.396 317.528L179.253 321.106C178.613 321.489 177.717 321.489 177.333 321.233Z" fill="#3E2A03"/>
<path d="M186.932 326.728L180.661 323.15C180.149 322.895 180.277 322.383 180.789 322L186.932 318.422C187.572 318.039 188.339 318.039 188.851 318.295L195.122 321.872C195.634 322.128 195.506 322.639 194.994 323.022L188.851 326.6C188.339 326.983 187.444 327.111 186.932 326.728Z" fill="#3E2A03"/>
<path d="M196.53 332.35L190.259 328.772C189.747 328.517 189.875 328.006 190.387 327.622L196.53 324.045C197.17 323.661 197.938 323.661 198.449 323.917L204.72 327.495C205.232 327.75 205.104 328.261 204.592 328.645L198.449 332.222C197.938 332.606 197.042 332.606 196.53 332.35Z" fill="#3E2A03"/>
<path d="M206.128 337.844L199.857 334.267C199.345 334.011 199.473 333.5 199.985 333.117L206.128 329.539C206.768 329.156 207.536 329.156 208.048 329.411L214.318 332.989C214.83 333.244 214.702 333.756 214.19 334.139L208.048 337.717C207.536 338.1 206.64 338.228 206.128 337.844Z" fill="#3E2A03"/>
<path d="M215.854 343.467L209.583 339.889C209.072 339.633 209.2 339.122 209.711 338.739L215.854 335.161C216.494 334.778 217.262 334.778 217.774 335.033L224.045 338.611C224.557 338.867 224.429 339.378 223.917 339.761L217.774 343.339C217.134 343.722 216.366 343.722 215.854 343.467Z" fill="#3E2A03"/>
<path d="M225.452 348.961L219.182 345.383C218.67 345.128 218.798 344.617 219.31 344.233L225.452 340.656C226.092 340.272 226.86 340.272 227.372 340.528L233.643 344.106C234.155 344.361 234.027 344.872 233.515 345.256L227.372 348.833C226.86 349.217 225.964 349.345 225.452 348.961Z" fill="#3E2A03"/>
<path d="M235.051 354.583L228.78 351.006C228.268 350.75 228.396 350.239 228.908 349.856L235.051 346.278C235.69 345.894 236.458 345.894 236.97 346.15L243.241 349.728C243.753 349.983 243.625 350.494 243.113 350.878L236.97 354.456C236.458 354.839 235.562 354.839 235.051 354.583Z" fill="#3E2A03"/>
<path d="M244.777 360.078L238.506 356.5C237.994 356.245 238.122 355.733 238.634 355.35L244.777 351.772C245.417 351.389 246.185 351.389 246.697 351.645L252.967 355.222C253.479 355.478 253.351 355.989 252.839 356.372L246.697 359.95C246.057 360.333 245.289 360.333 244.777 360.078Z" fill="#3E2A03"/>
<path d="M172.214 307.433L165.944 303.856C165.432 303.6 165.56 303.089 166.072 302.706L172.214 299.128C172.854 298.744 173.622 298.744 174.134 299L180.405 302.578C180.917 302.833 180.789 303.344 180.277 303.728L174.134 307.306C173.622 307.689 172.726 307.817 172.214 307.433Z" fill="#3E2A03"/>
<path d="M162.36 301.811L156.089 298.233C155.577 297.978 155.705 297.467 156.217 297.083L162.36 293.506C163 293.122 163.768 293.122 164.28 293.378L170.551 296.956C171.063 297.211 170.935 297.722 170.423 298.106L164.28 301.683C163.768 302.067 162.872 302.194 162.36 301.811Z" fill="#3E2A03"/>
<path d="M152.634 296.189L139.196 288.395C138.685 288.139 138.813 287.628 139.324 287.245L145.467 283.667C146.107 283.283 146.875 283.283 147.387 283.539L160.824 291.333C161.336 291.589 161.208 292.1 160.696 292.483L154.554 296.061C154.042 296.445 153.146 296.445 152.634 296.189Z" fill="#3E2A03"/>
<path d="M159.417 289.289L148.539 283.028C148.027 282.772 148.155 282.261 148.667 281.878L154.81 278.3C155.449 277.917 156.217 277.917 156.729 278.172L167.607 284.433C168.119 284.689 167.991 285.2 167.479 285.583L161.336 289.161C160.824 289.544 159.929 289.672 159.417 289.289Z" fill="#3E2A03"/>
<path d="M181.813 313.056L175.542 309.478C175.03 309.222 175.158 308.711 175.67 308.328L181.813 304.75C182.452 304.367 183.22 304.367 183.732 304.622L190.003 308.2C190.515 308.456 190.387 308.967 189.875 309.35L183.732 312.928C183.22 313.311 182.324 313.311 181.813 313.056Z" fill="#3E2A03"/>
<path d="M191.411 318.55L185.14 314.972C184.628 314.717 184.756 314.206 185.268 313.822L191.411 310.244C192.051 309.861 192.818 309.861 193.33 310.117L199.601 313.694C200.113 313.95 199.985 314.461 199.473 314.844L193.33 318.422C192.818 318.806 191.923 318.933 191.411 318.55Z" fill="#3E2A03"/>
<path d="M201.137 324.172L194.866 320.594C194.354 320.339 194.482 319.828 194.994 319.444L201.137 315.867C201.777 315.483 202.545 315.483 203.057 315.739L209.327 319.317C209.839 319.572 209.711 320.083 209.2 320.467L203.057 324.044C202.545 324.428 201.649 324.428 201.137 324.172Z" fill="#3E2A03"/>
<path d="M210.735 329.667L204.464 326.089C203.952 325.833 204.08 325.322 204.592 324.939L210.735 321.361C211.375 320.978 212.143 320.978 212.655 321.233L218.926 324.811C219.438 325.067 219.31 325.578 218.798 325.961L212.655 329.539C212.143 329.922 211.247 330.05 210.735 329.667Z" fill="#3E2A03"/>
<path d="M220.333 335.289L214.062 331.711C213.551 331.456 213.679 330.945 214.19 330.561L220.333 326.983C220.973 326.6 221.741 326.6 222.253 326.856L228.524 330.433C229.036 330.689 228.908 331.2 228.396 331.583L222.253 335.161C221.741 335.544 220.845 335.544 220.333 335.289Z" fill="#3E2A03"/>
<path d="M230.06 340.783L223.789 337.206C223.277 336.95 223.405 336.439 223.917 336.056L230.06 332.478C230.699 332.095 231.467 332.095 231.979 332.35L238.25 335.928C238.762 336.183 238.634 336.695 238.122 337.078L231.979 340.656C231.339 341.039 230.571 341.039 230.06 340.783Z" fill="#3E2A03"/>
<path d="M239.658 346.406L233.387 342.828C232.875 342.572 233.003 342.061 233.515 341.678L239.658 338.1C240.298 337.717 241.065 337.717 241.577 337.972L247.848 341.55C248.36 341.806 248.232 342.317 247.72 342.7L241.577 346.278C241.065 346.661 240.17 346.661 239.658 346.406Z" fill="#3E2A03"/>
<path d="M249.256 351.9L242.985 348.322C242.473 348.067 242.601 347.556 243.113 347.172L249.256 343.594C249.896 343.211 250.664 343.211 251.176 343.467L257.446 347.044C257.958 347.3 257.83 347.811 257.318 348.194L251.176 351.772C250.664 352.156 249.768 352.156 249.256 351.9Z" fill="#3E2A03"/>
<path d="M258.982 357.522L252.711 353.945C252.199 353.689 252.327 353.178 252.839 352.795L258.982 349.217C259.622 348.833 260.39 348.833 260.902 349.089L267.173 352.667C267.685 352.922 267.557 353.433 267.045 353.817L260.902 357.395C260.262 357.778 259.494 357.778 258.982 357.522Z" fill="#3E2A03"/>
<path d="M276.003 367.361L262.437 359.567C261.926 359.311 262.054 358.8 262.565 358.417L268.708 354.839C269.348 354.456 270.116 354.456 270.628 354.711L284.193 362.506C284.705 362.761 284.577 363.272 284.065 363.656L277.923 367.233C277.411 367.617 276.515 367.617 276.003 367.361Z" fill="#3E2A03"/>
<path d="M294.815 356.5L283.298 349.856C282.786 349.6 282.914 349.089 283.426 348.706L289.568 345.128C290.208 344.745 290.976 344.745 291.488 345L303.006 351.645C303.518 351.9 303.39 352.411 302.878 352.795L296.735 356.372C296.223 356.756 295.327 356.883 294.815 356.5Z" fill="#3E2A03"/>
<path d="M198.705 311.906L192.435 308.328C191.923 308.072 192.051 307.561 192.563 307.178L198.705 303.6C199.345 303.217 200.113 303.217 200.625 303.472L206.896 307.05C207.408 307.306 207.28 307.817 206.768 308.2L200.625 311.778C200.113 312.161 199.217 312.289 198.705 311.906Z" fill="#3E2A03"/>
<path d="M188.851 306.283L182.581 302.706C182.069 302.45 182.197 301.939 182.708 301.556L188.851 297.978C189.491 297.595 190.259 297.595 190.771 297.85L197.042 301.428C197.554 301.683 197.426 302.195 196.914 302.578L190.771 306.156C190.259 306.539 189.363 306.539 188.851 306.283Z" fill="#3E2A03"/>
<path d="M178.997 300.533L172.726 296.956C172.214 296.7 172.342 296.189 172.854 295.806L178.997 292.228C179.637 291.845 180.405 291.845 180.917 292.1L187.188 295.678C187.699 295.933 187.572 296.445 187.06 296.828L180.917 300.406C180.277 300.789 179.509 300.789 178.997 300.533Z" fill="#3E2A03"/>
<path d="M169.143 294.911L162.872 291.333C162.36 291.078 162.488 290.567 163 290.183L169.143 286.606C169.783 286.222 170.551 286.222 171.063 286.478L177.333 290.056C177.845 290.311 177.717 290.822 177.205 291.206L171.063 294.783C170.423 295.167 169.527 295.167 169.143 294.911Z" fill="#3E2A03"/>
<path d="M208.303 317.528L202.033 313.95C201.521 313.694 201.649 313.183 202.161 312.8L208.303 309.222C208.943 308.839 209.711 308.839 210.223 309.094L216.494 312.672C217.006 312.928 216.878 313.439 216.366 313.822L210.223 317.4C209.711 317.783 208.815 317.783 208.303 317.528Z" fill="#3E2A03"/>
<path d="M218.03 323.022L211.759 319.445C211.247 319.189 211.375 318.678 211.887 318.295L218.03 314.717C218.67 314.333 219.438 314.333 219.949 314.589L226.22 318.167C226.732 318.422 226.604 318.933 226.092 319.317L219.949 322.895C219.31 323.278 218.542 323.406 218.03 323.022Z" fill="#3E2A03"/>
<path d="M227.628 328.645L221.357 325.067C220.845 324.811 220.973 324.3 221.485 323.917L227.628 320.339C228.268 319.956 229.036 319.956 229.548 320.211L235.818 323.789C236.33 324.045 236.202 324.556 235.69 324.939L229.548 328.517C229.036 328.9 228.14 328.9 227.628 328.645Z" fill="#3E2A03"/>
<path d="M237.226 334.139L230.956 330.561C230.444 330.306 230.572 329.794 231.083 329.411L237.226 325.833C237.866 325.45 238.634 325.45 239.146 325.706L245.417 329.283C245.929 329.539 245.801 330.05 245.289 330.433L239.146 334.011C238.634 334.394 237.738 334.394 237.226 334.139Z" fill="#3E2A03"/>
<path d="M246.952 339.761L240.682 336.183C240.17 335.928 240.298 335.417 240.81 335.033L246.952 331.456C247.592 331.072 248.36 331.072 248.872 331.328L255.143 334.906C255.655 335.161 255.527 335.672 255.015 336.056L248.872 339.633C248.232 340.017 247.336 340.017 246.952 339.761Z" fill="#3E2A03"/>
<path d="M256.551 345.256L250.28 341.678C249.768 341.422 249.896 340.911 250.408 340.528L256.551 336.95C257.19 336.567 257.958 336.567 258.47 336.822L264.741 340.4C265.253 340.656 265.125 341.167 264.613 341.55L258.47 345.128C257.958 345.511 257.062 345.511 256.551 345.256Z" fill="#3E2A03"/>
<path d="M266.149 350.878L259.878 347.3C259.366 347.044 259.494 346.533 260.006 346.15L266.149 342.572C266.789 342.189 267.557 342.189 268.069 342.444L274.339 346.022C274.851 346.278 274.723 346.789 274.211 347.172L268.069 350.75C267.557 351.133 266.661 351.133 266.149 350.878Z" fill="#3E2A03"/>
<path d="M275.747 356.372L269.476 352.795C268.964 352.539 269.092 352.028 269.604 351.645L275.747 348.067C276.387 347.683 277.155 347.683 277.667 347.939L283.938 351.517C284.449 351.772 284.322 352.283 283.81 352.667L277.667 356.245C277.155 356.628 276.259 356.628 275.747 356.372Z" fill="#3E2A03"/>
<path d="M285.473 361.994L279.202 358.417C278.69 358.161 278.818 357.65 279.33 357.267L285.473 353.689C286.113 353.306 286.881 353.306 287.393 353.561L293.664 357.139C294.176 357.394 294.048 357.906 293.536 358.289L287.393 361.867C286.881 362.25 285.985 362.25 285.473 361.994Z" fill="#3E2A03"/>
<path d="M193.586 298.233L187.316 294.656C186.804 294.4 186.932 293.889 187.444 293.506L193.586 289.928C194.226 289.544 194.994 289.545 195.506 289.8L201.777 293.378C202.289 293.633 202.161 294.145 201.649 294.528L195.506 298.106C194.994 298.489 194.098 298.489 193.586 298.233Z" fill="#3E2A03"/>
<path d="M183.988 292.739L177.717 289.161C177.205 288.906 177.333 288.395 177.845 288.011L183.988 284.433C184.628 284.05 185.396 284.05 185.908 284.306L192.179 287.883C192.69 288.139 192.562 288.65 192.051 289.033L186.036 292.611C185.396 292.995 184.5 292.995 183.988 292.739Z" fill="#3E2A03"/>
<path d="M174.518 287.117L168.247 283.539C167.735 283.283 167.863 282.772 168.375 282.389L174.518 278.811C175.158 278.428 175.926 278.428 176.437 278.683L182.708 282.261C183.22 282.517 183.092 283.028 182.58 283.411L176.437 286.989C175.798 287.372 174.902 287.5 174.518 287.117Z" fill="#3E2A03"/>
<path d="M164.92 281.622L158.649 278.045C158.137 277.789 158.265 277.278 158.777 276.895L164.92 273.317C165.56 272.933 166.327 272.933 166.839 273.189L173.11 276.767C173.622 277.022 173.494 277.533 172.982 277.917L166.839 281.495C166.199 281.878 165.432 281.878 164.92 281.622Z" fill="#3E2A03"/>
<path d="M174.774 276L168.503 272.422C167.991 272.167 168.119 271.656 168.631 271.272L170.679 270.122C171.319 269.739 172.086 269.739 172.598 269.995L178.869 273.572C179.381 273.828 179.253 274.339 178.741 274.722L176.694 275.872C176.054 276.256 175.286 276.256 174.774 276Z" fill="#3E2A03"/>
<path d="M187.188 283.156L180.917 279.578C180.405 279.322 180.533 278.811 181.045 278.428L183.092 277.278C183.732 276.894 184.5 276.894 185.012 277.15L191.283 280.728C191.795 280.983 191.667 281.494 191.155 281.878L189.107 283.028C188.595 283.411 187.699 283.411 187.188 283.156Z" fill="#3E2A03"/>
<path d="M196.786 288.65L190.515 285.072C190.003 284.817 190.131 284.306 190.643 283.922L192.69 282.772C193.33 282.389 194.098 282.389 194.61 282.645L200.881 286.222C201.393 286.478 201.265 286.989 200.753 287.372L198.705 288.522C198.193 288.906 197.298 288.906 196.786 288.65Z" fill="#3E2A03"/>
<path d="M206.384 294.144L200.113 290.567C199.601 290.311 199.729 289.8 200.241 289.417L202.289 288.267C202.929 287.883 203.697 287.883 204.208 288.139L210.479 291.717C210.991 291.972 210.863 292.483 210.351 292.867L208.304 294.017C207.664 294.4 206.896 294.4 206.384 294.144Z" fill="#3E2A03"/>
<path d="M215.854 299.639L209.583 296.061C209.072 295.806 209.2 295.295 209.711 294.911L211.759 293.761C212.399 293.378 213.167 293.378 213.679 293.633L219.95 297.211C220.461 297.467 220.333 297.978 219.822 298.361L217.774 299.511C217.262 299.895 216.366 299.895 215.854 299.639Z" fill="#3E2A03"/>
<path d="M269.22 330.433L262.949 326.856C262.438 326.6 262.565 326.089 263.077 325.706L265.125 324.556C265.765 324.172 266.533 324.172 267.045 324.428L273.315 328.006C273.827 328.261 273.699 328.772 273.188 329.156L271.14 330.306C270.628 330.689 269.732 330.689 269.22 330.433Z" fill="#3E2A03"/>
<path d="M278.69 335.928L272.42 332.35C271.908 332.094 272.036 331.583 272.548 331.2L274.595 330.05C275.235 329.667 276.003 329.667 276.515 329.922L282.786 333.5C283.298 333.756 283.17 334.267 282.658 334.65L280.61 335.8C280.098 336.183 279.202 336.183 278.69 335.928Z" fill="#3E2A03"/>
<path d="M288.289 341.422L282.018 337.845C281.506 337.589 281.634 337.078 282.146 336.695L284.193 335.545C284.833 335.161 285.601 335.161 286.113 335.417L292.384 338.995C292.896 339.25 292.768 339.761 292.256 340.145L290.208 341.295C289.696 341.678 288.8 341.678 288.289 341.422Z" fill="#3E2A03"/>
<path d="M297.887 346.917L291.616 343.339C291.104 343.083 291.232 342.572 291.744 342.189L293.792 341.039C294.432 340.656 295.2 340.656 295.711 340.911L301.982 344.489C302.494 344.744 302.366 345.256 301.854 345.639L299.807 346.789C299.167 347.172 298.399 347.172 297.887 346.917Z" fill="#3E2A03"/>
<path d="M203.313 303.728L197.042 300.15C196.53 299.895 196.658 299.383 197.17 299L203.313 295.422C203.952 295.039 204.72 295.039 205.232 295.295L211.503 298.872C212.015 299.128 211.887 299.639 211.375 300.022L205.232 303.6C204.592 303.983 203.824 304.111 203.313 303.728Z" fill="#3E2A03"/>
<path d="M212.911 309.35L206.64 305.772C206.128 305.517 206.256 305.006 206.768 304.622L212.911 301.045C213.551 300.661 214.318 300.661 214.83 300.917L221.101 304.495C221.613 304.75 221.485 305.261 220.973 305.645L214.83 309.222C214.318 309.606 213.423 309.606 212.911 309.35Z" fill="#3E2A03"/>
<path d="M222.509 314.844L216.238 311.267C215.726 311.011 215.854 310.5 216.366 310.117L222.509 306.539C223.149 306.156 223.917 306.156 224.429 306.411L230.7 309.989C231.211 310.244 231.083 310.756 230.572 311.139L224.429 314.717C223.917 315.1 223.021 315.1 222.509 314.844Z" fill="#3E2A03"/>
<path d="M232.235 320.467L225.964 316.889C225.452 316.633 225.58 316.122 226.092 315.739L232.235 312.161C232.875 311.778 233.643 311.778 234.155 312.033L240.426 315.611C240.938 315.867 240.81 316.378 240.298 316.761L234.155 320.339C233.515 320.722 232.747 320.722 232.235 320.467Z" fill="#3E2A03"/>
<path d="M241.833 325.961L235.562 322.383C235.051 322.128 235.179 321.617 235.69 321.233L241.833 317.656C242.473 317.272 243.241 317.272 243.753 317.528L250.024 321.106C250.536 321.361 250.408 321.872 249.896 322.256L243.753 325.833C243.241 326.217 242.345 326.217 241.833 325.961Z" fill="#3E2A03"/>
<path d="M251.432 331.583L245.161 328.006C244.649 327.75 244.777 327.239 245.289 326.856L251.432 323.278C252.072 322.894 252.839 322.894 253.351 323.15L259.622 326.728C260.134 326.983 260.006 327.494 259.494 327.878L253.351 331.456C252.839 331.839 251.944 331.839 251.432 331.583Z" fill="#3E2A03"/>
<path d="M261.158 337.078L254.887 333.5C254.375 333.245 254.503 332.733 255.015 332.35L261.158 328.772C261.798 328.389 262.565 328.389 263.077 328.645L269.348 332.222C269.86 332.478 269.732 332.989 269.22 333.372L263.077 336.95C262.438 337.333 261.542 337.333 261.158 337.078Z" fill="#3E2A03"/>
<path d="M270.756 342.7L264.485 339.122C263.973 338.867 264.101 338.356 264.613 337.972L270.756 334.395C271.396 334.011 272.164 334.011 272.676 334.267L278.946 337.844C279.458 338.1 279.33 338.611 278.818 338.994L272.676 342.572C272.164 342.956 271.268 342.956 270.756 342.7Z" fill="#3E2A03"/>
<path d="M280.354 348.195L274.083 344.617C273.572 344.361 273.7 343.85 274.211 343.467L280.354 339.889C280.994 339.506 281.762 339.506 282.274 339.761L288.545 343.339C289.057 343.595 288.929 344.106 288.417 344.489L282.274 348.067C281.762 348.45 280.866 348.45 280.354 348.195Z" fill="#3E2A03"/>
<path d="M148.155 304.494L129.726 293.889C129.214 293.633 129.342 293.122 129.854 292.739L135.997 289.161C136.637 288.778 137.405 288.778 137.917 289.033L156.345 299.639C156.857 299.894 156.729 300.406 156.217 300.789L150.074 304.367C149.563 304.75 148.667 304.75 148.155 304.494Z" fill="#3E2A03"/>
<path d="M266.533 372.728L248.104 362.122C247.592 361.867 247.72 361.356 248.232 360.972L254.375 357.395C255.015 357.011 255.783 357.011 256.295 357.267L274.723 367.872C275.235 368.128 275.107 368.639 274.595 369.022L268.452 372.6C267.94 372.983 267.045 372.983 266.533 372.728Z" fill="#3E2A03"/>
<path d="M228.012 362.761L221.741 359.183C221.229 358.928 221.357 358.417 221.869 358.033L229.292 353.817C229.932 353.433 230.7 353.433 231.211 353.689L237.482 357.267C237.994 357.522 237.866 358.033 237.354 358.417L229.932 362.633C229.42 363.017 228.524 363.017 228.012 362.761Z" fill="#3E2A03"/>
<path d="M158.009 322.383L148.027 316.633C147.515 316.378 147.643 315.867 148.155 315.483L155.577 311.267C156.217 310.883 156.985 310.883 157.497 311.139L167.479 316.889C167.991 317.144 167.863 317.656 167.351 318.039L159.929 322.256C159.417 322.639 158.521 322.639 158.009 322.383Z" fill="#3E2A03"/>
<path d="M218.798 357.394L208.816 351.644C208.304 351.389 208.432 350.878 208.944 350.494L216.366 346.278C217.006 345.894 217.774 345.894 218.286 346.15L228.268 351.9C228.78 352.156 228.652 352.667 228.14 353.05L220.717 357.267C220.078 357.65 219.31 357.65 218.798 357.394Z" fill="#3E2A03"/>
<path d="M171.958 330.433L161.976 324.683C161.464 324.428 161.592 323.917 162.104 323.533L169.527 319.317C170.167 318.933 170.935 318.933 171.447 319.189L181.429 324.939C181.941 325.195 181.813 325.706 181.301 326.089L173.878 330.306C173.366 330.689 172.47 330.689 171.958 330.433Z" fill="#3E2A03"/>
<path d="M171.447 319.317L214.83 344.361C215.342 344.617 215.342 345.128 214.83 345.511L207.28 349.856C206.768 350.111 205.872 350.111 205.36 349.856L161.976 324.811L171.447 319.317Z" fill="#3E2A03"/>
<path d="M255.015 372.856L261.926 376.817C262.31 377.072 262.31 377.456 261.798 377.711L258.726 379.5C258.214 379.756 257.574 379.756 257.063 379.628L250.152 375.667C249.768 375.411 249.768 375.028 250.28 374.772L253.351 372.983C253.863 372.6 254.503 372.6 255.015 372.856Z" fill="#3E2A03"/>
<path d="M245.289 367.233L252.199 371.195C252.583 371.45 252.583 371.833 252.071 372.089L249 373.878C248.488 374.133 247.848 374.133 247.336 374.006L240.426 370.045C240.042 369.789 240.042 369.406 240.554 369.15L243.625 367.361C244.137 366.978 244.777 366.978 245.289 367.233Z" fill="#3E2A03"/>
<path d="M235.563 361.611L242.473 365.572C242.857 365.828 242.857 366.211 242.345 366.467L239.274 368.256C238.762 368.511 238.122 368.511 237.61 368.383L230.699 364.422C230.316 364.167 230.316 363.783 230.827 363.528L233.899 361.739C234.539 361.483 235.179 361.483 235.563 361.611Z" fill="#3E2A03"/>
<path d="M250.536 364.167L257.446 368.128C257.83 368.383 257.83 368.767 257.318 369.022L254.247 370.811C253.735 371.067 253.095 371.067 252.583 370.939L245.673 366.978C245.289 366.722 245.289 366.339 245.801 366.083L248.872 364.295C249.384 363.911 250.152 363.911 250.536 364.167Z" fill="#3E2A03"/>
</g>
<path d="M352.533 352.922L168.375 246.739C165.431 245.078 164.024 240.989 165.048 237.667L206.64 102.733C207.664 99.4112 210.863 98.0057 213.806 99.6668L397.964 205.85C400.908 207.511 402.315 211.6 401.292 214.922L359.699 349.856C358.676 353.178 355.476 354.583 352.533 352.922Z" fill="url(#paint5_radial_480_4674)"/>
<path d="M350.869 348.195L172.342 245.206C169.527 243.672 168.119 239.711 169.143 236.517L208.943 107.461C209.967 104.267 213.039 102.989 215.726 104.522L394.253 207.511C397.068 209.045 398.476 213.006 397.452 216.2L357.652 345.256C356.628 348.45 353.557 349.728 350.869 348.195Z" fill="url(#paint6_linear_480_4674)"/>
<path opacity="0.4" d="M350.869 348.195L172.342 245.206C169.527 243.672 168.119 239.711 169.143 236.517L208.943 107.461C209.967 104.267 213.039 102.989 215.726 104.522L394.253 207.511C397.068 209.045 398.476 213.006 397.452 216.2L357.652 345.256C356.628 348.45 353.557 349.728 350.869 348.195Z" fill="#3E2A03"/>
<path opacity="0.4" d="M350.869 348.195L172.342 245.206C169.527 243.672 168.119 239.711 169.143 236.517L208.943 107.461C209.967 104.267 213.039 102.989 215.726 104.522L394.253 207.511C397.068 209.045 398.476 213.006 397.452 216.2L357.652 345.256C356.628 348.45 353.557 349.728 350.869 348.195Z" fill="#3E2A03"/>
<path opacity="0.5" d="M341.271 308.711L220.333 239.072C218.414 237.922 217.39 235.367 218.158 233.067L245.545 144.389C246.185 142.217 248.36 141.322 250.152 142.344L371.089 211.983C373.009 213.133 374.033 215.689 373.265 217.989L345.878 306.667C345.238 308.967 343.19 309.861 341.271 308.711Z" fill="#3E2A03"/>
<path d="M324.89 310.883L203.952 241.245C202.033 240.095 201.009 237.539 201.777 235.239L229.164 146.561C229.803 144.389 231.979 143.495 233.771 144.517L354.708 214.156C356.628 215.306 357.652 217.861 356.884 220.161L329.497 308.839C328.857 311.139 326.809 312.033 324.89 310.883Z" fill="url(#paint7_radial_480_4674)"/>
<g opacity="0.5">
<path d="M324.89 310.883L203.952 241.245C202.033 240.095 201.009 237.539 201.777 235.239L229.164 146.561C229.803 144.389 231.979 143.495 233.771 144.517L354.708 214.156C356.628 215.306 357.652 217.861 356.884 220.161L329.497 308.839C328.857 311.139 326.809 312.033 324.89 310.883Z" fill="#3E2A03"/>
</g>
<path d="M354.708 214.283L233.771 144.644C232.619 144.006 231.339 144.006 230.315 144.772C230.827 144.772 231.467 144.9 232.107 145.156L353.045 214.794C354.964 215.944 355.988 218.5 355.22 220.8L327.833 309.478C327.577 310.244 327.193 310.883 326.554 311.394C327.833 311.394 328.985 310.5 329.497 308.967L356.884 220.289C357.524 218.117 356.628 215.433 354.708 214.283Z" fill="white"/>
<path opacity="0.4" d="M172.47 383.206C170.806 383.206 169.271 382.822 167.991 382.183L119.488 354.328C118.208 353.561 117.44 352.539 117.44 351.389C117.44 349.983 118.464 348.706 120.128 347.683L145.083 333.372C148.155 331.583 152.634 331.456 155.321 332.989L203.696 360.844C204.976 361.611 205.744 362.633 205.744 363.783C205.744 365.189 204.72 366.467 203.057 367.489L178.101 381.8C176.437 382.822 174.39 383.206 172.47 383.206ZM150.842 333.244C149.051 333.244 147.259 333.628 145.851 334.522L120.896 348.833C119.616 349.6 118.976 350.494 118.976 351.261C118.976 352.156 119.616 352.667 120.256 353.05L168.631 380.906C170.806 382.183 174.902 382.056 177.461 380.522L202.417 366.211C203.696 365.444 204.336 364.55 204.336 363.783C204.336 362.889 203.696 362.378 203.057 361.994L154.682 334.011C153.658 333.5 152.25 333.244 150.842 333.244Z" fill="#3E2A03"/>
<path d="M263.205 191.156L255.783 186.811C255.143 186.428 254.759 185.406 255.015 184.639C255.271 183.872 256.039 183.489 256.678 184L264.101 188.345C264.741 188.728 265.125 189.75 264.869 190.517C264.741 191.156 263.973 191.539 263.205 191.156Z" fill="white"/>
<path d="M280.994 201.378L269.988 194.989C269.348 194.606 268.964 193.583 269.22 192.817C269.476 192.05 270.244 191.667 270.884 192.178L281.89 198.567C282.53 198.95 282.914 199.972 282.658 200.739C282.53 201.506 281.762 201.761 280.994 201.378Z" fill="white"/>
<path d="M248.232 224.378L240.809 220.033C240.17 219.65 239.786 218.628 240.042 217.861C240.298 217.095 241.065 216.711 241.705 217.222L249.128 221.567C249.768 221.95 250.152 222.972 249.896 223.739C249.64 224.378 248.872 224.761 248.232 224.378Z" fill="white"/>
<path d="M264.101 233.45L253.095 227.061C252.455 226.678 252.071 225.656 252.327 224.889C252.583 224.122 253.351 223.739 253.991 224.25L264.997 230.639C265.637 231.022 266.021 232.045 265.765 232.811C265.509 233.578 264.741 233.834 264.101 233.45Z" fill="white"/>
<path d="M240.809 185.15L236.202 182.467C235.562 182.083 235.178 181.061 235.434 180.295C235.69 179.528 236.458 179.145 237.098 179.656L241.705 182.339C242.345 182.722 242.729 183.745 242.473 184.511C242.345 185.278 241.577 185.661 240.809 185.15Z" fill="white"/>
<path d="M254.887 200.228L240.682 192.05C240.042 191.667 239.658 190.645 239.914 189.878C240.17 189.111 240.937 188.728 241.577 189.239L255.783 197.417C256.423 197.8 256.807 198.822 256.551 199.589C256.295 200.356 255.655 200.739 254.887 200.228Z" fill="white"/>
<path d="M241.705 206.617L237.098 203.933C236.458 203.55 236.074 202.528 236.33 201.761C236.586 200.995 237.354 200.611 237.994 201.122L242.601 203.806C243.241 204.189 243.625 205.211 243.369 205.978C243.241 206.745 242.473 207.128 241.705 206.617Z" fill="white"/>
<path d="M265.765 248.4L253.351 241.245C252.711 240.861 252.327 239.839 252.583 239.072C252.839 238.306 253.607 237.922 254.247 238.434L266.66 245.589C267.3 245.972 267.684 246.995 267.428 247.761C267.172 248.528 266.405 248.911 265.765 248.4Z" fill="white"/>
<path d="M236.458 217.606L233.515 215.817C232.875 215.433 232.491 214.411 232.747 213.645C233.003 212.878 233.771 212.495 234.411 213.006L237.354 214.795C237.994 215.178 238.378 216.2 238.122 216.967C237.994 217.733 237.226 217.989 236.458 217.606Z" fill="white"/>
<path d="M233.643 230L229.932 227.828C229.292 227.445 228.908 226.422 229.164 225.656C229.42 224.889 230.187 224.506 230.827 225.017L234.539 227.189C235.179 227.572 235.562 228.595 235.307 229.361C235.179 230 234.411 230.383 233.643 230Z" fill="white"/>
<path d="M248.104 238.306L238.25 232.683C237.61 232.3 237.226 231.278 237.482 230.511C237.738 229.745 238.506 229.361 239.146 229.872L249 235.495C249.64 235.878 250.024 236.9 249.768 237.667C249.64 238.433 248.872 238.689 248.104 238.306Z" fill="white"/>
<path d="M235.178 237.795L228.14 233.706C227.5 233.322 227.116 232.3 227.372 231.533C227.628 230.767 228.396 230.383 229.036 230.895L236.074 234.983C236.714 235.367 237.098 236.389 236.842 237.156C236.714 237.922 235.946 238.178 235.178 237.795Z" fill="white"/>
<path d="M276.515 254.661L272.036 252.106C271.396 251.722 271.012 250.7 271.268 249.934C271.524 249.167 272.291 248.784 272.931 249.295L277.411 251.85C278.05 252.234 278.434 253.256 278.178 254.022C277.922 254.789 277.155 255.045 276.515 254.661Z" fill="white"/>
<path d="M259.11 216.711L246.696 209.556C246.057 209.172 245.673 208.15 245.929 207.383C246.185 206.617 246.952 206.233 247.592 206.745L260.006 213.9C260.646 214.283 261.03 215.306 260.774 216.072C260.518 216.711 259.75 217.095 259.11 216.711Z" fill="white"/>
<path d="M260.646 210.578L238.89 198.056C238.25 197.672 237.866 196.65 238.122 195.883C238.378 195.117 239.146 194.733 239.786 195.245L261.542 207.767C262.181 208.15 262.565 209.172 262.309 209.939C262.053 210.578 261.286 210.961 260.646 210.578Z" fill="#E8975B"/>
<path d="M247.72 217.095L235.307 209.939C234.667 209.556 234.283 208.533 234.539 207.767C234.795 207 235.562 206.617 236.202 207.128L248.616 214.283C249.256 214.667 249.64 215.689 249.384 216.456C249.256 217.222 248.488 217.478 247.72 217.095Z" fill="#E8975B"/>
<path d="M268.58 222.078L264.101 219.522C263.461 219.139 263.077 218.117 263.333 217.35C263.589 216.583 264.357 216.2 264.997 216.711L269.476 219.267C270.116 219.65 270.5 220.672 270.244 221.439C269.988 222.206 269.22 222.589 268.58 222.078Z" fill="#E8975B"/>
<path d="M314.652 220.8L287.777 205.339C287.137 204.956 286.753 203.933 287.009 203.167C287.265 202.4 288.033 202.017 288.673 202.528L315.548 217.989C316.187 218.372 316.571 219.395 316.315 220.161C316.059 220.8 315.292 221.183 314.652 220.8Z" fill="#E8975B"/>
<path d="M246.696 230.511L231.723 221.822C231.083 221.439 230.699 220.417 230.955 219.65C231.211 218.883 231.979 218.5 232.619 219.011L247.592 227.7C248.232 228.083 248.616 229.106 248.36 229.872C248.232 230.639 247.464 230.894 246.696 230.511Z" fill="#F8359E"/>
<path d="M249 182.85L237.994 176.461C237.354 176.078 236.97 175.056 237.226 174.289C237.482 173.522 238.25 173.139 238.89 173.65L249.896 180.039C250.536 180.422 250.92 181.445 250.664 182.211C250.408 182.978 249.64 183.361 249 182.85Z" fill="#F8359E"/>
<path d="M232.875 243.545L220.077 236.133C219.437 235.75 219.053 234.728 219.309 233.961C219.565 233.195 220.333 232.811 220.973 233.322L233.771 240.733C234.411 241.117 234.795 242.139 234.539 242.906C234.411 243.545 233.643 243.928 232.875 243.545Z" fill="#E8975B"/>
<path d="M314.78 204.572L309.277 201.378C308.765 201.122 308.509 200.356 308.637 199.845C308.765 199.333 309.405 199.078 309.917 199.333L315.42 202.528C315.932 202.783 316.187 203.55 316.06 204.061C315.804 204.572 315.292 204.828 314.78 204.572Z" fill="white"/>
<path d="M325.146 210.578L319.643 207.383C319.131 207.128 318.875 206.361 319.003 205.85C319.131 205.339 319.771 205.083 320.283 205.339L325.786 208.533C326.297 208.789 326.553 209.556 326.425 210.067C326.297 210.578 325.658 210.833 325.146 210.578Z" fill="white"/>
<path d="M335.64 216.583L330.137 213.389C329.625 213.133 329.369 212.367 329.497 211.856C329.625 211.345 330.265 211.089 330.777 211.345L336.28 214.539C336.792 214.795 337.048 215.561 336.92 216.072C336.664 216.583 336.152 216.839 335.64 216.583Z" fill="white"/>
<path d="M340.759 219.522L340.631 219.395C340.119 219.139 339.863 218.372 339.991 217.861C340.119 217.35 340.759 217.095 341.271 217.35L341.399 217.478C341.911 217.733 342.167 218.5 342.039 219.011C341.783 219.522 341.271 219.778 340.759 219.522Z" fill="#F8359E"/>
<defs>
<linearGradient id="paint0_linear_480_4674" x1="54.3037" y1="243.438" x2="123.688" y2="243.438" gradientUnits="userSpaceOnUse">
<stop stop-color="#E39A65"/>
<stop offset="1" stop-color="#E95F8D"/>
</linearGradient>
<linearGradient id="paint1_linear_480_4674" x1="7.22196" y1="368.513" x2="380.654" y2="368.513" gradientUnits="userSpaceOnUse">
<stop stop-color="#E39A65"/>
<stop offset="1" stop-color="#E95F8D"/>
</linearGradient>
<radialGradient id="paint2_radial_480_4674" cx="0" cy="0" r="1" gradientUnits="userSpaceOnUse" gradientTransform="translate(213.527 91.9311) scale(285.766 285.323)">
<stop stop-color="#E39A65"/>
<stop offset="0.4742" stop-color="#EAFB2F"/>
<stop offset="0.6365" stop-color="#F4BD16"/>
<stop offset="0.7421" stop-color="#FA9907"/>
<stop offset="0.8016" stop-color="#6F490C"/>
</radialGradient>
<radialGradient id="paint3_radial_480_4674" cx="0" cy="0" r="1" gradientUnits="userSpaceOnUse" gradientTransform="translate(38.7469 321.066) scale(312.483 311.998)">
<stop stop-color="#E39A65"/>
<stop offset="0.4742" stop-color="#EAFB2F"/>
<stop offset="0.6004" stop-color="#F4BD16"/>
<stop offset="0.6825" stop-color="#FA9907"/>
<stop offset="0.7381" stop-color="#6F490C"/>
</radialGradient>
<radialGradient id="paint4_radial_480_4674" cx="0" cy="0" r="1" gradientUnits="userSpaceOnUse" gradientTransform="translate(67.4867 258.443) scale(280.217 279.782)">
<stop stop-color="#E39A65"/>
<stop offset="0.4742" stop-color="#EAFB2F"/>
<stop offset="0.6268" stop-color="#F4BD16"/>
<stop offset="0.7262" stop-color="#FA9907"/>
<stop offset="1" stop-color="#BBA819"/>
</radialGradient>
<radialGradient id="paint5_radial_480_4674" cx="0" cy="0" r="1" gradientUnits="userSpaceOnUse" gradientTransform="translate(137.294 151.447) scale(285.823 285.38)">
<stop stop-color="#E39A65"/>
<stop offset="0.4742" stop-color="#EAFB2F"/>
<stop offset="0.6268" stop-color="#F4BD16"/>
<stop offset="0.7262" stop-color="#FA9907"/>
<stop offset="1" stop-color="#BBA819"/>
</radialGradient>
<linearGradient id="paint6_linear_480_4674" x1="168.71" y1="226.36" x2="397.744" y2="226.36" gradientUnits="userSpaceOnUse">
<stop stop-color="#BBA819"/>
<stop offset="1" stop-color="#FA9907"/>
</linearGradient>
<radialGradient id="paint7_radial_480_4674" cx="0" cy="0" r="1" gradientUnits="userSpaceOnUse" gradientTransform="translate(32.9532 90.5053) scale(445.162 444.472)">
<stop stop-color="#E39A65"/>
<stop offset="0.4742" stop-color="#EAFB2F"/>
<stop offset="0.6268" stop-color="#F4BD16"/>
<stop offset="0.7262" stop-color="#FA9907"/>
<stop offset="1" stop-color="#BBA819"/>
</radialGradient>
</defs>
</svg>
